<mxfile host="Electron" agent="Mozilla/5.0 (Windows NT 10.0; Win64; x64) AppleWebKit/537.36 (KHTML, like Gecko) draw.io/26.0.9 Chrome/128.0.6613.186 Electron/32.2.5 Safari/537.36" version="26.0.9" pages="2">
  <diagram id="g3efRKUIFH3CFgadWszy" name="Versiones">
    <mxGraphModel dx="794" dy="557" grid="1" gridSize="10" guides="1" tooltips="1" connect="1" arrows="1" fold="1" page="1" pageScale="1" pageWidth="827" pageHeight="1169" math="0" shadow="0">
      <root>
        <mxCell id="0" />
        <mxCell id="1" parent="0" />
        <mxCell id="QOJwp3pk0zYt3Cambvdv-1" value="" style="shape=table;startSize=0;container=1;collapsible=0;childLayout=tableLayout;fontFamily=Roboto;fontSource=https://fonts.googleapis.com/css?family=Roboto;fontSize=16;strokeWidth=1;align=left;" parent="1" vertex="1">
          <mxGeometry x="80" y="101" width="1010" height="200" as="geometry" />
        </mxCell>
        <mxCell id="QOJwp3pk0zYt3Cambvdv-2" value="" style="shape=partialRectangle;collapsible=0;dropTarget=0;pointerEvents=0;fillColor=none;top=0;left=0;bottom=0;right=0;points=[[0,0.5],[1,0.5]];portConstraint=eastwest;fontFamily=Roboto;fontSource=https://fonts.googleapis.com/css?family=Roboto;fontSize=16;strokeWidth=1;" parent="QOJwp3pk0zYt3Cambvdv-1" vertex="1">
          <mxGeometry width="1010" height="40" as="geometry" />
        </mxCell>
        <mxCell id="QOJwp3pk0zYt3Cambvdv-3" value="NOMBRE" style="shape=partialRectangle;html=1;whiteSpace=wrap;connectable=0;overflow=hidden;fillColor=none;top=0;left=0;bottom=0;right=0;pointerEvents=1;fontFamily=Roboto;fontSource=https://fonts.googleapis.com/css?family=Roboto;fontSize=16;strokeWidth=1;" parent="QOJwp3pk0zYt3Cambvdv-2" vertex="1">
          <mxGeometry width="356" height="40" as="geometry">
            <mxRectangle width="356" height="40" as="alternateBounds" />
          </mxGeometry>
        </mxCell>
        <mxCell id="QOJwp3pk0zYt3Cambvdv-4" value="FECHA" style="shape=partialRectangle;html=1;whiteSpace=wrap;connectable=0;overflow=hidden;fillColor=none;top=0;left=0;bottom=0;right=0;pointerEvents=1;fontFamily=Roboto;fontSource=https://fonts.googleapis.com/css?family=Roboto;fontSize=16;strokeWidth=1;" parent="QOJwp3pk0zYt3Cambvdv-2" vertex="1">
          <mxGeometry x="356" width="109" height="40" as="geometry">
            <mxRectangle width="109" height="40" as="alternateBounds" />
          </mxGeometry>
        </mxCell>
        <mxCell id="QOJwp3pk0zYt3Cambvdv-5" value="VERSION" style="shape=partialRectangle;html=1;whiteSpace=wrap;connectable=0;overflow=hidden;fillColor=none;top=0;left=0;bottom=0;right=0;pointerEvents=1;fontFamily=Roboto;fontSource=https://fonts.googleapis.com/css?family=Roboto;fontSize=16;strokeWidth=1;" parent="QOJwp3pk0zYt3Cambvdv-2" vertex="1">
          <mxGeometry x="465" width="80" height="40" as="geometry">
            <mxRectangle width="80" height="40" as="alternateBounds" />
          </mxGeometry>
        </mxCell>
        <mxCell id="QOJwp3pk0zYt3Cambvdv-6" value="COMENTARIO" style="shape=partialRectangle;html=1;whiteSpace=wrap;connectable=0;overflow=hidden;fillColor=none;top=0;left=0;bottom=0;right=0;pointerEvents=1;fontFamily=Roboto;fontSource=https://fonts.googleapis.com/css?family=Roboto;fontSize=16;strokeWidth=1;" parent="QOJwp3pk0zYt3Cambvdv-2" vertex="1">
          <mxGeometry x="545" width="465" height="40" as="geometry">
            <mxRectangle width="465" height="40" as="alternateBounds" />
          </mxGeometry>
        </mxCell>
        <mxCell id="QOJwp3pk0zYt3Cambvdv-7" value="" style="shape=partialRectangle;collapsible=0;dropTarget=0;pointerEvents=0;fillColor=none;top=0;left=0;bottom=0;right=0;points=[[0,0.5],[1,0.5]];portConstraint=eastwest;fontFamily=Roboto;fontSource=https://fonts.googleapis.com/css?family=Roboto;fontSize=16;strokeWidth=1;" parent="QOJwp3pk0zYt3Cambvdv-1" vertex="1">
          <mxGeometry y="40" width="1010" height="40" as="geometry" />
        </mxCell>
        <mxCell id="QOJwp3pk0zYt3Cambvdv-8" value="Mayra Rodríguez García" style="shape=partialRectangle;html=1;whiteSpace=wrap;connectable=0;overflow=hidden;fillColor=none;top=0;left=0;bottom=0;right=0;pointerEvents=1;fontFamily=Roboto;fontSource=https://fonts.googleapis.com/css?family=Roboto;fontSize=16;strokeWidth=1;" parent="QOJwp3pk0zYt3Cambvdv-7" vertex="1">
          <mxGeometry width="356" height="40" as="geometry">
            <mxRectangle width="356" height="40" as="alternateBounds" />
          </mxGeometry>
        </mxCell>
        <mxCell id="QOJwp3pk0zYt3Cambvdv-9" value="06/05/2025" style="shape=partialRectangle;html=1;whiteSpace=wrap;connectable=0;overflow=hidden;fillColor=none;top=0;left=0;bottom=0;right=0;pointerEvents=1;fontFamily=Roboto;fontSource=https://fonts.googleapis.com/css?family=Roboto;fontSize=16;strokeWidth=1;" parent="QOJwp3pk0zYt3Cambvdv-7" vertex="1">
          <mxGeometry x="356" width="109" height="40" as="geometry">
            <mxRectangle width="109" height="40" as="alternateBounds" />
          </mxGeometry>
        </mxCell>
        <mxCell id="QOJwp3pk0zYt3Cambvdv-10" value="1.0" style="shape=partialRectangle;html=1;whiteSpace=wrap;connectable=0;overflow=hidden;fillColor=none;top=0;left=0;bottom=0;right=0;pointerEvents=1;fontFamily=Roboto;fontSource=https://fonts.googleapis.com/css?family=Roboto;fontSize=16;strokeWidth=1;" parent="QOJwp3pk0zYt3Cambvdv-7" vertex="1">
          <mxGeometry x="465" width="80" height="40" as="geometry">
            <mxRectangle width="80" height="40" as="alternateBounds" />
          </mxGeometry>
        </mxCell>
        <mxCell id="QOJwp3pk0zYt3Cambvdv-11" value="Creación del Documento" style="shape=partialRectangle;html=1;whiteSpace=wrap;connectable=0;overflow=hidden;fillColor=none;top=0;left=0;bottom=0;right=0;pointerEvents=1;fontFamily=Roboto;fontSource=https://fonts.googleapis.com/css?family=Roboto;fontSize=16;strokeWidth=1;align=left;" parent="QOJwp3pk0zYt3Cambvdv-7" vertex="1">
          <mxGeometry x="545" width="465" height="40" as="geometry">
            <mxRectangle width="465" height="40" as="alternateBounds" />
          </mxGeometry>
        </mxCell>
        <mxCell id="QOJwp3pk0zYt3Cambvdv-12" value="" style="shape=partialRectangle;collapsible=0;dropTarget=0;pointerEvents=0;fillColor=none;top=0;left=0;bottom=0;right=0;points=[[0,0.5],[1,0.5]];portConstraint=eastwest;fontFamily=Roboto;fontSource=https://fonts.googleapis.com/css?family=Roboto;fontSize=16;strokeWidth=1;" parent="QOJwp3pk0zYt3Cambvdv-1" vertex="1">
          <mxGeometry y="80" width="1010" height="40" as="geometry" />
        </mxCell>
        <mxCell id="QOJwp3pk0zYt3Cambvdv-13" value="Mayra Rodríguez García" style="shape=partialRectangle;html=1;whiteSpace=wrap;connectable=0;overflow=hidden;fillColor=none;top=0;left=0;bottom=0;right=0;pointerEvents=1;fontFamily=Roboto;fontSource=https://fonts.googleapis.com/css?family=Roboto;fontSize=16;strokeWidth=1;" parent="QOJwp3pk0zYt3Cambvdv-12" vertex="1">
          <mxGeometry width="356" height="40" as="geometry">
            <mxRectangle width="356" height="40" as="alternateBounds" />
          </mxGeometry>
        </mxCell>
        <mxCell id="QOJwp3pk0zYt3Cambvdv-14" value="07/05/2025" style="shape=partialRectangle;html=1;whiteSpace=wrap;connectable=0;overflow=hidden;fillColor=none;top=0;left=0;bottom=0;right=0;pointerEvents=1;fontFamily=Roboto;fontSource=https://fonts.googleapis.com/css?family=Roboto;fontSize=16;strokeWidth=1;" parent="QOJwp3pk0zYt3Cambvdv-12" vertex="1">
          <mxGeometry x="356" width="109" height="40" as="geometry">
            <mxRectangle width="109" height="40" as="alternateBounds" />
          </mxGeometry>
        </mxCell>
        <mxCell id="QOJwp3pk0zYt3Cambvdv-15" value="1.1" style="shape=partialRectangle;html=1;whiteSpace=wrap;connectable=0;overflow=hidden;fillColor=none;top=0;left=0;bottom=0;right=0;pointerEvents=1;fontFamily=Roboto;fontSource=https://fonts.googleapis.com/css?family=Roboto;fontSize=16;strokeWidth=1;" parent="QOJwp3pk0zYt3Cambvdv-12" vertex="1">
          <mxGeometry x="465" width="80" height="40" as="geometry">
            <mxRectangle width="80" height="40" as="alternateBounds" />
          </mxGeometry>
        </mxCell>
        <mxCell id="QOJwp3pk0zYt3Cambvdv-16" value="Front MDP - Consulta cuentas captación relacionadas a una tarjeta" style="shape=partialRectangle;html=1;whiteSpace=wrap;connectable=0;overflow=hidden;fillColor=none;top=0;left=0;bottom=0;right=0;pointerEvents=1;fontFamily=Roboto;fontSource=https://fonts.googleapis.com/css?family=Roboto;fontSize=16;strokeWidth=1;align=left;" parent="QOJwp3pk0zYt3Cambvdv-12" vertex="1">
          <mxGeometry x="545" width="465" height="40" as="geometry">
            <mxRectangle width="465" height="40" as="alternateBounds" />
          </mxGeometry>
        </mxCell>
        <mxCell id="QOJwp3pk0zYt3Cambvdv-17" style="shape=partialRectangle;collapsible=0;dropTarget=0;pointerEvents=0;fillColor=none;top=0;left=0;bottom=0;right=0;points=[[0,0.5],[1,0.5]];portConstraint=eastwest;fontFamily=Roboto;fontSource=https://fonts.googleapis.com/css?family=Roboto;fontSize=16;strokeWidth=1;" parent="QOJwp3pk0zYt3Cambvdv-1" vertex="1">
          <mxGeometry y="120" width="1010" height="40" as="geometry" />
        </mxCell>
        <mxCell id="QOJwp3pk0zYt3Cambvdv-18" value="" style="shape=partialRectangle;html=1;whiteSpace=wrap;connectable=0;overflow=hidden;fillColor=none;top=0;left=0;bottom=0;right=0;pointerEvents=1;fontFamily=Roboto;fontSource=https://fonts.googleapis.com/css?family=Roboto;fontSize=16;strokeWidth=1;" parent="QOJwp3pk0zYt3Cambvdv-17" vertex="1">
          <mxGeometry width="356" height="40" as="geometry">
            <mxRectangle width="356" height="40" as="alternateBounds" />
          </mxGeometry>
        </mxCell>
        <mxCell id="QOJwp3pk0zYt3Cambvdv-19" value="" style="shape=partialRectangle;html=1;whiteSpace=wrap;connectable=0;overflow=hidden;fillColor=none;top=0;left=0;bottom=0;right=0;pointerEvents=1;fontFamily=Roboto;fontSource=https://fonts.googleapis.com/css?family=Roboto;fontSize=16;strokeWidth=1;" parent="QOJwp3pk0zYt3Cambvdv-17" vertex="1">
          <mxGeometry x="356" width="109" height="40" as="geometry">
            <mxRectangle width="109" height="40" as="alternateBounds" />
          </mxGeometry>
        </mxCell>
        <mxCell id="QOJwp3pk0zYt3Cambvdv-20" value="" style="shape=partialRectangle;html=1;whiteSpace=wrap;connectable=0;overflow=hidden;fillColor=none;top=0;left=0;bottom=0;right=0;pointerEvents=1;fontFamily=Roboto;fontSource=https://fonts.googleapis.com/css?family=Roboto;fontSize=16;strokeWidth=1;" parent="QOJwp3pk0zYt3Cambvdv-17" vertex="1">
          <mxGeometry x="465" width="80" height="40" as="geometry">
            <mxRectangle width="80" height="40" as="alternateBounds" />
          </mxGeometry>
        </mxCell>
        <mxCell id="QOJwp3pk0zYt3Cambvdv-21" value="" style="shape=partialRectangle;html=1;whiteSpace=wrap;connectable=0;overflow=hidden;fillColor=none;top=0;left=0;bottom=0;right=0;pointerEvents=1;fontFamily=Roboto;fontSource=https://fonts.googleapis.com/css?family=Roboto;fontSize=16;strokeWidth=1;align=left;" parent="QOJwp3pk0zYt3Cambvdv-17" vertex="1">
          <mxGeometry x="545" width="465" height="40" as="geometry">
            <mxRectangle width="465" height="40" as="alternateBounds" />
          </mxGeometry>
        </mxCell>
        <mxCell id="QOJwp3pk0zYt3Cambvdv-22" style="shape=partialRectangle;collapsible=0;dropTarget=0;pointerEvents=0;fillColor=none;top=0;left=0;bottom=0;right=0;points=[[0,0.5],[1,0.5]];portConstraint=eastwest;fontFamily=Roboto;fontSource=https://fonts.googleapis.com/css?family=Roboto;fontSize=16;strokeWidth=1;" parent="QOJwp3pk0zYt3Cambvdv-1" vertex="1">
          <mxGeometry y="160" width="1010" height="40" as="geometry" />
        </mxCell>
        <mxCell id="QOJwp3pk0zYt3Cambvdv-23" style="shape=partialRectangle;html=1;whiteSpace=wrap;connectable=0;overflow=hidden;fillColor=none;top=0;left=0;bottom=0;right=0;pointerEvents=1;fontFamily=Roboto;fontSource=https://fonts.googleapis.com/css?family=Roboto;fontSize=16;strokeWidth=1;" parent="QOJwp3pk0zYt3Cambvdv-22" vertex="1">
          <mxGeometry width="356" height="40" as="geometry">
            <mxRectangle width="356" height="40" as="alternateBounds" />
          </mxGeometry>
        </mxCell>
        <mxCell id="QOJwp3pk0zYt3Cambvdv-24" style="shape=partialRectangle;html=1;whiteSpace=wrap;connectable=0;overflow=hidden;fillColor=none;top=0;left=0;bottom=0;right=0;pointerEvents=1;fontFamily=Roboto;fontSource=https://fonts.googleapis.com/css?family=Roboto;fontSize=16;strokeWidth=1;" parent="QOJwp3pk0zYt3Cambvdv-22" vertex="1">
          <mxGeometry x="356" width="109" height="40" as="geometry">
            <mxRectangle width="109" height="40" as="alternateBounds" />
          </mxGeometry>
        </mxCell>
        <mxCell id="QOJwp3pk0zYt3Cambvdv-25" style="shape=partialRectangle;html=1;whiteSpace=wrap;connectable=0;overflow=hidden;fillColor=none;top=0;left=0;bottom=0;right=0;pointerEvents=1;fontFamily=Roboto;fontSource=https://fonts.googleapis.com/css?family=Roboto;fontSize=16;strokeWidth=1;" parent="QOJwp3pk0zYt3Cambvdv-22" vertex="1">
          <mxGeometry x="465" width="80" height="40" as="geometry">
            <mxRectangle width="80" height="40" as="alternateBounds" />
          </mxGeometry>
        </mxCell>
        <mxCell id="QOJwp3pk0zYt3Cambvdv-26" style="shape=partialRectangle;html=1;whiteSpace=wrap;connectable=0;overflow=hidden;fillColor=none;top=0;left=0;bottom=0;right=0;pointerEvents=1;fontFamily=Roboto;fontSource=https://fonts.googleapis.com/css?family=Roboto;fontSize=16;strokeWidth=1;align=left;" parent="QOJwp3pk0zYt3Cambvdv-22" vertex="1">
          <mxGeometry x="545" width="465" height="40" as="geometry">
            <mxRectangle width="465" height="40" as="alternateBounds" />
          </mxGeometry>
        </mxCell>
        <mxCell id="QOJwp3pk0zYt3Cambvdv-27" value="&lt;font style=&quot;font-size: 20px;&quot;&gt;CONTROL DE VERSIONES&lt;/font&gt;" style="rounded=0;whiteSpace=wrap;html=1;fontColor=#FFFFFF;labelBackgroundColor=none;fillColor=#36393D;fontSize=20;align=left;" parent="1" vertex="1">
          <mxGeometry x="80" y="50" width="1010" height="41" as="geometry" />
        </mxCell>
      </root>
    </mxGraphModel>
  </diagram>
  <diagram name="Front MDP - Consulta cuentas captación relacionadas a una tarjeta" id="2YBvvXClWsGukQMizWep">
    <mxGraphModel dx="1593" dy="1616" grid="1" gridSize="10" guides="1" tooltips="1" connect="1" arrows="1" fold="1" page="1" pageScale="1" pageWidth="850" pageHeight="1100" math="0" shadow="0">
      <root>
        <mxCell id="0" />
        <mxCell id="1" parent="0" />
        <mxCell id="Bnk67_aWibF8yN_9XxKm-1" value="&lt;span style=&quot;text-align: left;&quot;&gt;PLARD FRONT MDP -&amp;nbsp;&lt;/span&gt;&lt;span style=&quot;text-align: left;&quot;&gt;Consulta cuentas captación relacionadas a una tarjeta&lt;/span&gt;&lt;span style=&quot;text-align: left;&quot;&gt;&amp;nbsp;- MODELO FUNCIONAL DE SECUENCIA&lt;/span&gt;" style="rounded=0;whiteSpace=wrap;html=1;align=center;fontSize=16;fontStyle=1" parent="1" vertex="1">
          <mxGeometry x="-1" y="202" width="2601" height="79" as="geometry" />
        </mxCell>
        <mxCell id="Bnk67_aWibF8yN_9XxKm-202" value="&lt;img alt=&quot;&quot; src=&quot;data:image/png;base64,iVBORw0KGgoAAAANSUhEUgAAAOgAAABXCAYAAAAONQnYAAAAAXNSR0IArs4c6QAAAARnQU1BAACxjwv8YQUAAAAJcEhZcwAAFxEAABcRAcom8z8AACX3SURBVHhe7Z0JmBTVtcdPL9N797BIFEWFqIiAskgU0IggGiMvbhF5aDQmrnFHBBVRjGwSQEUNboDGGBeeu2ERVBCVXYFhBGbt6a7uWnudGTZR6v1PTzEOAwPTQ4+A1P/7zlfLPXWreub++pxbdes2mTJlypQpU6ZMmTJlypQpU6ZMmTJlypQpU6ZMmTJlypQpU6ZMmTJlqokqpEKH1lrz89LYZcpU47WI+tkjdHlrJW9wd9l2zcCY/U9nB+nPLqPYVHayhNzasUGvcH4ooFwUDqhDQ375CSxfLW4h9jN8TJnat3Qia4L+51zZdtk/ZPvlMyT7Ve/K9qvXxB3XKJrjmk9C7r8ea7iaykLlPvG8cL48N+xXhEhAVYSAmhQCmi600PTyFsr1hpspU/tWMV0cSNove3tb3mA9lXeVnswboicdQ/Wtjj/riuPabyOuIccbrqayUIU3ckesRVrX8lO6lB/XRZiUn9RD+cqOsoB8reFmytS+FaberZL2yxdsB6BS3hW6DEhlxxA95fgTltesFNzXtjNcTWWhoC9yWzRf1dlC+RJM1iP5MT2cr243ATXVaIXo3JYp++VztgBME9DcyQTUVE5kAto8MgHNocJErXYSOY3NI0omoM0jE9DcyKIRdUoRvRIjegTrfmP/ESMT0ObRoQCoTrqlhOLHl5PYr5SUK8spenMpSSNLKPo7w+XQVoioZZzo/R/xWdJE25JEY3Uij1F8RMgEtHl0MAEtoIKjyylyaTlJU2ELg6SUV5CaCpG2TaSkXkryDMP10JZE5E0QPQE4t+wApAB0G6Lok9j/K8PlFy8T0OZRuU+4+ecGtJCiJ4QpdiPsgyDJ8Shg1GiLrlC1HqW0HiRNj1AyFSR1snHIoa8oIqaK9BaRdPP3NZDuBKQzKomOMlx+VhUSOYrJ1yZJ+R0k8nZVKb9nglr8VqWjB6l0zCUqHTdIoXa/i1GHs2TqeEaSOnYoo1/nG4dnreYENEzD3FHXAydIeaO7iPZxvWTn+Askx7hBomPCJYJj4qCoc8rvZPvU3pG8p7qLjmmdo64XT9BaT/JzamZU0WjxMWvpNa/qmdc24pjTUfDOPUN0L+gV8i4cKHgWDBI8n11SY58PCjm/uEjwL+8d8XzdI0iLWhhV7FeraXVekbvoONFX3DnqKekZ8hah7tJBFbAST/BiwS30rvCJncu8ZUeHvMI9kXxl588BaOa6SBoUInVeiGJbGEoVUCK1rS4lcR1sZhlFH0I0vXsjRa8JkdTFOPTwUJDIBSiHA84ER1JE1B8B7CyA29ZwaRYhnbag/9syRo7TFHJcmbQ67k9Y3FNiFu+HmiWwVrO0KNIsrUtVy1EhzXqMpFmPhbWTFGt7UbF2KFetp5Ro1o7fqrZOryfsXR9Sbd1/L1PXo43qG6VcA6rRCL9oH9VLcT5yu+p49J+i49Gvo67HiqOux8uirrGRqGucHHVNlKKuSbApYsT9ZDDqfrok6p5WFHE9u0JxPz9T9bw0OuT65/WC5/luwfxX9gqQTrNtQc/sYyT3e2eJrnevlz0fjZa9/50e8Xz8ueCdsyHsnVsc9s4vE3wLImHfAlnwfSYJvs9hi6Wwd0lU8H1VEfZ9XSx4ll1iVLlXLaJF9gpfYeewf+NfooHiyYK3aHHIt6m4wl9UGvKXRcL+MinsL5dC/qAY8oeCwfxQcUVA+CIciH4dzpd+EABmcwJaSOFWxRQZgzRWZihV2oxIqcbKSX4TgF5XSsIpG2nj4X9vZTaRDenuHTCNIynAQXpAb8NONVxyLpnoaHwZPFtNlpVxylMSFtePKYtHr7T49CpLPqwVrA22f6WnrW1h7WAnwDrATtIrrR1hnfSUrbMet3XdmbB1E+LW7h+K1h7DZGevXxun2adyBWgh3e6THCMGq46Rr2jOh9cprtFbY64xetw1Vk+4JmA5QY+5n4BNgk3WNfdTsGlYf06Pu6fDntfjnhd1wKnLnpd2iu6X0gnXa99G3bPGLaIx9pqz/KRyx79PVT3vvR7zfFQY9bxXKXk/2ql45+iad76u+T7NmOpbpCu+xYZ9CfsathS2XE/4v9GlwAo95P1qiFFlfVkirvV9BV/BP8RA8fKof1OVHCjRlUCFrgbCWIZ1OSDAIqhHzJgckHWlhZaxSAZK0bDmATREm48FmC/AdnDURFq7HWC+i0h5dZCSjc4MDhvxuFSF6IYYuqcM6WYY1ucB0k6GS07F9eKLIKSTVa8kh560uPQEAI0BUA2AapaWsKNgbXREUNhxsONh7XXV+mvYKbBT9ZjtNAZUT9u66VW2M/WE7cztMduZSzQ6+9LZNNhmnG6vygWgSt493SXH8JdVx4hYwjVKT7oe0VXXaF3GUnI9qouuv8Me10X3ONgE2BN6FJBG3VNhT8OmwZ7Ro57ndMnzPAMKUGfp27xv6RHPzBU6vbLHgP2g8/X+iuedZLV3nq54P9YBqC7Cot7/6oJvDmwu7BPYQsM+hy2GfQH7Upf9y/WIf1la8C/7vVFlrYL5a1qEvOvviXrXF0v+TboWKAOAxXoksEkXsAxnrARWBivXQ4C2xkIAUQCEEVi0WQEtoLKjS0l6LUxxtNGtgFOJlZH04Foq/eXfPwE41wCciu0/Qfq5RHS2UZwzcXRGxC7ZAkCR5gJMF8wDIGsATQDQJABNAdAUAE0hgqYQQZMANA5ANQNQFYCqti6wM2A99CQgrbadBVB7C6K9z/0SXeg1TrmHDhRQ1XHvoLhz+IqEc4SecD4IKB8AjA/CRsFGwx7Fvsd1xTUOEXMCbBJssq66n4Q9rSvuZ3UZtgvQqGc67AXYS3rS+5oueGZ8uTdAw67/9BM9/6do3g/1iPd92AcwXv9YjwBOEXBKiKIyomiNLYF9BfsatkxP+tegfEVJifez3fpjUdfqE6Legumif/1mLVCkR/0bAOF3MF6yFQHSEj0KMEUAKSGSioFoxqKwCIAUAGdzAlpMYhtEyplhiukyVeoVpFYA1r+MoTFWw+WXL6Sfl6MfuokhZcP6ylxDyoCi31u8D0B/SFhabUEUTSGCauiDyoig8bi1fWXM2mFHGilulfU0gNh5N0BVW09YL73K3ldP2PtUadbetxqn3EMHAqhsu/0C1XF3SbVzpK4679clmOgaWQuoAjgTSHFjgBOAfi+7xqdF13gNfVAl4vpHPOKamhRd06oB6fcNAzpzSUOASp535L0DOm+n6Jv/fcS3sFrwfpIMexdq3AcN+xYpgndxXPAtSWr+Vdtk36pPiml5wKiSYq2WB0TvupkKoGQL+wtg62sB5Qiq5iPFzQ9hvfyHiD9YhX5oHNFTrghUaGF/OB0NiNujADKa6Xs2D6BIZe8TKPFjDGktQA0D2KuMoiNLAGgAwFyxDYBuhSHarUQ0vdAoPmA1BGjK4gegATlOLR+LU+BWjVpfF6djBmvU9nKVjh2i0gk3Is0dGbecMiNpPXVFzNZpWyVSXK0eoIr9bEB6LlLgvmWa7ZzzjdPupqYCKuXd1EV03Lm8ElDKzmGA877dAI1l0ttHdqiux1ZKrr+/gCg6POIc+xfJPXFw2DHxCsk1+eqoa8q1Uee0myTns49HnM9qSgbOAwNU8c1D9Jy3TPTOuy/qWXBT2Dv/WtH36VUh9+eXBd2fXRnxfj6kwrvkT2Hfktsj/pXoAszOdAF00m0R37ePSIH1O2Q/gPSv3Q1QKRM1S7As3RDxl/8n5Ct5OOwruykcKP3foK/0ipAvNDjkD90Q8gv3IsV9IuSPruQbROEMqLkDtIQifUKklXNaGyK1EoDebBQdmQKQZ8FWMqBGJC0CWJcbxQekhgDdDEBjFv+3q6ntPgdNKNTGF6OTO2vWjiM1a+fSSgAaqweoau+jV9vP0zX7uXNidFZttNilpgBaSIMdkuNvL6UBpuK8F2Cy1QAqIcWNM5zOUQLS20fkvJGnR2nMfj7HP46JOp8p4ptEBwpoEv1NyffJ04Zbo1XhXD5A8K6Oa5zGZuD8CVAFfU7BvxH91aLnBX9x74L8gpbGYQ0qCFD5EUskh49ZFlHQVU7S63ynltPbMlKeX0pht1F85Aog9YJ9xZDyzSNE0nKF6IDTiv0BupaObrDvWFf8uEaiLv3j1q7LqwGnBlMMQBUAmkAUVey/3Spb+w01DqlVUwCV7bf0UR23y6kMmHfXART9UNfDgPahCsHx0FX7u0G1SzGaehwALc4VoEqWgBbSbJ/gW/1GHJFSQN+0LqAy0tpIYKOCFPfOKEUbPcqsOQYqlJE8EH3NJA88KCNpY5C0Zrl5eVgKfdIzAOaCaiOSptBGVKIbxxA1uWO+P0A3Uuusnl8p9u5949YewWqGsw6gqv0cpLrnY/38t9fWu2HUFEDVvNsmpQGm4rxrN0Djzgd1xfGAEHU8cIXh2ihFaMrxuQV0wTS4NHqwQ8S1ok/Ut1pRMxHz21pAo0h1xcCGbYJ/wzCkwFn9n3M91I/Pj+g5XaJKHg2kV5A82igytUsC0SlIcd+pxN+LBzRgPQZIb0IEa1SkqK9cA8rSrN1Gpm09d8Rtv6kFVAGglQA0bhsQVGlAT8M1o2wBFdw3tVMdt62qdt4DKO+sBVR2DtdjzgdQx4jHDddG62ADKnhXDdP86/SI/5vdANWQ2oZ8hfPX0JqsnynmGtBiEtqh77k6RTt4IELpJhLOMIpM1VWE6HiAOZMHMhjproJ0d0SYKOu+QHMAGqZux8WsPQsr6wGaAqAJe//qsO283aJbtoCGbTderDpu3RrLwPkToAnnSETUEd9F6L6OhmujdTAB5bRV9K1+Kx4oBJSrawEV/YUAtgDRc/11NZ7ZKdeABkk6H/1OrYp+1AWKvTGbZpszAzYkQNoacM0AXD8ag+yrAe3jPK7XcGmUmgNQlmrp+QwDqtp71wIas/cDoAN2Stb+Iwy3jLIFVLTfeGvSeTtgvH03QKucD+mxvBHTm/Is7mACKrq+PjHiXbFRy6S3PwGqcd/TX1BYcdSGJg33zDWg6HPeIVDihyildKS6Dxi7TTWkNCBFevscImgGUqS9WwDbTUZxo9RsgFp7DEkAUK0OoKr9PH2L/UI9aRvIjbdW2QDK03KKeTc9zYDKdQBVnMN0zXn/Tskx/G7DNSsdTEBD7hW95Ez/c109QIsA6PolhZ2bNodtjgG1lJP6bJK+18MUry6myB+M/ab2pSBRC0D6BCBL8DulVUQreZ9RvF81F6CyrccF3AetC6gCQLcD0CrbwBfhUtt4swE0RtcGFPvNc9IAsy6g8Uz/c3il6Bixz4HnDemgprjeZRcixU3KmX5nDaACYJX9G7AseFlv4uicXALKb6sIFH+9mvTM62JFJDbp73xEivueAG22DkDRL42gP3qSUbRfNVsEtff8rWbrtQegWwFoyjZwRt3HH9kAGqWhR2mOW1ZUAkzR+bd6gI6IKa77zjVcs9LBBFTyrPgf0beqUs48XqkBFKkt90F3Rn2FDxpuWSuXgM6lYqdAyTeqaCf6n4k0v1pmFJnan9D3vBpp7iaOoAC0CFG00YOVmwtQxX7mOTxQoT6g2wBo2nbhy3X7idkBegsAvXV1fUATzvsZUC3iuq+v4ZqVDiagEffSPzQEaMT/3W799WyU2wiq54mURgStAbTUjKCNk0w0FIBJ3Afl4YAA9El+I8Yo3q+aL4L26hfbC6Cc4qZtA18w3DLKNoIqjltXMaDSboAO5z5oLHoYRtBQA4BKmeF+BeMNt6yVS0DHkG4NkvZyJf2ghyhWZQK6H/G7o2miGwCXzI9aEDX5Je//ixEdZ7g0Ss3YB700vgeg/fQt9oF6wnbBU4ZbRtn2QeW8m+dxH1Sq1wfVnMNTUef9FxmuWelg90El3+pE/T6o6ucRROvf4zG6hmtWyvFNIiql8Ej0P3dGKPFDkMS/GbtN1RcipEMluhfRMvUDNgEYD1iYiX1Z345vthTX2v2hVL3HLHH7+XrMPuDHqLX/XYZbRtkAyn1X0XbzU/Xv4qrOYbDhP0Sdw5o0cPtgAiraV/QSfd8oamDPu7hRf+FKpU2hz3DNSrkGtJxCF4UplkxnnoPGZ+0a5G+qjlYTeRAlRwGqSoYTUXMHIJsWbeL8Rc0BaJBOdGnWHgurAGj9gQpJe/+0aBuw2wvK2QDKkvNuuSUBOOs+B5WN56Ba3sgn4dIoMOrqYAK60bmovehducdz0Jo3WtZrFd5vLjBcs1KuAS2m0ElBUr9L16S5a3jbKDLF2kjkTxBNBZSZGQARQXkGwPEKUZO+YVnNASjPS5Sw9Uwm6wFaae+vx239N4g0oLPhmlG2gIq2Gy9RHLdt1zJw1gDKAxVSmXG4968S3CN382+MDiagq2m1B33QN+P+3UcSRTjNrXkW+iLPS2S4N1q5BpQftQRJeo3nHQqR9mMFKXcaRaaKiQIMJ6DcyZETyy0cSbH/gGajzzWgGp3qT1i7v7+V+5+wXYDyYHkeiyvbzp+p05l5hntG2QIq0Z/bq47b1lbVG4vLL2yrzhE7ZPvIBl8Ob0gCTWt3sABlyd5v7+EUt/5YXMm/Efu+U4L+gqxvyuQaUFY5qUPKSd6mUJVeSuKKDVTRrJPaHRbiOXLRx5yOyPkj3xDCMgVYR6EvultDb4r2B2ghtWl0dA5Stxaq5fSJSVv3HQnbmXu8bqbaf1slU7893mPNFlB+cI8091kGVK4DKL/NkuQo6nxgXcg+qpfh3iiV0dNHA9CcvQ+aLaCCe3lvwbdKUfnl7DqA8utm/C5oJLDxCzGwMavPVO4Tbs01oDwRGACdy++DVpC6A5COaepNrF+EACYPjP83v2Jm3BBSkdLevogo65Rnb9oPoN8sQn/ScG1Q/LqbnNfxDM3WZWbMdsb2ZAMvbKvWc9/Z29xE2QLKEmw399ccd8aSGTB/AlTJvA86ShedDy2Luh46x3DfpxR6zhfJm3KD6HomrnqePyiAhmmpW/Cuejnh34CIufv7oAJSX54wTPBv+jbs/+6voq+4jXHYPlXhC98o5hhQVgmJF1eQFuMZFQCpAmAvNYqOLAHEkwFn5tUyI62NACh+s6HR//j9qSFAK2sADWrU4lqFWvaV6OgOFXRCW4VOPCYIi1G741Q6sYdmO+lyzdJpnGbttDZh66onbd0AZvcMoLsiaGXmDu45ZQnqc55x2t3UFEDDdJVbcdz+70rnMERRTnV3vbB9f2bSsLhrtB51jlofc4+5W8gbc0apd8yvIv4JrYtbjQmk8ie2zGw7JnQU3VP/KLqfmiW6pikSTxyWgzmJmgIoq9S9olfU921RDGltXUB5RgVEUETSMsC7KSUEit8PBzbdHvGWXrDJV9BpY+uNxwY9wWMKYRs8FW2D+cH2FfkVPUP+yDORfAVQKjkFlPui6H9OlSi9s2ZyanklImlW0f2wF9LaLgDyM57Rz0hrSwFTTqY5qauGAOVJw2KW/B/jlhZpzdI6mLIc9WXK0nZuynLsf1OW42HtP41Z2heq1lOSMWunnWlbZz22l0nD0va+gLPvZtXat8HHH00BlBXNu7mn7LxjA89JVBdQnpNIcj0ESB/VFdcj2yTnYwWqc+yHsnPs2xHX2JdF94T/qK7JH6iuKcsAaFIFmJr7n/rBBpQV8a0ZLPkKYjF/0W6A7po0jOclkgNBXQyUbo34y6IRf3Cl5BfmR32R/2bML80T8+Ul4fxoUTgQrWyuScPWkdAO0fNdmdK6mHm7Rf06SHIfo/iXLZ45AZFzMc+aYKS1xYimFxvFOdV+ANXTlpaZias3W36lb7a2hbWDnQDroFdZT9JT1o56fC/TbsYAKE+7GbOfvVmy9X68/iwKddVUQFmC9c4/qc57Y2mktvzCdv1Z/VRjVr8kT1oNU9w8efUkPemeqifcT2cmrpZhqvs5AMpwHlxA+W5t1LNulOhbn4770ffM9El/ApSN58UVA+UANaxrAVGPBSRdDcgwBabpKiBU8jWkts03qx+rhKQu5SR9JVNVZupNRNJvsW9IIem/3PdEAWYfALOUh+0Z05oUwJoFTta+AN3bxNUx63GwPSeuVgAo+qB6HCluGnCmbWcC3F4lqr3XPWHqvc8XyRsCNNkIQHnGdynv7r9ojvtK084HamZUQIobrTcvruT6O2wsYBwPECfWTlytuJ/S44ieEde0AtH17GdyBs6fAE1kCahwgICyJPrEK/jW3Br1rV8jId1VM7P58YTVSH0zkCK6AtK6E1eHA6Fa44mraywCYzijMInB1KX8ZGZZ4hevN053QEJqe2Y5KQv5HVFOdxFV5TKSJxVTpIfehN+3OaSFtHZADNkDP+NkOBNEyxE5mzT4u7HaF6BxAFplTFwdA6CxOoDGAKgGQGMANGXthGjZBVbTB41Zu0Xjlh4zFPsZjRoXC4Bbpe2Xf6rn/a+eBpyVeUP0Ssc1+veOG3TVce26iGvI8YZrg4ra7rpIzrtvjuIYsSXlejgzs7xWM+0mbAzs8QygknscoHwC0XOqnkLkBKA7oq6nPy9zPfnbhHv63du9/0LUnAGbBXtV3+57G+DNWhGmqXt8yVQ43xigeN5LbfZ+ose9c2HzAPQnOOZLPeZdMB0uB9RASzyreoZ8Bc8JvsIy9EF/UAGilh/MzIsrAkwhUAorhwXrABoGgDyrfEQX0fdU8hPwT+lKi6QuA04Z6wBUKffJlxmnOWCVU+TUMpL+BTi3xmkbz7aAaKqsKyPlsQqKnhOi0H5nIDzkhch5Cb+RwmAag94/BZzdjOJmU0OAxjI3iQKbK6llUZxab65GiluNFLcKKW4VUtwqpLjVSHHjADRh7SRXWzsXxq1dFiQsXSfJdPrAQurc6Mczq+nM/Crblc9/bx9cmLL/cW3aPmRt2jF07WbHdYUJx3VvBj2DjzFc96kKuretaL//b4ii7yddo79TXA8nE67HACunuONhE5HaTkIUnfgDAC2PuZ9cJLqmjq5wPtOBj4+7Xhiy1fNKQdwzY13cO2tt3Pvq2mrP69+p3tdeLaZpezxvDtvf+k3c88HitGfu+rh3Dvznro155q+r9i0qTPk+49fEDjiCLKWl7qB7de+Ib8OjEX/R+0qgdJ0aCJZF/aXbVERJDdFRhSmIkApSWAVQcoqLfqgeCchJOT9epAZSBZGAujySL78mBGKTwgF16AZ/pLVxipyoABAicg7jEUaC8VMQIVJ55oUQ+qZvV5AysoTE6zaScH6QIt2LKJbVmPGDJp3IDhivriIq48i5BYYoOlclynpenaaoIUCragAt1Ch/gEatb6ukNlMqLW1hx02utBwP6zC52nLyFIVOelykU69K0am9ItTl+KbMMMgD/7fSoF8n867omci7olsi7+qMRfOu7qk6ruuo0y1ZPe8V6a42mn1EL8k56gbV/ejkmHvslJh7PJbjJyfcT0yRXZNGRZz/GCg5n2qPP3ctRJX04lHVnle6K56Z3XaZ6pnVUwm8dvLe0jVORePeD7tEPB/0UDwfw39+xlTPRz1j7k9z3gCLqbiN4FnfTfCWDgh5N90XDZRPVQPRyXJAmCwFpFpTWqhTAOiEcL70V6Vl/JxofrJn0BftpLXWmvSzio2XbgGkZwDGcYim64Kk7IzRZl2D8SyAiKqbwxSrECldiIj7mHHQoa0wUas00UJ+2ZojJ6Lo+yLRiUZxs6shQI3noKsRCTMdflyfrQFrxn/4gYsH19fY7Izt7VfKDlfxAIG922xeNmkWhlyIr4F//5N/6h5p7vuwoECJSp7omgc48EvfKPsPPA/ptpMRDzhAejuokmgN4HwP0bRRP9mXK+0H0Ca/zWLKFGsDbWhdQlL/IGnXlJM4upQiz5aSPBOA3gCQD31Adwmg9AKgJxibP5tMQE39XGIggxR08TSjSNcPaAz5ESMTUFOmDmGZgJoydQjrlw5oGVE+PqP5JWPq8NQvHVB8vltjRDkZNWPK1M+uXYBuBaBxABoHoCkAuhOAahb/hsMd0DTR81VES/lxlrHLlKnDR4gup6WIBB2AbgWgmwFo3OLZvs3iD8coMEdq5O+DHqiWErn5uaqxecDi1JZn2OfoCUC34UuoUQ/GVxPlSUTtZaJf49g9fmy4KeLPdaAzX+xLXD9PXo7lQXv2aaqZxDMBJoimJMnyrxjlTYU9ESfPTUny9JTI2eFAfnu0seJhjoh0EwHV0cauAxbqvBifbRhPpgY451USpfhFBKN4r0J5X/i9gr9HEeAsxXFzkWH8wShukhhM1DEc19JsPxOPL6Br8Pcbh+vN+icKTR3iYgD525cjh7HrZxfDuZWoMISolauZIgDZdai3BKCdBbsQ69uw752GojQad3tkEt9iGYLfCzjmBWy/A2ivNlxqVUhINfZSD0ewufUiJafWgHMF6nvZ2LWbeJgjjtvr61nYb9/X/wXllleIXJuJZgDStQrRbmOWUb7XY/lvbHwGM+Ka2r8Az2NoYBoizasAYgYAGYPG1p3nYgIkd8J+Z7hmGhei3JVo8DeifI/0G3X0MqA8rboGtvkMCbanAr4Elvcgqu4xIATnvxD1bgdME3mbGy+uwccN2di24Xz9cfwkXCOyDZqO67oF1oq/4LB9Pep/BmX/xr6pWA7iY3myN1zTEpSvxvJ29uPUWyRqg/pvwPZLRn2Tca39+Fw4/kzYg9j3MspewfJh+NfOhIjrPAq+f0LZc1yOz7kJ/ku5zsz0M0QXYP9TON+/sBzOKTsfh3rawe6B78uwGfi7HxkvWJs6MKGxPILGshUNahka3hw0oiAa+3eAZSj2z8e+VfDJvLLE45TR6IpQ/iZgrX1HE/uOh/8E+PK0MF8yBPAZzzNSoI7rcDz3KSvhtwMN/GuU3Vg3fYfPKbAS7N+AOi4FXLVv43CkQt03oTyK4wtQz1z4lKPONPafh/UTcM4klhtw/MdYrkeZCt9bcB0u+H+K9QTsC9gM+P4Gfq/Bj30WwT6HbUH9szliYvkyrpFnbfwSPp/weeG/DNaevwywj38XNobyJXwszhWDfcGfGWWXwb8Cy69Q9gH8RKy/y31yrF+Jeitx/vVY/wjHX2h8RFOmGhai19gtABKN7zdoNBxxBnDDQkN7C43rLpQnsJ35VW6sD+VtRJ8/Zg6GdhK1RsN7A/t3vaq3A/XcVYH+NfavYcP2QDTYKAOLdJp/KiMNu3dXhGThXH/AvmU4rwpbDP+buZy/FFBHMY5dCCA7ckSG76Ow7YhWA3G+k3HNaWz/maMulv1wvWEGxIigi3H+N1F2DHxbYfsW+OyAzwiOevyL6dj/Kc49h/usONfbiIrrEPm6GmD9FX8fhnAIjr0Ufklc33j4tdlIdCyu6zXsW1qC68Bx78G+QpbQCT6tcd7RKNewfRF8BuOzC6jjcnQnWuKLZ4+X0E2Z2kNoOOPQANehcdbOnICGNR8NqwyN/HQ0tK/QoN9BI/Ogsb7J22hktY9/0HAvgm81TMdxOi/hV8qNFMddhvJK7P8Sx6SxP+PDkKJM4H6vUU1GnA7C/1bYUlxXFfzvA0T9GCgcN8xw45tr9+DatqDOCwDeySiLwyczux2Obcnng81nSODzBfz5N1Ezgt8klO3k6+Nt7rfiPB/hfB8zoDjmLUC2nH9Fnctx/Kn44uGofCeOy/wWLOqofeMJf7vMoySB6GwcuwLlxbi2WfCZhfWFqIsj/VAAfRV8y3G9TfqBKVNHqAxA1yIy7XqH0oKGtQQNshiNLB92FxpXBRrqSDS2jWh89xt+GaH8POxPMnRowPw7NTq2GcApqKcF6p/Pczvh+NpynogN6yVo1HudToUfs+Cc/IbRKqxfgWvZjLruM4r5C+Su+oCi/Eouw3FHYT/3O/nu8VFY8nrtTSL4TcD2ToCf6VdyWov6P6gD6JtYX8kRl8vh2xnXW4BruQP1jkWdSSxP5TIWPut0+C8D0D2wvgT18wRzj+G4MbjGv2N5L9Jf/uK5Bn/nIMrONw41ZWr/QuOaiIbDfcfzAVl7bljYx88ueV6fTFTDeiHKtqIBrkND2+03QdYSedF4J/MxPCMFw8mwonHGEDmGoEG/hXQu8wtwOE8GTiwFHHMt9y+5Dk5jAcYNiL6/wfFtcQ3cXwvjXF/gi6Mr1jkyrUOdfXHcCVh/Ff4M+UCc4xTs3wzfwVwXzvMr7FuJfZ/jM/l5Cd8C1Nsd/seh7EYc/z3sGVgH7OsNnzKcYz4Dinre5c8Jv8ys7Sjris9Viv138I0q1M8Tl7+J8o6wnjhuJWwVp7tYPsvlqPdm+JwI64b1KzilxTVcj7+LhGsawPWaMtUooUHdgwYowBYAno+xzTdr/s0NzHDhqPM4+pp8w+eFvT2bRcMOoCHzXdXFaNwR1FHJMKIx8k2SGAOLfQk04DLU9QZ8d/sBJwYNPmtwDV/D5mG9AL7fwDfT10X5H3FMMVLNpaj/Xez/EtdSBrDPg297lJXgXJlnpkhdOWrOwfZ7fK1Y3oFjKhDFF+P6pqFf2RH+0/BlUIpzzcG+D3GNm1D3DE53cZ0vYX3erufCOMdp2F6C67mRH8vg3BO5PuzjG2jvYv9ybH+0BtkCAO6C6+LrX4+/5Qewhdh+D4AyvFfgmFVmimsqK3Fqi8ZzHhrmQBg/7jiX70gaxZnnjmiIY2ApjiDG7r0KMByLBtkHAAyFPYntV9AgZ2J9LI6/FI27O/btMXwRkLTEec9BQ/8frA9BHb/nCGUUsyyo43SU882W/ljvCr+z+Di+2YI0uA+DyY6csuKc3dift420tTeguQjgnmXsCxjn+x2Xoc7TAU8nBhr7O2F/9103sLjvDZB7AuhjeRt/Lzfq7svXwteA405BeTdcR+a5J0de1NGP/5Z8TlxLd5RxvW04Q8DfIZ/9TJk6YKHhX4hG/T7AErB8kR9bGEX71a4H8my7UllTpkzlUIh2HK34ud+9u/pkpkyZOkSEyJcZCG5smjJlypQpU6ZMmTJlypQpU6ZMmTJlypQpU6ZMmTJlypQpU6ZMmTJlypQpU6ZMmTJlypQpU6ZM/VJF9P/4VLlQmJjGNAAAAABJRU5ErkJggg==&quot; style=&quot;font-size: 10px;&quot;&gt;" style="text;html=1;strokeColor=none;fillColor=none;align=center;verticalAlign=middle;whiteSpace=wrap;rounded=0;fontSize=10;" parent="1" vertex="1">
          <mxGeometry x="110" y="239" width="10" height="10" as="geometry" />
        </mxCell>
        <mxCell id="Bnk67_aWibF8yN_9XxKm-9" value="&lt;span style=&quot;font-size: 16px; text-align: left;&quot;&gt;PLARD FRONT MDP- Consulta cuentas captación relacionadas a una tarjeta&lt;/span&gt;" style="shape=umlFrame;whiteSpace=wrap;html=1;pointerEvents=0;recursiveResize=0;container=1;collapsible=0;width=440;height=48;fontStyle=1;fontSize=13;strokeColor=#000000;strokeWidth=2;" parent="1" vertex="1">
          <mxGeometry y="282" width="2600" height="2948" as="geometry" />
        </mxCell>
        <mxCell id="WlUoZoSoJe3zFZYJtJ5i-235" value="&lt;b&gt;Ejecutivo Santander&lt;/b&gt;&lt;div&gt;Selecciona opción para buscar por tarjeta de débito&lt;/div&gt;" style="text;html=1;align=left;verticalAlign=top;whiteSpace=wrap;rounded=0;fontSize=9;" vertex="1" parent="Bnk67_aWibF8yN_9XxKm-9">
          <mxGeometry x="200" y="359" width="130" height="36" as="geometry" />
        </mxCell>
        <mxCell id="WlUoZoSoJe3zFZYJtJ5i-236" value="Canal&amp;nbsp;&lt;div&gt;&lt;b&gt;Front MDP&lt;/b&gt;&lt;div&gt;Solicita&amp;nbsp;&lt;span style=&quot;background-color: transparent; color: light-dark(rgb(0, 0, 0), rgb(255, 255, 255));&quot;&gt;consultar las cuentas cargo de la tarjeta débito&lt;/span&gt;&lt;/div&gt;&lt;div&gt;[MPL1]&lt;/div&gt;&lt;/div&gt;" style="text;html=1;align=left;verticalAlign=top;whiteSpace=wrap;rounded=0;fontSize=9;" vertex="1" parent="Bnk67_aWibF8yN_9XxKm-9">
          <mxGeometry x="441" y="374" width="150" height="56" as="geometry" />
        </mxCell>
        <mxCell id="UOhI1Jb9BPqGJdpc2Sex-68" value="Escenarios" style="rounded=0;whiteSpace=wrap;html=1;fontSize=15;fontStyle=1;align=center;fillColor=#bac8d3;strokeColor=#23445d;" parent="1" vertex="1">
          <mxGeometry x="7" y="-212" width="513" height="42" as="geometry" />
        </mxCell>
        <mxCell id="bNmyXN-axlHxdMonLR5W-26" value="Formato de Entrada/Salida: MPM0014" style="rounded=0;whiteSpace=wrap;html=1;fillColor=#EEEEEE;strokeColor=#23445d;fontSize=14;fontStyle=1;align=left;" parent="1" vertex="1">
          <mxGeometry x="590" y="-719.11" width="840" height="39.11" as="geometry" />
        </mxCell>
        <mxCell id="bNmyXN-axlHxdMonLR5W-27" style="edgeStyle=orthogonalEdgeStyle;rounded=0;orthogonalLoop=1;jettySize=auto;html=1;exitX=0.5;exitY=1;exitDx=0;exitDy=0;" parent="1" edge="1">
          <mxGeometry relative="1" as="geometry">
            <mxPoint x="1008.9999999999991" y="-304" as="sourcePoint" />
            <mxPoint x="1008.9999999999991" y="-304" as="targetPoint" />
          </mxGeometry>
        </mxCell>
        <mxCell id="bNmyXN-axlHxdMonLR5W-29" value="Transacción Altair 390: MPL1" style="rounded=0;whiteSpace=wrap;html=1;fillColor=#bac8d3;strokeColor=#23445d;fontSize=14;fontStyle=1;verticalAlign=top;container=0;" parent="1" vertex="1">
          <mxGeometry x="590" y="-761.11" width="840" height="42" as="geometry" />
        </mxCell>
        <mxCell id="WlUoZoSoJe3zFZYJtJ5i-211" value="&lt;div&gt;&lt;b&gt;&amp;lt;&amp;lt;Repositorio&amp;gt;&amp;gt;&lt;/b&gt;&lt;b&gt;&lt;br&gt;&lt;/b&gt;&lt;/div&gt;&lt;b&gt;Kafka&lt;/b&gt;" style="shape=umlLifeline;perimeter=lifelinePerimeter;whiteSpace=wrap;html=1;container=1;dropTarget=0;collapsible=0;recursiveResize=0;outlineConnect=0;portConstraint=eastwest;newEdgeStyle={&quot;edgeStyle&quot;:&quot;elbowEdgeStyle&quot;,&quot;elbow&quot;:&quot;vertical&quot;,&quot;curved&quot;:0,&quot;rounded&quot;:0};align=center;" vertex="1" parent="1">
          <mxGeometry x="1547" y="400" width="160" height="2940" as="geometry" />
        </mxCell>
        <mxCell id="WlUoZoSoJe3zFZYJtJ5i-212" value="&lt;div&gt;&lt;b&gt;&amp;lt;&amp;lt;Componente&amp;gt;&amp;gt;&lt;/b&gt;&lt;br&gt;&lt;/div&gt;&lt;b&gt;Launcher PLARD&lt;/b&gt;" style="shape=umlLifeline;perimeter=lifelinePerimeter;whiteSpace=wrap;html=1;container=1;dropTarget=0;collapsible=0;recursiveResize=0;outlineConnect=0;portConstraint=eastwest;newEdgeStyle={&quot;edgeStyle&quot;:&quot;elbowEdgeStyle&quot;,&quot;elbow&quot;:&quot;vertical&quot;,&quot;curved&quot;:0,&quot;rounded&quot;:0};align=center;" vertex="1" parent="1">
          <mxGeometry x="827" y="400" width="160" height="2940" as="geometry" />
        </mxCell>
        <mxCell id="WlUoZoSoJe3zFZYJtJ5i-213" value="&lt;div&gt;&amp;lt;&amp;lt;Altair 390&amp;gt;&amp;gt;&lt;br&gt;&lt;/div&gt;&lt;b&gt;PAMPA&lt;/b&gt;" style="shape=umlLifeline;perimeter=lifelinePerimeter;whiteSpace=wrap;html=1;container=1;dropTarget=0;collapsible=0;recursiveResize=0;outlineConnect=0;portConstraint=eastwest;newEdgeStyle={&quot;edgeStyle&quot;:&quot;elbowEdgeStyle&quot;,&quot;elbow&quot;:&quot;vertical&quot;,&quot;curved&quot;:0,&quot;rounded&quot;:0};align=center;fontStyle=1" vertex="1" parent="1">
          <mxGeometry x="2269" y="400" width="160" height="2940" as="geometry" />
        </mxCell>
        <mxCell id="WlUoZoSoJe3zFZYJtJ5i-214" value="&lt;div&gt;&lt;b&gt;&amp;lt;&amp;lt;Plataforma SaaS&amp;gt;&amp;gt;&lt;/b&gt;&lt;br&gt;&lt;/div&gt;&lt;b&gt;PLARD&lt;/b&gt;" style="shape=umlLifeline;perimeter=lifelinePerimeter;whiteSpace=wrap;html=1;container=1;dropTarget=0;collapsible=0;recursiveResize=0;outlineConnect=0;portConstraint=eastwest;newEdgeStyle={&quot;edgeStyle&quot;:&quot;elbowEdgeStyle&quot;,&quot;elbow&quot;:&quot;vertical&quot;,&quot;curved&quot;:0,&quot;rounded&quot;:0};align=center;" vertex="1" parent="1">
          <mxGeometry x="2028" y="399" width="160" height="2941" as="geometry" />
        </mxCell>
        <mxCell id="WlUoZoSoJe3zFZYJtJ5i-215" value="&lt;div&gt;&lt;b&gt;&amp;lt;&amp;lt;Queque&amp;gt;&amp;gt;&amp;nbsp;&lt;/b&gt;&lt;br&gt;&lt;/div&gt;&lt;b&gt;MQ Canal&lt;/b&gt;" style="shape=umlLifeline;perimeter=lifelinePerimeter;whiteSpace=wrap;html=1;container=1;dropTarget=0;collapsible=0;recursiveResize=0;outlineConnect=0;portConstraint=eastwest;newEdgeStyle={&quot;edgeStyle&quot;:&quot;elbowEdgeStyle&quot;,&quot;elbow&quot;:&quot;vertical&quot;,&quot;curved&quot;:0,&quot;rounded&quot;:0};align=center;" vertex="1" parent="1">
          <mxGeometry x="587" y="399" width="161" height="2941" as="geometry" />
        </mxCell>
        <mxCell id="WlUoZoSoJe3zFZYJtJ5i-216" value="&lt;div&gt;&lt;b&gt;&amp;lt;&amp;lt;Canal&amp;gt;&amp;gt;&lt;/b&gt;&lt;/div&gt;&lt;div&gt;&lt;b&gt;Front MDP&lt;/b&gt;&lt;/div&gt;" style="shape=umlLifeline;perimeter=lifelinePerimeter;whiteSpace=wrap;html=1;container=1;dropTarget=0;collapsible=0;recursiveResize=0;outlineConnect=0;portConstraint=eastwest;newEdgeStyle={&quot;edgeStyle&quot;:&quot;elbowEdgeStyle&quot;,&quot;elbow&quot;:&quot;vertical&quot;,&quot;curved&quot;:0,&quot;rounded&quot;:0};align=center;" vertex="1" parent="1">
          <mxGeometry x="350" y="399" width="160" height="2943" as="geometry" />
        </mxCell>
        <mxCell id="WlUoZoSoJe3zFZYJtJ5i-217" value="&lt;b&gt;Ejectutivo Santander&lt;/b&gt;" style="shape=umlLifeline;perimeter=lifelinePerimeter;whiteSpace=wrap;html=1;container=1;dropTarget=0;collapsible=0;recursiveResize=0;outlineConnect=0;portConstraint=eastwest;newEdgeStyle={&quot;edgeStyle&quot;:&quot;elbowEdgeStyle&quot;,&quot;elbow&quot;:&quot;vertical&quot;,&quot;curved&quot;:0,&quot;rounded&quot;:0};align=center;" vertex="1" parent="1">
          <mxGeometry x="109" y="398" width="161" height="2944" as="geometry" />
        </mxCell>
        <mxCell id="WlUoZoSoJe3zFZYJtJ5i-218" value="&lt;div&gt;&lt;b&gt;&amp;lt;&amp;lt;Repositorio&amp;gt;&amp;gt;&lt;/b&gt;&lt;br&gt;&lt;/div&gt;&lt;b&gt;Redis Streams&lt;/b&gt;" style="shape=umlLifeline;perimeter=lifelinePerimeter;whiteSpace=wrap;html=1;container=1;dropTarget=0;collapsible=0;recursiveResize=0;outlineConnect=0;portConstraint=eastwest;newEdgeStyle={&quot;edgeStyle&quot;:&quot;elbowEdgeStyle&quot;,&quot;elbow&quot;:&quot;vertical&quot;,&quot;curved&quot;:0,&quot;rounded&quot;:0};align=center;size=41;" vertex="1" parent="1">
          <mxGeometry x="1069" y="399" width="160" height="2943" as="geometry" />
        </mxCell>
        <mxCell id="WlUoZoSoJe3zFZYJtJ5i-219" value="&lt;div&gt;&lt;b&gt;&amp;lt;Queque&amp;gt;&amp;gt;&amp;nbsp;&lt;/b&gt;&lt;br&gt;&lt;/div&gt;&lt;b&gt;MQ 390&lt;/b&gt;" style="shape=umlLifeline;perimeter=lifelinePerimeter;whiteSpace=wrap;html=1;container=1;dropTarget=0;collapsible=0;recursiveResize=0;outlineConnect=0;portConstraint=eastwest;newEdgeStyle={&quot;edgeStyle&quot;:&quot;elbowEdgeStyle&quot;,&quot;elbow&quot;:&quot;vertical&quot;,&quot;curved&quot;:0,&quot;rounded&quot;:0};align=center;" vertex="1" parent="1">
          <mxGeometry x="1788" y="399" width="160" height="2941" as="geometry" />
        </mxCell>
        <mxCell id="WlUoZoSoJe3zFZYJtJ5i-220" value="" style="html=1;points=[[0,0,0,0,5],[0,1,0,0,-5],[1,0,0,0,5],[1,1,0,0,-5]];perimeter=orthogonalPerimeter;outlineConnect=0;targetShapes=umlLifeline;portConstraint=eastwest;newEdgeStyle={&quot;curved&quot;:0,&quot;rounded&quot;:0};" vertex="1" parent="1">
          <mxGeometry x="185" y="520" width="10" height="2390" as="geometry" />
        </mxCell>
        <mxCell id="WlUoZoSoJe3zFZYJtJ5i-221" value="" style="html=1;points=[[0,0,0,0,5],[0,1,0,0,-5],[1,0,0,0,5],[1,1,0,0,-5]];perimeter=orthogonalPerimeter;outlineConnect=0;targetShapes=umlLifeline;portConstraint=eastwest;newEdgeStyle={&quot;curved&quot;:0,&quot;rounded&quot;:0};" vertex="1" parent="1">
          <mxGeometry x="425" y="660" width="10" height="2150" as="geometry" />
        </mxCell>
        <mxCell id="WlUoZoSoJe3zFZYJtJ5i-222" value="" style="html=1;points=[[0,0,0,0,5],[0,1,0,0,-5],[1,0,0,0,5],[1,1,0,0,-5]];perimeter=orthogonalPerimeter;outlineConnect=0;targetShapes=umlLifeline;portConstraint=eastwest;newEdgeStyle={&quot;curved&quot;:0,&quot;rounded&quot;:0};" vertex="1" parent="1">
          <mxGeometry x="902" y="740" width="10" height="1980" as="geometry" />
        </mxCell>
        <mxCell id="WlUoZoSoJe3zFZYJtJ5i-223" value="" style="html=1;points=[[0,0,0,0,5],[0,1,0,0,-5],[1,0,0,0,5],[1,1,0,0,-5]];perimeter=orthogonalPerimeter;outlineConnect=0;targetShapes=umlLifeline;portConstraint=eastwest;newEdgeStyle={&quot;curved&quot;:0,&quot;rounded&quot;:0};" vertex="1" parent="1">
          <mxGeometry x="1144" y="860" width="10" height="800" as="geometry" />
        </mxCell>
        <mxCell id="WlUoZoSoJe3zFZYJtJ5i-224" value="" style="html=1;points=[[0,0,0,0,5],[0,1,0,0,-5],[1,0,0,0,5],[1,1,0,0,-5]];perimeter=orthogonalPerimeter;outlineConnect=0;targetShapes=umlLifeline;portConstraint=eastwest;newEdgeStyle={&quot;curved&quot;:0,&quot;rounded&quot;:0};" vertex="1" parent="1">
          <mxGeometry x="662" y="710" width="10" height="2060" as="geometry" />
        </mxCell>
        <mxCell id="WlUoZoSoJe3zFZYJtJ5i-225" value="&lt;div&gt;&lt;b&gt;&amp;lt;CaaS Integration Layer&amp;gt;&amp;gt;&lt;/b&gt;&lt;br&gt;&lt;/div&gt;&lt;div&gt;&lt;b&gt;account-device-inquiry&lt;/b&gt;&lt;br&gt;&lt;/div&gt;" style="shape=umlLifeline;perimeter=lifelinePerimeter;whiteSpace=wrap;html=1;container=1;dropTarget=0;collapsible=0;recursiveResize=0;outlineConnect=0;portConstraint=eastwest;newEdgeStyle={&quot;edgeStyle&quot;:&quot;elbowEdgeStyle&quot;,&quot;elbow&quot;:&quot;vertical&quot;,&quot;curved&quot;:0,&quot;rounded&quot;:0};align=center;" vertex="1" parent="1">
          <mxGeometry x="1307" y="400" width="160" height="2940" as="geometry" />
        </mxCell>
        <mxCell id="WlUoZoSoJe3zFZYJtJ5i-226" value="" style="html=1;points=[[0,0,0,0,5],[0,1,0,0,-5],[1,0,0,0,5],[1,1,0,0,-5]];perimeter=orthogonalPerimeter;outlineConnect=0;targetShapes=umlLifeline;portConstraint=eastwest;newEdgeStyle={&quot;curved&quot;:0,&quot;rounded&quot;:0};" vertex="1" parent="1">
          <mxGeometry x="1382" y="920" width="10" height="940" as="geometry" />
        </mxCell>
        <mxCell id="WlUoZoSoJe3zFZYJtJ5i-227" value="alt" style="shape=umlFrame;whiteSpace=wrap;html=1;pointerEvents=0;recursiveResize=0;container=1;collapsible=0;width=80;height=15;" vertex="1" parent="1">
          <mxGeometry x="50" y="800" width="2490" height="2200" as="geometry" />
        </mxCell>
        <mxCell id="WlUoZoSoJe3zFZYJtJ5i-228" value="&lt;font style=&quot;font-size: 12px;&quot;&gt;[BIN == BIN Plard]&lt;/font&gt;" style="text;html=1;rotation=0;" vertex="1" parent="WlUoZoSoJe3zFZYJtJ5i-227">
          <mxGeometry width="140" height="20" relative="1" as="geometry">
            <mxPoint x="5" y="50" as="offset" />
          </mxGeometry>
        </mxCell>
        <mxCell id="WlUoZoSoJe3zFZYJtJ5i-305" value="Realiza la consulta de las cuentas cargo de la tarjeta débito&lt;div style=&quot;&quot;&gt;[MPL1]&lt;/div&gt;&lt;p style=&quot;margin-left: 20.6pt; text-indent: -0.25in; font-size: 10px;&quot; class=&quot;TableText&quot;&gt;&lt;i&gt;&lt;span style=&quot;&quot; lang=&quot;ES&quot;&gt;&lt;font style=&quot;font-size: 10px;&quot;&gt;&lt;/font&gt;&lt;/span&gt;&lt;/i&gt;&lt;/p&gt;" style="text;html=1;align=left;verticalAlign=top;whiteSpace=wrap;rounded=0;fontSize=9;" vertex="1" parent="WlUoZoSoJe3zFZYJtJ5i-227">
          <mxGeometry x="2338.25" y="1329" width="133.75" height="51" as="geometry" />
        </mxCell>
        <mxCell id="WlUoZoSoJe3zFZYJtJ5i-307" value="Queque&lt;div&gt;&lt;b&gt;MQ 390&lt;/b&gt;&lt;br&gt;&lt;div&gt;Recibe respuesta de la consulta cuentas cargo de la tarjeta débito&lt;/div&gt;&lt;div&gt;[MPL1]&lt;/div&gt;&lt;/div&gt;" style="text;html=1;align=left;verticalAlign=top;whiteSpace=wrap;rounded=0;fontSize=9;" vertex="1" parent="WlUoZoSoJe3zFZYJtJ5i-227">
          <mxGeometry x="2100" y="1337" width="160" height="60" as="geometry" />
        </mxCell>
        <mxCell id="WlUoZoSoJe3zFZYJtJ5i-229" value="" style="html=1;points=[[0,0,0,0,5],[0,1,0,0,-5],[1,0,0,0,5],[1,1,0,0,-5]];perimeter=orthogonalPerimeter;outlineConnect=0;targetShapes=umlLifeline;portConstraint=eastwest;newEdgeStyle={&quot;curved&quot;:0,&quot;rounded&quot;:0};" vertex="1" parent="1">
          <mxGeometry x="1863" y="2050" width="10" height="620" as="geometry" />
        </mxCell>
        <mxCell id="WlUoZoSoJe3zFZYJtJ5i-230" value="alt" style="shape=umlFrame;whiteSpace=wrap;html=1;pointerEvents=0;recursiveResize=0;container=1;collapsible=0;width=80;height=15;" vertex="1" parent="1">
          <mxGeometry x="70" y="1142" width="1600" height="340" as="geometry" />
        </mxCell>
        <mxCell id="WlUoZoSoJe3zFZYJtJ5i-231" value="&lt;font style=&quot;font-size: 12px;&quot;&gt;[Response == 4XX]&lt;/font&gt;" style="text;html=1;rotation=0;" vertex="1" parent="WlUoZoSoJe3zFZYJtJ5i-230">
          <mxGeometry width="90" height="23" relative="1" as="geometry">
            <mxPoint x="3" y="30" as="offset" />
          </mxGeometry>
        </mxCell>
        <mxCell id="WlUoZoSoJe3zFZYJtJ5i-232" value="&lt;b&gt;Ejecutivo Santander&lt;/b&gt;&lt;div&gt;Accede a Front MDP&lt;/div&gt;" style="text;html=1;align=left;verticalAlign=top;whiteSpace=wrap;rounded=0;fontSize=9;" vertex="1" parent="1">
          <mxGeometry x="231" y="523" width="95" height="32" as="geometry" />
        </mxCell>
        <mxCell id="WlUoZoSoJe3zFZYJtJ5i-233" value="&lt;b&gt;Ejecutivo Santander&lt;/b&gt;&lt;div&gt;Ingresa a la pantalla &quot;Mantenimiento de Tarjeta&quot;&lt;/div&gt;" style="text;html=1;align=left;verticalAlign=top;whiteSpace=wrap;rounded=0;fontSize=9;" vertex="1" parent="1">
          <mxGeometry x="231" y="572" width="139" height="37" as="geometry" />
        </mxCell>
        <mxCell id="WlUoZoSoJe3zFZYJtJ5i-234" value="" style="html=1;align=left;spacingLeft=2;endArrow=block;rounded=0;edgeStyle=orthogonalEdgeStyle;curved=0;rounded=0;fillColor=#f8cecc;strokeColor=#000000;" edge="1" parent="1">
          <mxGeometry x="-0.2922" y="20" relative="1" as="geometry">
            <mxPoint x="195" y="527.0200000000004" as="sourcePoint" />
            <Array as="points">
              <mxPoint x="225" y="527.0800000000004" />
              <mxPoint x="225" y="557.0800000000004" />
            </Array>
            <mxPoint x="195" y="557.0800000000004" as="targetPoint" />
            <mxPoint as="offset" />
          </mxGeometry>
        </mxCell>
        <mxCell id="WlUoZoSoJe3zFZYJtJ5i-237" value="" style="html=1;align=left;spacingLeft=2;endArrow=block;rounded=0;edgeStyle=orthogonalEdgeStyle;curved=0;rounded=0;fillColor=#f8cecc;strokeColor=#000000;" edge="1" parent="1">
          <mxGeometry x="-0.2922" y="20" relative="1" as="geometry">
            <mxPoint x="195" y="579.0200000000004" as="sourcePoint" />
            <Array as="points">
              <mxPoint x="225" y="579.0800000000004" />
              <mxPoint x="225" y="609.0800000000004" />
            </Array>
            <mxPoint x="195" y="609.0800000000004" as="targetPoint" />
            <mxPoint as="offset" />
          </mxGeometry>
        </mxCell>
        <mxCell id="WlUoZoSoJe3zFZYJtJ5i-238" value="" style="html=1;verticalAlign=bottom;labelBackgroundColor=none;endArrow=block;endFill=1;endSize=6;align=left;rounded=0;" edge="1" parent="1">
          <mxGeometry x="-1" relative="1" as="geometry">
            <mxPoint x="196" y="683" as="sourcePoint" />
            <mxPoint x="425" y="683" as="targetPoint" />
            <mxPoint as="offset" />
          </mxGeometry>
        </mxCell>
        <mxCell id="WlUoZoSoJe3zFZYJtJ5i-239" value="" style="html=1;verticalAlign=bottom;labelBackgroundColor=none;endArrow=block;endFill=1;endSize=6;align=left;rounded=0;" edge="1" parent="1">
          <mxGeometry x="-1" relative="1" as="geometry">
            <mxPoint x="436" y="719" as="sourcePoint" />
            <mxPoint x="662" y="718.9999999999995" as="targetPoint" />
            <mxPoint as="offset" />
          </mxGeometry>
        </mxCell>
        <mxCell id="WlUoZoSoJe3zFZYJtJ5i-240" value="Queque&amp;nbsp;&lt;div&gt;&lt;b&gt;MQ Canal&lt;/b&gt;&lt;div&gt;&lt;div&gt;Solicita&amp;nbsp;&lt;span style=&quot;background-color: transparent; color: light-dark(rgb(0, 0, 0), rgb(255, 255, 255));&quot;&gt;consultar las cuentas cargo de la tarjeta débito&lt;/span&gt;&lt;/div&gt;&lt;div&gt;[MPL1]&lt;/div&gt;&lt;/div&gt;&lt;/div&gt;" style="text;html=1;align=left;verticalAlign=top;whiteSpace=wrap;rounded=0;fontSize=9;" vertex="1" parent="1">
          <mxGeometry x="680" y="695" width="150" height="68" as="geometry" />
        </mxCell>
        <mxCell id="WlUoZoSoJe3zFZYJtJ5i-241" value="" style="html=1;verticalAlign=bottom;labelBackgroundColor=none;endArrow=block;endFill=1;endSize=6;align=left;rounded=0;" edge="1" parent="1">
          <mxGeometry x="-1" relative="1" as="geometry">
            <mxPoint x="672" y="759" as="sourcePoint" />
            <mxPoint x="902" y="759" as="targetPoint" />
            <mxPoint as="offset" />
          </mxGeometry>
        </mxCell>
        <mxCell id="WlUoZoSoJe3zFZYJtJ5i-242" value="Componente&lt;div&gt;&lt;b&gt;Launcher PLARD&lt;/b&gt;&lt;br&gt;&lt;div&gt;Deposita solicitud de consulta cuentas cargo de la tarjeta débito&lt;span style=&quot;background-color: transparent; color: light-dark(rgb(0, 0, 0), rgb(255, 255, 255));&quot;&gt;&amp;nbsp;&lt;/span&gt;&lt;span style=&quot;background-color: transparent; color: light-dark(rgb(0, 0, 0), rgb(255, 255, 255));&quot;&gt;en Redis Streams&lt;/span&gt;&lt;/div&gt;&lt;div&gt;[MPL1]&lt;/div&gt;&lt;/div&gt;" style="text;html=1;align=left;verticalAlign=top;whiteSpace=wrap;rounded=0;fontSize=9;" vertex="1" parent="1">
          <mxGeometry x="919" y="823" width="191" height="73" as="geometry" />
        </mxCell>
        <mxCell id="WlUoZoSoJe3zFZYJtJ5i-243" value="" style="html=1;verticalAlign=bottom;labelBackgroundColor=none;endArrow=block;endFill=1;endSize=6;align=left;rounded=0;" edge="1" parent="1">
          <mxGeometry x="-1" relative="1" as="geometry">
            <mxPoint x="912" y="889" as="sourcePoint" />
            <mxPoint x="1142" y="889" as="targetPoint" />
            <mxPoint as="offset" />
          </mxGeometry>
        </mxCell>
        <mxCell id="WlUoZoSoJe3zFZYJtJ5i-244" value="Microdiseño&lt;div&gt;&lt;b&gt;account-device-inquiry&lt;/b&gt;&lt;span style=&quot;color: rgba(0, 0, 0, 0); font-family: monospace; font-size: 0px; text-wrap: nowrap;&quot;&gt;%3CmxGraphModel%3E%3Croot%3E%3CmxCell%20id%3D%220%22%2F%3E%3CmxCell%20id%3D%221%22%20parent%3D%220%22%2F%3E%3CmxCell%20id%3D%222%22%20value%3D%22%22%20style%3D%22html%3D1%3Bpoints%3D%5B%5B0%2C0%2C0%2C0%2C5%5D%2C%5B0%2C1%2C0%2C0%2C-5%5D%2C%5B1%2C0%2C0%2C0%2C5%5D%2C%5B1%2C1%2C0%2C0%2C-5%5D%5D%3Bperimeter%3DorthogonalPerimeter%3BoutlineConnect%3D0%3BtargetShapes%3DumlLifeline%3BportConstraint%3Deastwest%3BnewEdgeStyle%3D%7B%26quot%3Bcurved%26quot%3B%3A0%2C%26quot%3Brounded%26quot%3B%3A0%7D%3B%22%20vertex%3D%221%22%20parent%3D%221%22%3E%3CmxGeometry%20x%3D%221591%22%20y%3D%221324%22%20width%3D%2210%22%20height%3D%2258%22%20as%3D%22geometry%22%2F%3E%3C%2FmxCell%3E%3CmxCell%20id%3D%223%22%20value%3D%22Queque%26amp%3Bnbsp%3B%26lt%3Bdiv%26gt%3B%26lt%3Bb%26gt%3BMQ%20Canal%26lt%3B%2Fb%26gt%3B%26lt%3Bdiv%26gt%3BRecibe%20Msj%20de%20Error%26lt%3B%2Fdiv%26gt%3B%26lt%3B%2Fdiv%26gt%3B%22%20style%3D%22text%3Bhtml%3D1%3Balign%3Dleft%3BverticalAlign%3Dtop%3BwhiteSpace%3Dwrap%3Brounded%3D0%3BfontSize%3D9%3B%22%20vertex%3D%221%22%20parent%3D%221%22%3E%3CmxGeometry%20x%3D%22776%22%20y%3D%221179%22%20width%3D%2290%22%20height%3D%2243%22%20as%3D%22geometry%22%2F%3E%3C%2FmxCell%3E%3CmxCell%20id%3D%224%22%20value%3D%22Componente%26lt%3Bdiv%26gt%3B%26lt%3Bb%26gt%3BLauncher%20PLARD%26lt%3B%2Fb%26gt%3B%26lt%3Bbr%26gt%3B%26lt%3Bdiv%26gt%3BToma%20Msj%20de%20Error%20de%20Redis%20Streams%26lt%3B%2Fdiv%26gt%3B%26lt%3B%2Fdiv%26gt%3B%22%20style%3D%22text%3Bhtml%3D1%3Balign%3Dleft%3BverticalAlign%3Dtop%3BwhiteSpace%3Dwrap%3Brounded%3D0%3BfontSize%3D9%3B%22%20vertex%3D%221%22%20parent%3D%221%22%3E%3CmxGeometry%20x%3D%22940%22%20y%3D%221148%22%20width%3D%22151%22%20height%3D%2245%22%20as%3D%22geometry%22%2F%3E%3C%2FmxCell%3E%3CmxCell%20id%3D%225%22%20value%3D%22%22%20style%3D%22html%3D1%3Balign%3Dleft%3BspacingLeft%3D2%3BendArrow%3Dblock%3Brounded%3D0%3BedgeStyle%3DorthogonalEdgeStyle%3Bcurved%3D0%3Brounded%3D0%3BfillColor%3D%23f8cecc%3BstrokeColor%3D%23000000%3B%22%20edge%3D%221%22%20parent%3D%221%22%3E%3CmxGeometry%20x%3D%22-0.2922%22%20y%3D%2220%22%20relative%3D%221%22%20as%3D%22geometry%22%3E%3CmxPoint%20x%3D%221363%22%20y%3D%221202.0200000000004%22%20as%3D%22sourcePoint%22%2F%3E%3CArray%20as%3D%22points%22%3E%3CmxPoint%20x%3D%221393%22%20y%3D%221202.0800000000004%22%2F%3E%3CmxPoint%20x%3D%221393%22%20y%3D%221232.0800000000004%22%2F%3E%3C%2FArray%3E%3CmxPoint%20x%3D%221363%22%20y%3D%221232.0800000000004%22%20as%3D%22targetPoint%22%2F%3E%3CmxPoint%20as%3D%22offset%22%2F%3E%3C%2FmxGeometry%3E%3C%2FmxCell%3E%3CmxCell%20id%3D%226%22%20value%3D%22Microservicio%26lt%3Bdiv%26gt%3B%26lt%3Bb%26gt%3Bdevice-block%26lt%3B%2Fb%26gt%3B%26lt%3Bbr%26gt%3B%26lt%3Bdiv%26gt%3BGenera%20trama%20de%20bit%C3%A1cora%20de%20Consulta%20de%20bloqueos%20operativos%20de%20una%20tarjeta%20de%20d%C3%A9bito%26lt%3B%2Fdiv%26gt%3B%26lt%3B%2Fdiv%26gt%3B%22%20style%3D%22text%3Bhtml%3D1%3Balign%3Dleft%3BverticalAlign%3Dtop%3BwhiteSpace%3Dwrap%3Brounded%3D0%3BfontSize%3D9%3B%22%20vertex%3D%221%22%20parent%3D%221%22%3E%3CmxGeometry%20x%3D%221400%22%20y%3D%221180%22%20width%3D%22160%22%20height%3D%2259%22%20as%3D%22geometry%22%2F%3E%3C%2FmxCell%3E%3CmxCell%20id%3D%227%22%20value%3D%22%26lt%3Bb%26gt%3BEjecutivo%20Santander%26lt%3B%2Fb%26gt%3B%26lt%3Bdiv%26gt%3BVisualiza%20Msj%20de%20Error%26lt%3B%2Fdiv%26gt%3B%22%20style%3D%22text%3Bhtml%3D1%3Balign%3Dleft%3BverticalAlign%3Dtop%3BwhiteSpace%3Dwrap%3Brounded%3D0%3BfontSize%3D9%3B%22%20vertex%3D%221%22%20parent%3D%221%22%3E%3CmxGeometry%20x%3D%22201%22%20y%3D%221324%22%20width%3D%22109%22%20height%3D%2237%22%20as%3D%22geometry%22%2F%3E%3C%2FmxCell%3E%3CmxCell%20id%3D%228%22%20value%3D%22%22%20style%3D%22html%3D1%3Balign%3Dleft%3BspacingLeft%3D2%3BendArrow%3Dblock%3Brounded%3D0%3BedgeStyle%3DorthogonalEdgeStyle%3Bcurved%3D0%3Brounded%3D0%3BfillColor%3D%23f8cecc%3BstrokeColor%3D%23000000%3B%22%20edge%3D%221%22%20parent%3D%221%22%3E%3CmxGeometry%20x%3D%22-0.2922%22%20y%3D%2220%22%20relative%3D%221%22%20as%3D%22geometry%22%3E%3CmxPoint%20x%3D%22165%22%20y%3D%221326.0200000000004%22%20as%3D%22sourcePoint%22%2F%3E%3CArray%20as%3D%22points%22%3E%3CmxPoint%20x%3D%22195%22%20y%3D%221326.0800000000004%22%2F%3E%3CmxPoint%20x%3D%22195%22%20y%3D%221356.0800000000004%22%2F%3E%3C%2FArray%3E%3CmxPoint%20x%3D%22165%22%20y%3D%221356.0800000000004%22%20as%3D%22targetPoint%22%2F%3E%3CmxPoint%20as%3D%22offset%22%2F%3E%3C%2FmxGeometry%3E%3C%2FmxCell%3E%3CmxCell%20id%3D%229%22%20value%3D%22Canal%26amp%3Bnbsp%3B%26lt%3Bdiv%26gt%3B%26lt%3Bb%26gt%3BFront MDP%26lt%3B%2Fb%26gt%3B%26lt%3Bdiv%26gt%3BRetorna%20Msj%20de%20Error%26lt%3B%2Fdiv%26gt%3B%26lt%3B%2Fdiv%26gt%3B%22%20style%3D%22text%3Bhtml%3D1%3Balign%3Dleft%3BverticalAlign%3Dtop%3BwhiteSpace%3Dwrap%3Brounded%3D0%3BfontSize%3D9%3B%22%20vertex%3D%221%22%20parent%3D%221%22%3E%3CmxGeometry%20x%3D%22290%22%20y%3D%221242%22%20width%3D%2290%22%20height%3D%2244%22%20as%3D%22geometry%22%2F%3E%3C%2FmxCell%3E%3CmxCell%20id%3D%2210%22%20value%3D%22%22%20style%3D%22html%3D1%3BverticalAlign%3Dbottom%3BlabelBackgroundColor%3Dnone%3BendArrow%3Dnone%3BendFill%3D0%3BendSize%3D6%3Balign%3Dleft%3Brounded%3D0%3BstartArrow%3Dblock%3BstartFill%3D1%3Bdashed%3D1%3B%22%20edge%3D%221%22%20parent%3D%221%22%3E%3CmxGeometry%20x%3D%22-1%22%20relative%3D%221%22%20as%3D%22geometry%22%3E%3CmxPoint%20x%3D%22165%22%20y%3D%221286%22%20as%3D%22sourcePoint%22%2F%3E%3CmxPoint%20x%3D%22395%22%20y%3D%221286%22%20as%3D%22targetPoint%22%2F%3E%3CmxPoint%20as%3D%22offset%22%2F%3E%3CArray%20as%3D%22points%22%3E%3CmxPoint%20x%3D%22365%22%20y%3D%221286%22%2F%3E%3C%2FArray%3E%3C%2FmxGeometry%3E%3C%2FmxCell%3E%3CmxCell%20id%3D%2211%22%20value%3D%22%22%20style%3D%22html%3D1%3BverticalAlign%3Dbottom%3BlabelBackgroundColor%3Dnone%3BendArrow%3Dnone%3BendFill%3D0%3BendSize%3D6%3Balign%3Dleft%3Brounded%3D0%3BstartArrow%3Dblock%3BstartFill%3D1%3Bdashed%3D1%3B%22%20edge%3D%221%22%20parent%3D%221%22%3E%3CmxGeometry%20x%3D%22-1%22%20relative%3D%221%22%20as%3D%22geometry%22%3E%3CmxPoint%20x%3D%22405%22%20y%3D%221253%22%20as%3D%22sourcePoint%22%2F%3E%3CmxPoint%20x%3D%22632%22%20y%3D%221253%22%20as%3D%22targetPoint%22%2F%3E%3CmxPoint%20as%3D%22offset%22%2F%3E%3CArray%20as%3D%22points%22%3E%3CmxPoint%20x%3D%22605%22%20y%3D%221253%22%2F%3E%3C%2FArray%3E%3C%2FmxGeometry%3E%3C%2FmxCell%3E%3CmxCell%20id%3D%2212%22%20value%3D%22Canal%26amp%3Bnbsp%3B%26lt%3Bdiv%26gt%3B%26lt%3Bb%26gt%3BFront MDP%26lt%3B%2Fb%26gt%3B%26lt%3Bdiv%26gt%3BRecibe%20Msj%20de%20Error%26lt%3B%2Fdiv%26gt%3B%26lt%3B%2Fdiv%26gt%3B%22%20style%3D%22text%3Bhtml%3D1%3Balign%3Dleft%3BverticalAlign%3Dtop%3BwhiteSpace%3Dwrap%3Brounded%3D0%3BfontSize%3D9%3B%22%20vertex%3D%221%22%20parent%3D%221%22%3E%3CmxGeometry%20x%3D%22535%22%20y%3D%221207%22%20width%3D%2290%22%20height%3D%2244%22%20as%3D%22geometry%22%2F%3E%3C%2FmxCell%3E%3CmxCell%20id%3D%2213%22%20value%3D%22%22%20style%3D%22html%3D1%3BverticalAlign%3Dbottom%3BlabelBackgroundColor%3Dnone%3BendArrow%3Dnone%3BendFill%3D0%3BendSize%3D6%3Balign%3Dleft%3Brounded%3D0%3BstartArrow%3Dblock%3BstartFill%3D1%3Bdashed%3D1%3B%22%20edge%3D%221%22%20parent%3D%221%22%3E%3CmxGeometry%20x%3D%22-1%22%20relative%3D%221%22%20as%3D%22geometry%22%3E%3CmxPoint%20x%3D%22643%22%20y%3D%221223%22%20as%3D%22sourcePoint%22%2F%3E%3CmxPoint%20x%3D%22870%22%20y%3D%221223%22%20as%3D%22targetPoint%22%2F%3E%3CmxPoint%20as%3D%22offset%22%2F%3E%3CArray%20as%3D%22points%22%3E%3CmxPoint%20x%3D%22843%22%20y%3D%221223%22%2F%3E%3C%2FArray%3E%3C%2FmxGeometry%3E%3C%2FmxCell%3E%3CmxCell%20id%3D%2214%22%20value%3D%22%22%20style%3D%22html%3D1%3BverticalAlign%3Dbottom%3BlabelBackgroundColor%3Dnone%3BendArrow%3Dnone%3BendFill%3D0%3BendSize%3D6%3Balign%3Dleft%3Brounded%3D0%3BstartArrow%3Dblock%3BstartFill%3D1%3Bdashed%3D1%3B%22%20edge%3D%221%22%20parent%3D%221%22%3E%3CmxGeometry%20x%3D%22-1%22%20relative%3D%221%22%20as%3D%22geometry%22%3E%3CmxPoint%20x%3D%22883%22%20y%3D%221195%22%20as%3D%22sourcePoint%22%2F%3E%3CmxPoint%20x%3D%221110%22%20y%3D%221195%22%20as%3D%22targetPoint%22%2F%3E%3CmxPoint%20as%3D%22offset%22%2F%3E%3CArray%20as%3D%22points%22%3E%3CmxPoint%20x%3D%221083%22%20y%3D%221195%22%2F%3E%3C%2FArray%3E%3C%2FmxGeometry%3E%3C%2FmxCell%3E%3CmxCell%20id%3D%2215%22%20value%3D%22%22%20style%3D%22html%3D1%3BverticalAlign%3Dbottom%3BlabelBackgroundColor%3Dnone%3BendArrow%3Dnone%3BendFill%3D0%3BendSize%3D6%3Balign%3Dleft%3Brounded%3D0%3BstartArrow%3Dblock%3BstartFill%3D1%3Bdashed%3D1%3B%22%20edge%3D%221%22%20parent%3D%221%22%3E%3CmxGeometry%20x%3D%22-1%22%20relative%3D%221%22%20as%3D%22geometry%22%3E%3CmxPoint%20x%3D%221122%22%20y%3D%221166%22%20as%3D%22sourcePoint%22%2F%3E%3CmxPoint%20x%3D%221349%22%20y%3D%221166%22%20as%3D%22targetPoint%22%2F%3E%3CmxPoint%20as%3D%22offset%22%2F%3E%3CArray%20as%3D%22points%22%3E%3CmxPoint%20x%3D%221322%22%20y%3D%221166%22%2F%3E%3C%2FArray%3E%3C%2FmxGeometry%3E%3C%2FmxCell%3E%3CmxCell%20id%3D%2216%22%20value%3D%22Microservicio%26lt%3Bdiv%26gt%3B%26lt%3Bb%26gt%3Bdevice-block%26lt%3B%2Fb%26gt%3B%26lt%3Bbr%26gt%3B%26lt%3Bdiv%26gt%3BDeposita%20Msj%20de%20Error%26amp%3Bnbsp%3B%20en%20Redis%20Streams%26lt%3B%2Fdiv%26gt%3B%26lt%3B%2Fdiv%26gt%3B%22%20style%3D%22text%3Bhtml%3D1%3Balign%3Dleft%3BverticalAlign%3Dtop%3BwhiteSpace%3Dwrap%3Brounded%3D0%3BfontSize%3D9%3B%22%20vertex%3D%221%22%20parent%3D%221%22%3E%3CmxGeometry%20x%3D%221169%22%20y%3D%221120%22%20width%3D%22171%22%20height%3D%2245%22%20as%3D%22geometry%22%2F%3E%3C%2FmxCell%3E%3CmxCell%20id%3D%2217%22%20value%3D%22%22%20style%3D%22html%3D1%3BverticalAlign%3Dbottom%3BlabelBackgroundColor%3Dnone%3BendArrow%3Dblock%3BendFill%3D1%3BendSize%3D6%3Balign%3Dleft%3Brounded%3D0%3B%22%20edge%3D%221%22%20target%3D%222%22%20parent%3D%221%22%3E%3CmxGeometry%20x%3D%22-1%22%20relative%3D%221%22%20as%3D%22geometry%22%3E%3CmxPoint%20x%3D%221363%22%20y%3D%221332%22%20as%3D%22sourcePoint%22%2F%3E%3CmxPoint%20x%3D%221593%22%20y%3D%221332%22%20as%3D%22targetPoint%22%2F%3E%3CmxPoint%20as%3D%22offset%22%2F%3E%3C%2FmxGeometry%3E%3C%2FmxCell%3E%3CmxCell%20id%3D%2218%22%20value%3D%22Microservicio%26lt%3Bdiv%26gt%3B%26lt%3Bb%26gt%3Bdevice-block%26lt%3B%2Fb%26gt%3B%26lt%3Bbr%26gt%3B%26lt%3Bdiv%26gt%3BPublica%20trama%20de%20bit%C3%A1cora%20de%20Consulta%20de%20bloqueos%20operativos%20de%20una%20tarjeta%20de%20d%C3%A9bito%26lt%3B%2Fdiv%26gt%3B%26lt%3B%2Fdiv%26gt%3B%22%20style%3D%22text%3Bhtml%3D1%3Balign%3Dleft%3BverticalAlign%3Dtop%3BwhiteSpace%3Dwrap%3Brounded%3D0%3BfontSize%3D9%3B%22%20vertex%3D%221%22%20parent%3D%221%22%3E%3CmxGeometry%20x%3D%221368%22%20y%3D%221270%22%20width%3D%22160%22%20height%3D%2259%22%20as%3D%22geometry%22%2F%3E%3C%2FmxCell%3E%3CmxCell%20id%3D%2219%22%20value%3D%22%22%20style%3D%22html%3D1%3BverticalAlign%3Dbottom%3BlabelBackgroundColor%3Dnone%3BendArrow%3Dnone%3BendFill%3D0%3BendSize%3D6%3Balign%3Dleft%3Brounded%3D0%3BstartArrow%3Dblock%3BstartFill%3D1%3Bdashed%3D1%3B%22%20edge%3D%221%22%20parent%3D%221%22%3E%3CmxGeometry%20x%3D%22-1%22%20relative%3D%221%22%20as%3D%22geometry%22%3E%3CmxPoint%20x%3D%221363%22%20y%3D%221376%22%20as%3D%22sourcePoint%22%2F%3E%3CmxPoint%20x%3D%221590%22%20y%3D%221376%22%20as%3D%22targetPoint%22%2F%3E%3CmxPoint%20as%3D%22offset%22%2F%3E%3CArray%20as%3D%22points%22%3E%3CmxPoint%20x%3D%221563%22%20y%3D%221376%22%2F%3E%3C%2FArray%3E%3C%2FmxGeometry%3E%3C%2FmxCell%3E%3CmxCell%20id%3D%2220%22%20value%3D%22Response%20200%22%20style%3D%22text%3Bhtml%3D1%3Balign%3Dleft%3BverticalAlign%3Dtop%3BwhiteSpace%3Dwrap%3Brounded%3D0%3BfontSize%3D9%3B%22%20vertex%3D%221%22%20parent%3D%221%22%3E%3CmxGeometry%20x%3D%221519%22%20y%3D%221355%22%20width%3D%2270%22%20height%3D%2220%22%20as%3D%22geometry%22%2F%3E%3C%2FmxCell%3E%3C%2Froot%3E%3C%2FmxGraphModel%3E&lt;/span&gt;&lt;br&gt;&lt;div&gt;Toma la s&lt;span style=&quot;background-color: transparent; color: light-dark(rgb(0, 0, 0), rgb(255, 255, 255));&quot;&gt;olicitud de consulta cuentas cargo de la tarjeta débito&lt;/span&gt;&lt;span style=&quot;background-color: transparent; color: light-dark(rgb(0, 0, 0), rgb(255, 255, 255));&quot;&gt;&amp;nbsp;&lt;/span&gt;&lt;/div&gt;&lt;div&gt;[MPL1]&lt;/div&gt;&lt;/div&gt;" style="text;html=1;align=left;verticalAlign=top;whiteSpace=wrap;rounded=0;fontSize=9;" vertex="1" parent="1">
          <mxGeometry x="1159" y="884" width="161" height="62" as="geometry" />
        </mxCell>
        <mxCell id="WlUoZoSoJe3zFZYJtJ5i-245" value="" style="html=1;verticalAlign=bottom;labelBackgroundColor=none;endArrow=block;endFill=1;endSize=6;align=left;rounded=0;" edge="1" parent="1">
          <mxGeometry x="-1" relative="1" as="geometry">
            <mxPoint x="1152" y="949" as="sourcePoint" />
            <mxPoint x="1382" y="949" as="targetPoint" />
            <mxPoint as="offset" />
          </mxGeometry>
        </mxCell>
        <mxCell id="WlUoZoSoJe3zFZYJtJ5i-246" value="" style="html=1;points=[[0,0,0,0,5],[0,1,0,0,-5],[1,0,0,0,5],[1,1,0,0,-5]];perimeter=orthogonalPerimeter;outlineConnect=0;targetShapes=umlLifeline;portConstraint=eastwest;newEdgeStyle={&quot;curved&quot;:0,&quot;rounded&quot;:0};" vertex="1" parent="1">
          <mxGeometry x="2103" y="993" width="10" height="110" as="geometry" />
        </mxCell>
        <mxCell id="WlUoZoSoJe3zFZYJtJ5i-247" value="&lt;div&gt;&lt;div&gt;&lt;font style=&quot;color: rgb(0, 0, 0);&quot;&gt;Microservicio&lt;/font&gt;&lt;/div&gt;&lt;div&gt;&lt;b&gt;account-device-inquiry&lt;/b&gt;&lt;br&gt;&lt;/div&gt;&lt;/div&gt;&lt;font style=&quot;color: rgb(0, 0, 0);&quot;&gt;Recibe datos de la&amp;nbsp;&lt;/font&gt;consulta cuentas cargo de la tarjeta débito&lt;br&gt;&lt;p style=&quot;margin-left: 20.6pt; text-indent: -0.25in; font-size: 10px;&quot; class=&quot;TableText&quot;&gt;&lt;i&gt;&lt;span style=&quot;&quot; lang=&quot;ES&quot;&gt;&lt;font style=&quot;font-size: 10px;&quot;&gt;&lt;/font&gt;&lt;/span&gt;&lt;/i&gt;&lt;/p&gt;" style="text;html=1;align=left;verticalAlign=top;whiteSpace=wrap;rounded=0;fontSize=9;" vertex="1" parent="1">
          <mxGeometry x="1401.5" y="1040" width="188.5" height="49.82" as="geometry" />
        </mxCell>
        <mxCell id="WlUoZoSoJe3zFZYJtJ5i-248" value="&lt;font style=&quot;color: rgb(0, 0, 0);&quot;&gt;Microdiseño&lt;/font&gt;&lt;div&gt;&lt;font&gt;&lt;b&gt;account-device-inquiry&lt;/b&gt;&lt;br&gt;&lt;/font&gt;&lt;div&gt;Realiza la consulta cuentas cargo de la tarjeta débito&lt;/div&gt;&lt;div&gt;&lt;span style=&quot;background-color: transparent; color: light-dark(rgb(0, 0, 0), rgb(255, 255, 255));&quot;&gt;[MPL1]&lt;/span&gt;&lt;/div&gt;&lt;/div&gt;" style="text;html=1;align=left;verticalAlign=top;whiteSpace=wrap;rounded=0;fontSize=9;" vertex="1" parent="1">
          <mxGeometry x="1399" y="938" width="141" height="58" as="geometry" />
        </mxCell>
        <mxCell id="WlUoZoSoJe3zFZYJtJ5i-249" value="" style="html=1;verticalAlign=bottom;labelBackgroundColor=none;endArrow=block;endFill=1;endSize=6;align=left;rounded=0;" edge="1" parent="1" target="WlUoZoSoJe3zFZYJtJ5i-246">
          <mxGeometry x="-1" relative="1" as="geometry">
            <mxPoint x="1392" y="1002" as="sourcePoint" />
            <mxPoint x="1622" y="1002" as="targetPoint" />
            <mxPoint as="offset" />
          </mxGeometry>
        </mxCell>
        <mxCell id="WlUoZoSoJe3zFZYJtJ5i-250" value="" style="html=1;align=left;spacingLeft=2;endArrow=block;rounded=0;edgeStyle=orthogonalEdgeStyle;curved=0;rounded=0;fillColor=#f8cecc;strokeColor=#000000;" edge="1" parent="1">
          <mxGeometry x="-0.2922" y="20" relative="1" as="geometry">
            <mxPoint x="2113" y="1027.0200000000004" as="sourcePoint" />
            <Array as="points">
              <mxPoint x="2143" y="1027.0800000000004" />
              <mxPoint x="2143" y="1057.0800000000004" />
            </Array>
            <mxPoint x="2113" y="1057.0800000000004" as="targetPoint" />
            <mxPoint as="offset" />
          </mxGeometry>
        </mxCell>
        <mxCell id="WlUoZoSoJe3zFZYJtJ5i-251" value="" style="html=1;verticalAlign=bottom;labelBackgroundColor=none;endArrow=none;endFill=0;endSize=6;align=left;rounded=0;startArrow=block;startFill=1;dashed=1;" edge="1" parent="1">
          <mxGeometry x="-1" relative="1" as="geometry">
            <mxPoint x="1392" y="1095" as="sourcePoint" />
            <mxPoint x="2103" y="1095" as="targetPoint" />
            <mxPoint as="offset" />
            <Array as="points">
              <mxPoint x="1765" y="1095" />
            </Array>
          </mxGeometry>
        </mxCell>
        <mxCell id="WlUoZoSoJe3zFZYJtJ5i-252" value="&lt;font style=&quot;color: rgb(0, 0, 0);&quot;&gt;Realiza la consulta&amp;nbsp;&lt;/font&gt;cuentas cargo de la tarjeta débito&lt;div style=&quot;&quot;&gt;&lt;div&gt;&lt;div&gt;&lt;font&gt;&lt;font style=&quot;color: rgb(0, 0, 0);&quot;&gt;[API PLARD - &lt;/font&gt;&lt;font style=&quot;color: rgb(0, 0, 0);&quot;&gt;Device Life Cycle]&lt;/font&gt;&lt;/font&gt;&lt;/div&gt;&lt;div&gt;&lt;font&gt;&lt;b style=&quot;&quot;&gt;&lt;font style=&quot;color: rgb(0, 0, 0);&quot;&gt;(Get)&amp;nbsp;&lt;/font&gt;&lt;/b&gt;&lt;/font&gt;&lt;span style=&quot;background-color: transparent;&quot;&gt;&lt;b&gt;/life-cycle/v4/devices/details&lt;/b&gt;&lt;/span&gt;&lt;/div&gt;&lt;/div&gt;&lt;/div&gt;&lt;p style=&quot;margin-left: 20.6pt; text-indent: -0.25in; font-size: 10px;&quot; class=&quot;TableText&quot;&gt;&lt;i&gt;&lt;span style=&quot;&quot; lang=&quot;ES&quot;&gt;&lt;font style=&quot;font-size: 10px;&quot;&gt;&lt;/font&gt;&lt;/span&gt;&lt;/i&gt;&lt;/p&gt;" style="text;html=1;align=left;verticalAlign=top;whiteSpace=wrap;rounded=0;fontSize=9;" vertex="1" parent="1">
          <mxGeometry x="2146.25" y="1013" width="153.75" height="50" as="geometry" />
        </mxCell>
        <mxCell id="WlUoZoSoJe3zFZYJtJ5i-253" value="" style="html=1;points=[[0,0,0,0,5],[0,1,0,0,-5],[1,0,0,0,5],[1,1,0,0,-5]];perimeter=orthogonalPerimeter;outlineConnect=0;targetShapes=umlLifeline;portConstraint=eastwest;newEdgeStyle={&quot;curved&quot;:0,&quot;rounded&quot;:0};" vertex="1" parent="1">
          <mxGeometry x="1621" y="1384" width="10" height="58" as="geometry" />
        </mxCell>
        <mxCell id="WlUoZoSoJe3zFZYJtJ5i-254" value="Queque&amp;nbsp;&lt;div&gt;&lt;b&gt;MQ Canal&lt;/b&gt;&lt;div&gt;Recibe Msj de Error&lt;/div&gt;&lt;/div&gt;" style="text;html=1;align=left;verticalAlign=top;whiteSpace=wrap;rounded=0;fontSize=9;" vertex="1" parent="1">
          <mxGeometry x="806" y="1229" width="90" height="43" as="geometry" />
        </mxCell>
        <mxCell id="WlUoZoSoJe3zFZYJtJ5i-255" value="Componente&lt;div&gt;&lt;b&gt;Launcher PLARD&lt;/b&gt;&lt;br&gt;&lt;div&gt;Toma Msj de Error de Redis Streams&lt;/div&gt;&lt;/div&gt;" style="text;html=1;align=left;verticalAlign=top;whiteSpace=wrap;rounded=0;fontSize=9;" vertex="1" parent="1">
          <mxGeometry x="970" y="1198" width="151" height="45" as="geometry" />
        </mxCell>
        <mxCell id="WlUoZoSoJe3zFZYJtJ5i-256" value="" style="html=1;align=left;spacingLeft=2;endArrow=block;rounded=0;edgeStyle=orthogonalEdgeStyle;curved=0;rounded=0;fillColor=#f8cecc;strokeColor=#000000;" edge="1" parent="1">
          <mxGeometry x="-0.2922" y="20" relative="1" as="geometry">
            <mxPoint x="1393" y="1262.0200000000004" as="sourcePoint" />
            <Array as="points">
              <mxPoint x="1423" y="1262.0800000000004" />
              <mxPoint x="1423" y="1292.0800000000004" />
            </Array>
            <mxPoint x="1393" y="1292.0800000000004" as="targetPoint" />
            <mxPoint as="offset" />
          </mxGeometry>
        </mxCell>
        <mxCell id="WlUoZoSoJe3zFZYJtJ5i-257" value="Microservicio&lt;div&gt;&lt;b&gt;account-device-inquiry&lt;/b&gt;&lt;br&gt;&lt;div&gt;Genera trama de bitácora de&amp;nbsp;&lt;span style=&quot;background-color: transparent; color: light-dark(rgb(0, 0, 0), rgb(255, 255, 255));&quot;&gt;consulta cuentas cargo de la tarjeta débito&lt;/span&gt;&lt;/div&gt;&lt;/div&gt;" style="text;html=1;align=left;verticalAlign=top;whiteSpace=wrap;rounded=0;fontSize=9;" vertex="1" parent="1">
          <mxGeometry x="1430" y="1248" width="160" height="59" as="geometry" />
        </mxCell>
        <mxCell id="WlUoZoSoJe3zFZYJtJ5i-258" value="&lt;b&gt;Ejecutivo Santander&lt;/b&gt;&lt;div&gt;Visualiza Msj de Error&lt;/div&gt;" style="text;html=1;align=left;verticalAlign=top;whiteSpace=wrap;rounded=0;fontSize=9;" vertex="1" parent="1">
          <mxGeometry x="231" y="1384" width="109" height="37" as="geometry" />
        </mxCell>
        <mxCell id="WlUoZoSoJe3zFZYJtJ5i-259" value="" style="html=1;align=left;spacingLeft=2;endArrow=block;rounded=0;edgeStyle=orthogonalEdgeStyle;curved=0;rounded=0;fillColor=#f8cecc;strokeColor=#000000;" edge="1" parent="1">
          <mxGeometry x="-0.2922" y="20" relative="1" as="geometry">
            <mxPoint x="195" y="1386.0200000000004" as="sourcePoint" />
            <Array as="points">
              <mxPoint x="225" y="1386.0800000000004" />
              <mxPoint x="225" y="1416.0800000000004" />
            </Array>
            <mxPoint x="195" y="1416.0800000000004" as="targetPoint" />
            <mxPoint as="offset" />
          </mxGeometry>
        </mxCell>
        <mxCell id="WlUoZoSoJe3zFZYJtJ5i-260" value="Canal&amp;nbsp;&lt;div&gt;&lt;b&gt;Front MDP&lt;/b&gt;&lt;div&gt;Retorna Msj de Error&lt;/div&gt;&lt;/div&gt;" style="text;html=1;align=left;verticalAlign=top;whiteSpace=wrap;rounded=0;fontSize=9;" vertex="1" parent="1">
          <mxGeometry x="320" y="1292" width="90" height="44" as="geometry" />
        </mxCell>
        <mxCell id="WlUoZoSoJe3zFZYJtJ5i-261" value="" style="html=1;verticalAlign=bottom;labelBackgroundColor=none;endArrow=none;endFill=0;endSize=6;align=left;rounded=0;startArrow=block;startFill=1;dashed=1;" edge="1" parent="1">
          <mxGeometry x="-1" relative="1" as="geometry">
            <mxPoint x="195" y="1336" as="sourcePoint" />
            <mxPoint x="425" y="1336" as="targetPoint" />
            <mxPoint as="offset" />
            <Array as="points">
              <mxPoint x="395" y="1336" />
            </Array>
          </mxGeometry>
        </mxCell>
        <mxCell id="WlUoZoSoJe3zFZYJtJ5i-262" value="" style="html=1;verticalAlign=bottom;labelBackgroundColor=none;endArrow=none;endFill=0;endSize=6;align=left;rounded=0;startArrow=block;startFill=1;dashed=1;" edge="1" parent="1">
          <mxGeometry x="-1" relative="1" as="geometry">
            <mxPoint x="435" y="1303" as="sourcePoint" />
            <mxPoint x="662" y="1303" as="targetPoint" />
            <mxPoint as="offset" />
            <Array as="points">
              <mxPoint x="635" y="1303" />
            </Array>
          </mxGeometry>
        </mxCell>
        <mxCell id="WlUoZoSoJe3zFZYJtJ5i-263" value="Canal&amp;nbsp;&lt;div&gt;&lt;b&gt;Front MDP&lt;/b&gt;&lt;div&gt;Recibe Msj de Error&lt;/div&gt;&lt;/div&gt;" style="text;html=1;align=left;verticalAlign=top;whiteSpace=wrap;rounded=0;fontSize=9;" vertex="1" parent="1">
          <mxGeometry x="565" y="1257" width="90" height="44" as="geometry" />
        </mxCell>
        <mxCell id="WlUoZoSoJe3zFZYJtJ5i-264" value="" style="html=1;verticalAlign=bottom;labelBackgroundColor=none;endArrow=none;endFill=0;endSize=6;align=left;rounded=0;startArrow=block;startFill=1;dashed=1;" edge="1" parent="1">
          <mxGeometry x="-1" relative="1" as="geometry">
            <mxPoint x="673" y="1273" as="sourcePoint" />
            <mxPoint x="900" y="1273" as="targetPoint" />
            <mxPoint as="offset" />
            <Array as="points">
              <mxPoint x="873" y="1273" />
            </Array>
          </mxGeometry>
        </mxCell>
        <mxCell id="WlUoZoSoJe3zFZYJtJ5i-265" value="" style="html=1;verticalAlign=bottom;labelBackgroundColor=none;endArrow=none;endFill=0;endSize=6;align=left;rounded=0;startArrow=block;startFill=1;dashed=1;" edge="1" parent="1">
          <mxGeometry x="-1" relative="1" as="geometry">
            <mxPoint x="913" y="1245" as="sourcePoint" />
            <mxPoint x="1140" y="1245" as="targetPoint" />
            <mxPoint as="offset" />
            <Array as="points">
              <mxPoint x="1113" y="1245" />
            </Array>
          </mxGeometry>
        </mxCell>
        <mxCell id="WlUoZoSoJe3zFZYJtJ5i-266" value="" style="html=1;verticalAlign=bottom;labelBackgroundColor=none;endArrow=none;endFill=0;endSize=6;align=left;rounded=0;startArrow=block;startFill=1;dashed=1;" edge="1" parent="1">
          <mxGeometry x="-1" relative="1" as="geometry">
            <mxPoint x="1154" y="1216" as="sourcePoint" />
            <mxPoint x="1381" y="1216" as="targetPoint" />
            <mxPoint as="offset" />
            <Array as="points">
              <mxPoint x="1354" y="1216" />
            </Array>
          </mxGeometry>
        </mxCell>
        <mxCell id="WlUoZoSoJe3zFZYJtJ5i-267" value="Microservicio&lt;div&gt;&lt;b&gt;account-device-inquiry&lt;/b&gt;&lt;br&gt;&lt;div&gt;Deposita Msj de Error&amp;nbsp; en Redis Streams&lt;/div&gt;&lt;/div&gt;" style="text;html=1;align=left;verticalAlign=top;whiteSpace=wrap;rounded=0;fontSize=9;" vertex="1" parent="1">
          <mxGeometry x="1199" y="1170" width="171" height="45" as="geometry" />
        </mxCell>
        <mxCell id="WlUoZoSoJe3zFZYJtJ5i-268" value="" style="html=1;verticalAlign=bottom;labelBackgroundColor=none;endArrow=block;endFill=1;endSize=6;align=left;rounded=0;" edge="1" parent="1" target="WlUoZoSoJe3zFZYJtJ5i-253">
          <mxGeometry x="-1" relative="1" as="geometry">
            <mxPoint x="1393" y="1392" as="sourcePoint" />
            <mxPoint x="1623" y="1392" as="targetPoint" />
            <mxPoint as="offset" />
          </mxGeometry>
        </mxCell>
        <mxCell id="WlUoZoSoJe3zFZYJtJ5i-269" value="Microservicio&lt;div&gt;&lt;b&gt;account-device-inquiry&lt;/b&gt;&lt;br&gt;&lt;div&gt;Publica trama de bitácora de&amp;nbsp;&lt;span style=&quot;background-color: transparent; color: light-dark(rgb(0, 0, 0), rgb(255, 255, 255));&quot;&gt;consulta cuentas cargo de la tarjeta débito&lt;/span&gt;&lt;/div&gt;&lt;/div&gt;" style="text;html=1;align=left;verticalAlign=top;whiteSpace=wrap;rounded=0;fontSize=9;" vertex="1" parent="1">
          <mxGeometry x="1398" y="1338" width="160" height="49" as="geometry" />
        </mxCell>
        <mxCell id="WlUoZoSoJe3zFZYJtJ5i-270" value="" style="html=1;verticalAlign=bottom;labelBackgroundColor=none;endArrow=none;endFill=0;endSize=6;align=left;rounded=0;startArrow=block;startFill=1;dashed=1;" edge="1" parent="1">
          <mxGeometry x="-1" relative="1" as="geometry">
            <mxPoint x="1393" y="1436" as="sourcePoint" />
            <mxPoint x="1620" y="1436" as="targetPoint" />
            <mxPoint as="offset" />
            <Array as="points">
              <mxPoint x="1593" y="1436" />
            </Array>
          </mxGeometry>
        </mxCell>
        <mxCell id="WlUoZoSoJe3zFZYJtJ5i-271" value="Response 200" style="text;html=1;align=left;verticalAlign=top;whiteSpace=wrap;rounded=0;fontSize=9;" vertex="1" parent="1">
          <mxGeometry x="1549" y="1415" width="70" height="20" as="geometry" />
        </mxCell>
        <mxCell id="WlUoZoSoJe3zFZYJtJ5i-272" value="" style="html=1;align=left;spacingLeft=2;endArrow=block;rounded=0;edgeStyle=orthogonalEdgeStyle;curved=0;rounded=0;fillColor=#f8cecc;strokeColor=#000000;" edge="1" parent="1">
          <mxGeometry x="-0.2922" y="20" relative="1" as="geometry">
            <mxPoint x="1393" y="1522.0200000000004" as="sourcePoint" />
            <Array as="points">
              <mxPoint x="1423" y="1522.0800000000004" />
              <mxPoint x="1423" y="1552.0800000000004" />
            </Array>
            <mxPoint x="1393" y="1552.0800000000004" as="targetPoint" />
            <mxPoint as="offset" />
          </mxGeometry>
        </mxCell>
        <mxCell id="WlUoZoSoJe3zFZYJtJ5i-273" value="Microservicio&lt;div&gt;&lt;b&gt;account-device-inquiry&lt;/b&gt;&lt;br&gt;&lt;div&gt;Genera reporte de&amp;nbsp;&lt;span style=&quot;background-color: transparent; color: light-dark(rgb(0, 0, 0), rgb(255, 255, 255));&quot;&gt;consulta cuentas cargo de la tarjeta débito con formato&amp;nbsp;&lt;/span&gt;&lt;span style=&quot;background-color: transparent; color: light-dark(rgb(0, 0, 0), rgb(255, 255, 255));&quot;&gt;[MPL1]&lt;/span&gt;&lt;span style=&quot;background-color: transparent; color: light-dark(rgb(0, 0, 0), rgb(255, 255, 255));&quot;&gt;&amp;nbsp;&lt;/span&gt;&lt;/div&gt;&lt;/div&gt;" style="text;html=1;align=left;verticalAlign=top;whiteSpace=wrap;rounded=0;fontSize=9;" vertex="1" parent="1">
          <mxGeometry x="1430" y="1505" width="160" height="59" as="geometry" />
        </mxCell>
        <mxCell id="WlUoZoSoJe3zFZYJtJ5i-274" value="" style="html=1;verticalAlign=bottom;labelBackgroundColor=none;endArrow=none;endFill=0;endSize=6;align=left;rounded=0;startArrow=block;startFill=1;dashed=1;" edge="1" parent="1">
          <mxGeometry x="-1" relative="1" as="geometry">
            <mxPoint x="1152" y="1606" as="sourcePoint" />
            <mxPoint x="1379" y="1606" as="targetPoint" />
            <mxPoint as="offset" />
            <Array as="points">
              <mxPoint x="1352" y="1606" />
            </Array>
          </mxGeometry>
        </mxCell>
        <mxCell id="WlUoZoSoJe3zFZYJtJ5i-275" value="Microservicio&lt;div&gt;&lt;b&gt;account-device-inquiry&lt;/b&gt;&lt;br&gt;&lt;div&gt;Deposita respuesta de la consulta cuentas cargo de la tarjeta débito&amp;nbsp;en Redis Streams&lt;/div&gt;&lt;/div&gt;&lt;div&gt;[MPL1]&lt;/div&gt;" style="text;html=1;align=left;verticalAlign=top;whiteSpace=wrap;rounded=0;fontSize=9;" vertex="1" parent="1">
          <mxGeometry x="1200" y="1540" width="180" height="66" as="geometry" />
        </mxCell>
        <mxCell id="WlUoZoSoJe3zFZYJtJ5i-276" value="Queque&amp;nbsp;&lt;div&gt;&lt;b&gt;MQ Canal&lt;/b&gt;&lt;div&gt;Recibe&amp;nbsp;&lt;span style=&quot;background-color: transparent; color: light-dark(rgb(0, 0, 0), rgb(255, 255, 255));&quot;&gt;respuesta&lt;/span&gt;&lt;span style=&quot;background-color: transparent; color: light-dark(rgb(0, 0, 0), rgb(255, 255, 255));&quot;&gt;&amp;nbsp;&lt;/span&gt;&lt;span style=&quot;background-color: transparent; color: light-dark(rgb(0, 0, 0), rgb(255, 255, 255));&quot;&gt;de la consulta cuentas cargo de la tarjeta débito&lt;/span&gt;&lt;/div&gt;&lt;div&gt;[MPL1]&lt;/div&gt;&lt;/div&gt;" style="text;html=1;align=left;verticalAlign=top;whiteSpace=wrap;rounded=0;fontSize=9;" vertex="1" parent="1">
          <mxGeometry x="710" y="1610" width="190" height="59" as="geometry" />
        </mxCell>
        <mxCell id="WlUoZoSoJe3zFZYJtJ5i-277" value="Componente&lt;div&gt;&lt;b&gt;Launcher PLARD&lt;/b&gt;&lt;br&gt;&lt;div&gt;Toma respuesta&amp;nbsp;&lt;span style=&quot;background-color: transparent; color: light-dark(rgb(0, 0, 0), rgb(255, 255, 255));&quot;&gt;de la&amp;nbsp;&lt;/span&gt;consulta cuentas cargo de la tarjeta débito&lt;span style=&quot;background-color: transparent; color: light-dark(rgb(0, 0, 0), rgb(255, 255, 255));&quot;&gt;&amp;nbsp;en Redis Streams&lt;/span&gt;&lt;/div&gt;&lt;div&gt;[MPL1]&lt;/div&gt;&lt;/div&gt;" style="text;html=1;align=left;verticalAlign=top;whiteSpace=wrap;rounded=0;fontSize=9;" vertex="1" parent="1">
          <mxGeometry x="950" y="1576" width="193" height="63" as="geometry" />
        </mxCell>
        <mxCell id="WlUoZoSoJe3zFZYJtJ5i-278" value="" style="html=1;verticalAlign=bottom;labelBackgroundColor=none;endArrow=none;endFill=0;endSize=6;align=left;rounded=0;startArrow=block;startFill=1;dashed=1;" edge="1" parent="1">
          <mxGeometry x="-1" relative="1" as="geometry">
            <mxPoint x="673" y="1673" as="sourcePoint" />
            <mxPoint x="900" y="1673" as="targetPoint" />
            <mxPoint as="offset" />
            <Array as="points">
              <mxPoint x="873" y="1673" />
            </Array>
          </mxGeometry>
        </mxCell>
        <mxCell id="WlUoZoSoJe3zFZYJtJ5i-279" value="" style="html=1;verticalAlign=bottom;labelBackgroundColor=none;endArrow=none;endFill=0;endSize=6;align=left;rounded=0;startArrow=block;startFill=1;dashed=1;" edge="1" parent="1">
          <mxGeometry x="-1" relative="1" as="geometry">
            <mxPoint x="913" y="1645" as="sourcePoint" />
            <mxPoint x="1140" y="1645" as="targetPoint" />
            <mxPoint as="offset" />
            <Array as="points">
              <mxPoint x="1113" y="1645" />
            </Array>
          </mxGeometry>
        </mxCell>
        <mxCell id="WlUoZoSoJe3zFZYJtJ5i-280" value="Canal&amp;nbsp;&lt;div&gt;&lt;b&gt;Front MDP&lt;/b&gt;&lt;div&gt;Presenta en pantalla los datos de la tarjeta.&lt;/div&gt;&lt;/div&gt;&lt;div&gt;[MPL1]&lt;/div&gt;" style="text;html=1;align=left;verticalAlign=top;whiteSpace=wrap;rounded=0;fontSize=9;" vertex="1" parent="1">
          <mxGeometry x="240" y="1700" width="182" height="62" as="geometry" />
        </mxCell>
        <mxCell id="WlUoZoSoJe3zFZYJtJ5i-281" value="" style="html=1;verticalAlign=bottom;labelBackgroundColor=none;endArrow=none;endFill=0;endSize=6;align=left;rounded=0;startArrow=block;startFill=1;dashed=1;" edge="1" parent="1">
          <mxGeometry x="-1" relative="1" as="geometry">
            <mxPoint x="195" y="1756" as="sourcePoint" />
            <mxPoint x="425" y="1756" as="targetPoint" />
            <mxPoint as="offset" />
            <Array as="points">
              <mxPoint x="395" y="1756" />
            </Array>
          </mxGeometry>
        </mxCell>
        <mxCell id="WlUoZoSoJe3zFZYJtJ5i-282" value="" style="html=1;verticalAlign=bottom;labelBackgroundColor=none;endArrow=none;endFill=0;endSize=6;align=left;rounded=0;startArrow=block;startFill=1;dashed=1;" edge="1" parent="1">
          <mxGeometry x="-1" relative="1" as="geometry">
            <mxPoint x="435" y="1723" as="sourcePoint" />
            <mxPoint x="662" y="1723" as="targetPoint" />
            <mxPoint as="offset" />
            <Array as="points">
              <mxPoint x="635" y="1723" />
            </Array>
          </mxGeometry>
        </mxCell>
        <mxCell id="WlUoZoSoJe3zFZYJtJ5i-283" value="Canal&amp;nbsp;&lt;div&gt;&lt;b&gt;Front MDP&lt;/b&gt;&lt;div&gt;&lt;div&gt;Recibe&amp;nbsp;&lt;span style=&quot;background-color: transparent; color: light-dark(rgb(0, 0, 0), rgb(255, 255, 255));&quot;&gt;respuesta&amp;nbsp;&lt;/span&gt;&lt;span style=&quot;background-color: transparent; color: light-dark(rgb(0, 0, 0), rgb(255, 255, 255));&quot;&gt;de la consulta cuentas cargo de la tarjeta débito&lt;/span&gt;&lt;/div&gt;&lt;div&gt;[MPL1]&lt;/div&gt;&lt;/div&gt;&lt;/div&gt;" style="text;html=1;align=left;verticalAlign=top;whiteSpace=wrap;rounded=0;fontSize=9;" vertex="1" parent="1">
          <mxGeometry x="480" y="1660" width="181" height="58" as="geometry" />
        </mxCell>
        <mxCell id="WlUoZoSoJe3zFZYJtJ5i-284" value="" style="line;strokeWidth=2;dashed=1;labelPosition=center;verticalLabelPosition=bottom;align=left;verticalAlign=top;spacingLeft=20;spacingTop=15;html=1;fontColor=none;labelBorderColor=none;noLabel=1;whiteSpace=wrap;strokeColor=#0000CC;" vertex="1" parent="1">
          <mxGeometry x="50" y="1911" width="2490" height="10" as="geometry" />
        </mxCell>
        <mxCell id="WlUoZoSoJe3zFZYJtJ5i-285" value="" style="html=1;points=[[0,0,0,0,5],[0,1,0,0,-5],[1,0,0,0,5],[1,1,0,0,-5]];perimeter=orthogonalPerimeter;outlineConnect=0;targetShapes=umlLifeline;portConstraint=eastwest;newEdgeStyle={&quot;curved&quot;:0,&quot;rounded&quot;:0};" vertex="1" parent="1">
          <mxGeometry x="1621" y="1794" width="10" height="58" as="geometry" />
        </mxCell>
        <mxCell id="WlUoZoSoJe3zFZYJtJ5i-286" value="" style="html=1;align=left;spacingLeft=2;endArrow=block;rounded=0;edgeStyle=orthogonalEdgeStyle;curved=0;rounded=0;fillColor=#f8cecc;strokeColor=#000000;" edge="1" parent="1">
          <mxGeometry x="-0.2922" y="20" relative="1" as="geometry">
            <mxPoint x="1393" y="1662.0200000000004" as="sourcePoint" />
            <Array as="points">
              <mxPoint x="1423" y="1662.0800000000004" />
              <mxPoint x="1423" y="1692.0800000000004" />
            </Array>
            <mxPoint x="1393" y="1692.0800000000004" as="targetPoint" />
            <mxPoint as="offset" />
          </mxGeometry>
        </mxCell>
        <mxCell id="WlUoZoSoJe3zFZYJtJ5i-287" value="Microservicio&lt;div&gt;&lt;b&gt;account-device-inquiry&lt;/b&gt;&lt;br&gt;&lt;div&gt;Genera trama de bitácora de consulta de datos tarjeta&lt;/div&gt;&lt;/div&gt;" style="text;html=1;align=left;verticalAlign=top;whiteSpace=wrap;rounded=0;fontSize=9;" vertex="1" parent="1">
          <mxGeometry x="1430" y="1650" width="160" height="59" as="geometry" />
        </mxCell>
        <mxCell id="WlUoZoSoJe3zFZYJtJ5i-288" value="" style="html=1;verticalAlign=bottom;labelBackgroundColor=none;endArrow=block;endFill=1;endSize=6;align=left;rounded=0;" edge="1" parent="1" target="WlUoZoSoJe3zFZYJtJ5i-285">
          <mxGeometry x="-1" relative="1" as="geometry">
            <mxPoint x="1393" y="1802" as="sourcePoint" />
            <mxPoint x="1623" y="1802" as="targetPoint" />
            <mxPoint as="offset" />
          </mxGeometry>
        </mxCell>
        <mxCell id="WlUoZoSoJe3zFZYJtJ5i-289" value="Microservicio&lt;div&gt;&lt;b&gt;account-device-inquiry&lt;/b&gt;&lt;br&gt;&lt;div&gt;Publica trama de bitácora de consulta de datos tarjeta&lt;/div&gt;&lt;/div&gt;" style="text;html=1;align=left;verticalAlign=top;whiteSpace=wrap;rounded=0;fontSize=9;" vertex="1" parent="1">
          <mxGeometry x="1398" y="1748" width="160" height="49" as="geometry" />
        </mxCell>
        <mxCell id="WlUoZoSoJe3zFZYJtJ5i-290" value="" style="html=1;verticalAlign=bottom;labelBackgroundColor=none;endArrow=none;endFill=0;endSize=6;align=left;rounded=0;startArrow=block;startFill=1;dashed=1;" edge="1" parent="1">
          <mxGeometry x="-1" relative="1" as="geometry">
            <mxPoint x="1393" y="1846" as="sourcePoint" />
            <mxPoint x="1620" y="1846" as="targetPoint" />
            <mxPoint as="offset" />
            <Array as="points">
              <mxPoint x="1593" y="1846" />
            </Array>
          </mxGeometry>
        </mxCell>
        <mxCell id="WlUoZoSoJe3zFZYJtJ5i-291" value="Response 200" style="text;html=1;align=left;verticalAlign=top;whiteSpace=wrap;rounded=0;fontSize=9;" vertex="1" parent="1">
          <mxGeometry x="1549" y="1825" width="70" height="20" as="geometry" />
        </mxCell>
        <mxCell id="WlUoZoSoJe3zFZYJtJ5i-292" value="&lt;b&gt;Ejecutivo Santander&lt;/b&gt;&lt;div&gt;Visualiza la consulta de la cuenta cargo asociada a la tarjeta de débito&lt;/div&gt;" style="text;html=1;align=left;verticalAlign=top;whiteSpace=wrap;rounded=0;fontSize=9;" vertex="1" parent="1">
          <mxGeometry x="231" y="1798" width="139" height="50" as="geometry" />
        </mxCell>
        <mxCell id="WlUoZoSoJe3zFZYJtJ5i-293" value="" style="html=1;align=left;spacingLeft=2;endArrow=block;rounded=0;edgeStyle=orthogonalEdgeStyle;curved=0;rounded=0;fillColor=#f8cecc;strokeColor=#000000;" edge="1" parent="1">
          <mxGeometry x="-0.2922" y="20" relative="1" as="geometry">
            <mxPoint x="195" y="1809.0200000000004" as="sourcePoint" />
            <Array as="points">
              <mxPoint x="225" y="1809.0800000000004" />
              <mxPoint x="225" y="1839.0800000000004" />
            </Array>
            <mxPoint x="195" y="1839.0800000000004" as="targetPoint" />
            <mxPoint as="offset" />
          </mxGeometry>
        </mxCell>
        <mxCell id="WlUoZoSoJe3zFZYJtJ5i-294" value="[BIN != BIN Plard]" style="text;html=1;rotation=0;fontColor=#000000;" vertex="1" parent="1">
          <mxGeometry x="70" y="1955" width="100" height="20" as="geometry" />
        </mxCell>
        <mxCell id="WlUoZoSoJe3zFZYJtJ5i-295" value="" style="html=1;points=[[0,0,0,0,5],[0,1,0,0,-5],[1,0,0,0,5],[1,1,0,0,-5]];perimeter=orthogonalPerimeter;outlineConnect=0;targetShapes=umlLifeline;portConstraint=eastwest;newEdgeStyle={&quot;curved&quot;:0,&quot;rounded&quot;:0};" vertex="1" parent="1">
          <mxGeometry x="2344" y="2110" width="10" height="100" as="geometry" />
        </mxCell>
        <mxCell id="WlUoZoSoJe3zFZYJtJ5i-296" value="alt" style="shape=umlFrame;whiteSpace=wrap;html=1;pointerEvents=0;recursiveResize=0;container=1;collapsible=0;width=80;height=15;" vertex="1" parent="1">
          <mxGeometry x="70" y="2241" width="1820" height="281" as="geometry" />
        </mxCell>
        <mxCell id="WlUoZoSoJe3zFZYJtJ5i-297" value="&lt;font style=&quot;font-size: 12px;&quot;&gt;[Response == 4XX]&lt;/font&gt;" style="text;html=1;rotation=0;" vertex="1" parent="WlUoZoSoJe3zFZYJtJ5i-296">
          <mxGeometry width="90" height="23" relative="1" as="geometry">
            <mxPoint x="3" y="30" as="offset" />
          </mxGeometry>
        </mxCell>
        <mxCell id="WlUoZoSoJe3zFZYJtJ5i-298" value="Componente&lt;div&gt;&lt;b&gt;Launcher PLARD&lt;/b&gt;&lt;br&gt;&lt;div&gt;Toma Msj de Error de Redis Streams&lt;/div&gt;&lt;/div&gt;&lt;div&gt;[MPL1]&lt;/div&gt;" style="text;html=1;align=left;verticalAlign=top;whiteSpace=wrap;rounded=0;fontSize=9;" vertex="1" parent="WlUoZoSoJe3zFZYJtJ5i-296">
          <mxGeometry x="1629" y="28" width="151" height="50" as="geometry" />
        </mxCell>
        <mxCell id="WlUoZoSoJe3zFZYJtJ5i-299" value="Componente&lt;div&gt;&lt;b&gt;Launcher PLARD&lt;/b&gt;&lt;br&gt;&lt;div&gt;Realiza la solicitud para consultar las cuentas cargo de la tarjeta débito&lt;/div&gt;&lt;div&gt;[MPL1]&lt;/div&gt;&lt;/div&gt;" style="text;html=1;align=left;verticalAlign=top;whiteSpace=wrap;rounded=0;fontSize=9;" vertex="1" parent="1">
          <mxGeometry x="919" y="2000" width="191" height="57" as="geometry" />
        </mxCell>
        <mxCell id="WlUoZoSoJe3zFZYJtJ5i-300" value="" style="html=1;verticalAlign=bottom;labelBackgroundColor=none;endArrow=block;endFill=1;endSize=6;align=left;rounded=0;" edge="1" parent="1">
          <mxGeometry x="-1" relative="1" as="geometry">
            <mxPoint x="912" y="2063" as="sourcePoint" />
            <mxPoint x="1863" y="2063" as="targetPoint" />
            <mxPoint as="offset" />
          </mxGeometry>
        </mxCell>
        <mxCell id="WlUoZoSoJe3zFZYJtJ5i-301" value="" style="html=1;verticalAlign=bottom;labelBackgroundColor=none;endArrow=none;endFill=0;endSize=6;align=left;rounded=0;startArrow=block;startFill=1;dashed=1;" edge="1" parent="1">
          <mxGeometry x="-1" relative="1" as="geometry">
            <mxPoint x="912" y="2321" as="sourcePoint" />
            <mxPoint x="1863" y="2321" as="targetPoint" />
            <mxPoint as="offset" />
            <Array as="points">
              <mxPoint x="1285" y="2321" />
            </Array>
          </mxGeometry>
        </mxCell>
        <mxCell id="WlUoZoSoJe3zFZYJtJ5i-302" value="Queque&lt;div&gt;&lt;b&gt;MQ 390&lt;/b&gt;&lt;br&gt;&lt;div&gt;Solicita ejecución de la consulta de cuentas cargo de la tarjeta débito&lt;/div&gt;&lt;div&gt;[MPL1]&lt;/div&gt;&lt;/div&gt;" style="text;html=1;align=left;verticalAlign=top;whiteSpace=wrap;rounded=0;fontSize=9;" vertex="1" parent="1">
          <mxGeometry x="1878" y="2058" width="183" height="58" as="geometry" />
        </mxCell>
        <mxCell id="WlUoZoSoJe3zFZYJtJ5i-303" value="" style="html=1;verticalAlign=bottom;labelBackgroundColor=none;endArrow=block;endFill=1;endSize=6;align=left;rounded=0;" edge="1" parent="1">
          <mxGeometry x="-1" relative="1" as="geometry">
            <mxPoint x="1873" y="2121" as="sourcePoint" />
            <mxPoint x="2344" y="2121" as="targetPoint" />
            <mxPoint as="offset" />
          </mxGeometry>
        </mxCell>
        <mxCell id="WlUoZoSoJe3zFZYJtJ5i-304" value="" style="html=1;align=left;spacingLeft=2;endArrow=block;rounded=0;edgeStyle=orthogonalEdgeStyle;curved=0;rounded=0;fillColor=#f8cecc;strokeColor=#000000;" edge="1" parent="1">
          <mxGeometry x="-0.2922" y="20" relative="1" as="geometry">
            <mxPoint x="2354" y="2137.0200000000004" as="sourcePoint" />
            <Array as="points">
              <mxPoint x="2384" y="2137.0800000000004" />
              <mxPoint x="2384" y="2167.0800000000004" />
            </Array>
            <mxPoint x="2354" y="2167.0800000000004" as="targetPoint" />
            <mxPoint as="offset" />
          </mxGeometry>
        </mxCell>
        <mxCell id="WlUoZoSoJe3zFZYJtJ5i-306" value="" style="html=1;verticalAlign=bottom;labelBackgroundColor=none;endArrow=none;endFill=0;endSize=6;align=left;rounded=0;startArrow=block;startFill=1;dashed=1;" edge="1" parent="1">
          <mxGeometry x="-1" relative="1" as="geometry">
            <mxPoint x="1873" y="2202" as="sourcePoint" />
            <mxPoint x="2343" y="2202" as="targetPoint" />
            <mxPoint as="offset" />
            <Array as="points">
              <mxPoint x="2005" y="2202" />
            </Array>
          </mxGeometry>
        </mxCell>
        <mxCell id="WlUoZoSoJe3zFZYJtJ5i-308" value="Queque&amp;nbsp;&lt;div&gt;&lt;b&gt;MQ Canal&lt;/b&gt;&lt;div&gt;Recibe Msj de Error&lt;/div&gt;&lt;/div&gt;" style="text;html=1;align=left;verticalAlign=top;whiteSpace=wrap;rounded=0;fontSize=9;" vertex="1" parent="1">
          <mxGeometry x="806" y="2308" width="90" height="43" as="geometry" />
        </mxCell>
        <mxCell id="WlUoZoSoJe3zFZYJtJ5i-309" value="&lt;b&gt;Ejecutivo Santander&lt;/b&gt;&lt;div&gt;Visualiza Msj de Error&lt;/div&gt;" style="text;html=1;align=left;verticalAlign=top;whiteSpace=wrap;rounded=0;fontSize=9;" vertex="1" parent="1">
          <mxGeometry x="231" y="2450" width="109" height="37" as="geometry" />
        </mxCell>
        <mxCell id="WlUoZoSoJe3zFZYJtJ5i-310" value="" style="html=1;align=left;spacingLeft=2;endArrow=block;rounded=0;edgeStyle=orthogonalEdgeStyle;curved=0;rounded=0;fillColor=#f8cecc;strokeColor=#000000;" edge="1" parent="1">
          <mxGeometry x="-0.2922" y="20" relative="1" as="geometry">
            <mxPoint x="195" y="2455.0200000000004" as="sourcePoint" />
            <Array as="points">
              <mxPoint x="225" y="2455.0800000000004" />
              <mxPoint x="225" y="2485.0800000000004" />
            </Array>
            <mxPoint x="195" y="2485.0800000000004" as="targetPoint" />
            <mxPoint as="offset" />
          </mxGeometry>
        </mxCell>
        <mxCell id="WlUoZoSoJe3zFZYJtJ5i-311" value="Canal&amp;nbsp;&lt;div&gt;&lt;b&gt;Front MDP&lt;/b&gt;&lt;div&gt;Retorna Msj de Error&lt;/div&gt;&lt;/div&gt;" style="text;html=1;align=left;verticalAlign=top;whiteSpace=wrap;rounded=0;fontSize=9;" vertex="1" parent="1">
          <mxGeometry x="320" y="2371" width="90" height="44" as="geometry" />
        </mxCell>
        <mxCell id="WlUoZoSoJe3zFZYJtJ5i-312" value="" style="html=1;verticalAlign=bottom;labelBackgroundColor=none;endArrow=none;endFill=0;endSize=6;align=left;rounded=0;startArrow=block;startFill=1;dashed=1;" edge="1" parent="1">
          <mxGeometry x="-1" relative="1" as="geometry">
            <mxPoint x="195" y="2415" as="sourcePoint" />
            <mxPoint x="425" y="2415" as="targetPoint" />
            <mxPoint as="offset" />
            <Array as="points">
              <mxPoint x="395" y="2415" />
            </Array>
          </mxGeometry>
        </mxCell>
        <mxCell id="WlUoZoSoJe3zFZYJtJ5i-313" value="" style="html=1;verticalAlign=bottom;labelBackgroundColor=none;endArrow=none;endFill=0;endSize=6;align=left;rounded=0;startArrow=block;startFill=1;dashed=1;" edge="1" parent="1">
          <mxGeometry x="-1" relative="1" as="geometry">
            <mxPoint x="435" y="2382" as="sourcePoint" />
            <mxPoint x="662" y="2382" as="targetPoint" />
            <mxPoint as="offset" />
            <Array as="points">
              <mxPoint x="635" y="2382" />
            </Array>
          </mxGeometry>
        </mxCell>
        <mxCell id="WlUoZoSoJe3zFZYJtJ5i-314" value="Canal&amp;nbsp;&lt;div&gt;&lt;b&gt;Front MDP&lt;/b&gt;&lt;div&gt;Recibe Msj de Error&lt;/div&gt;&lt;/div&gt;" style="text;html=1;align=left;verticalAlign=top;whiteSpace=wrap;rounded=0;fontSize=9;" vertex="1" parent="1">
          <mxGeometry x="565" y="2336" width="90" height="44" as="geometry" />
        </mxCell>
        <mxCell id="WlUoZoSoJe3zFZYJtJ5i-315" value="" style="html=1;verticalAlign=bottom;labelBackgroundColor=none;endArrow=none;endFill=0;endSize=6;align=left;rounded=0;startArrow=block;startFill=1;dashed=1;" edge="1" parent="1">
          <mxGeometry x="-1" relative="1" as="geometry">
            <mxPoint x="673" y="2352" as="sourcePoint" />
            <mxPoint x="900" y="2352" as="targetPoint" />
            <mxPoint as="offset" />
            <Array as="points">
              <mxPoint x="873" y="2352" />
            </Array>
          </mxGeometry>
        </mxCell>
        <mxCell id="WlUoZoSoJe3zFZYJtJ5i-316" value="" style="html=1;verticalAlign=bottom;labelBackgroundColor=none;endArrow=none;endFill=0;endSize=6;align=left;rounded=0;startArrow=block;startFill=1;dashed=1;" edge="1" parent="1">
          <mxGeometry x="-1" relative="1" as="geometry">
            <mxPoint x="913" y="2649" as="sourcePoint" />
            <mxPoint x="1864" y="2649" as="targetPoint" />
            <mxPoint as="offset" />
            <Array as="points">
              <mxPoint x="1286" y="2649" />
            </Array>
          </mxGeometry>
        </mxCell>
        <mxCell id="WlUoZoSoJe3zFZYJtJ5i-317" value="Queque&amp;nbsp;&lt;div&gt;&lt;b&gt;MQ Canal&lt;/b&gt;&lt;div&gt;Recibe&amp;nbsp;&lt;span style=&quot;background-color: transparent; color: light-dark(rgb(0, 0, 0), rgb(255, 255, 255));&quot;&gt;respuesta&amp;nbsp;&lt;/span&gt;&lt;span style=&quot;background-color: transparent; color: light-dark(rgb(0, 0, 0), rgb(255, 255, 255));&quot;&gt;de la consulta de cuentas cargo de la tarjeta débito&lt;/span&gt;&lt;/div&gt;&lt;div&gt;[MPL1]&lt;/div&gt;&lt;/div&gt;" style="text;html=1;align=left;verticalAlign=top;whiteSpace=wrap;rounded=0;fontSize=9;" vertex="1" parent="1">
          <mxGeometry x="723" y="2640" width="176" height="61" as="geometry" />
        </mxCell>
        <mxCell id="WlUoZoSoJe3zFZYJtJ5i-318" value="" style="html=1;verticalAlign=bottom;labelBackgroundColor=none;endArrow=none;endFill=0;endSize=6;align=left;rounded=0;startArrow=block;startFill=1;dashed=1;" edge="1" parent="1">
          <mxGeometry x="-1" relative="1" as="geometry">
            <mxPoint x="673" y="2703" as="sourcePoint" />
            <mxPoint x="900" y="2703" as="targetPoint" />
            <mxPoint as="offset" />
            <Array as="points">
              <mxPoint x="873" y="2703" />
            </Array>
          </mxGeometry>
        </mxCell>
        <mxCell id="WlUoZoSoJe3zFZYJtJ5i-319" value="" style="html=1;verticalAlign=bottom;labelBackgroundColor=none;endArrow=none;endFill=0;endSize=6;align=left;rounded=0;startArrow=block;startFill=1;dashed=1;" edge="1" parent="1">
          <mxGeometry x="-1" relative="1" as="geometry">
            <mxPoint x="435" y="2753" as="sourcePoint" />
            <mxPoint x="662" y="2753" as="targetPoint" />
            <mxPoint as="offset" />
            <Array as="points">
              <mxPoint x="635" y="2753" />
            </Array>
          </mxGeometry>
        </mxCell>
        <mxCell id="WlUoZoSoJe3zFZYJtJ5i-320" value="Canal&amp;nbsp;&lt;div&gt;&lt;b&gt;Front MDP&lt;/b&gt;&lt;div&gt;&lt;div&gt;Recibe&amp;nbsp;&lt;span style=&quot;background-color: transparent; color: light-dark(rgb(0, 0, 0), rgb(255, 255, 255));&quot;&gt;respuesta&amp;nbsp;&lt;/span&gt;&lt;span style=&quot;background-color: transparent; color: light-dark(rgb(0, 0, 0), rgb(255, 255, 255));&quot;&gt;de la consulta de cuentas cargo de la tarjeta débito&lt;/span&gt;&lt;/div&gt;&lt;div&gt;[MPL1]&lt;/div&gt;&lt;/div&gt;&lt;/div&gt;" style="text;html=1;align=left;verticalAlign=top;whiteSpace=wrap;rounded=0;fontSize=9;" vertex="1" parent="1">
          <mxGeometry x="475" y="2692" width="185" height="47" as="geometry" />
        </mxCell>
        <mxCell id="WlUoZoSoJe3zFZYJtJ5i-321" value="Componente&lt;div&gt;&lt;b&gt;Launcher PLARD&lt;/b&gt;&lt;br&gt;&lt;div&gt;Recibe respuesta&amp;nbsp;&lt;span style=&quot;background-color: transparent; color: light-dark(rgb(0, 0, 0), rgb(255, 255, 255));&quot;&gt;de la consulta de cuentas cargo de la tarjeta débito&lt;/span&gt;&lt;/div&gt;&lt;div&gt;[MPL1]&lt;/div&gt;&lt;/div&gt;" style="text;html=1;align=left;verticalAlign=top;whiteSpace=wrap;rounded=0;fontSize=9;" vertex="1" parent="1">
          <mxGeometry x="1671" y="2584" width="171" height="65" as="geometry" />
        </mxCell>
        <mxCell id="WlUoZoSoJe3zFZYJtJ5i-322" value="Canal&amp;nbsp;&lt;div&gt;&lt;b&gt;Front MDP&lt;/b&gt;&lt;div&gt;Presenta en pantalla los datos de la tarjeta.&lt;/div&gt;&lt;/div&gt;&lt;div&gt;[MPL1]&lt;/div&gt;" style="text;html=1;align=left;verticalAlign=top;whiteSpace=wrap;rounded=0;fontSize=9;" vertex="1" parent="1">
          <mxGeometry x="240" y="2741" width="182" height="51" as="geometry" />
        </mxCell>
        <mxCell id="WlUoZoSoJe3zFZYJtJ5i-323" value="" style="html=1;verticalAlign=bottom;labelBackgroundColor=none;endArrow=none;endFill=0;endSize=6;align=left;rounded=0;startArrow=block;startFill=1;dashed=1;" edge="1" parent="1">
          <mxGeometry x="-1" relative="1" as="geometry">
            <mxPoint x="195" y="2796" as="sourcePoint" />
            <mxPoint x="425" y="2796" as="targetPoint" />
            <mxPoint as="offset" />
            <Array as="points">
              <mxPoint x="395" y="2796" />
            </Array>
          </mxGeometry>
        </mxCell>
        <mxCell id="WlUoZoSoJe3zFZYJtJ5i-324" value="&lt;b&gt;Ejecutivo Santander&lt;/b&gt;&lt;div&gt;Visualiza la consulta de la cuenta cargo asociada a la tarjeta de débito&lt;/div&gt;" style="text;html=1;align=left;verticalAlign=top;whiteSpace=wrap;rounded=0;fontSize=9;" vertex="1" parent="1">
          <mxGeometry x="231" y="2849" width="139" height="50" as="geometry" />
        </mxCell>
        <mxCell id="WlUoZoSoJe3zFZYJtJ5i-325" value="" style="html=1;align=left;spacingLeft=2;endArrow=block;rounded=0;edgeStyle=orthogonalEdgeStyle;curved=0;rounded=0;fillColor=#f8cecc;strokeColor=#000000;" edge="1" parent="1">
          <mxGeometry x="-0.2922" y="20" relative="1" as="geometry">
            <mxPoint x="195" y="2859.0200000000004" as="sourcePoint" />
            <Array as="points">
              <mxPoint x="225" y="2859.0800000000004" />
              <mxPoint x="225" y="2889.0800000000004" />
            </Array>
            <mxPoint x="195" y="2889.0800000000004" as="targetPoint" />
            <mxPoint as="offset" />
          </mxGeometry>
        </mxCell>
        <mxCell id="aG1EKJKOpwP7Z9-2mD6k-1" value="&lt;div style=&quot;&quot;&gt;&lt;b style=&quot;font-size: 13px;&quot;&gt;Escenario 1: &lt;/b&gt;&lt;font size=&quot;1&quot; style=&quot;&quot;&gt;&lt;b style=&quot;font-size: 13px;&quot;&gt;Consulta las cuentas cargo de una tarjeta Trx MPL1&lt;/b&gt;&lt;/font&gt;&lt;/div&gt;&lt;div style=&quot;font-size: 13px;&quot;&gt;&lt;br&gt;&lt;/div&gt;&lt;div style=&quot;&quot;&gt;El Ejecutivo Santander&amp;nbsp;&lt;span style=&quot;background-color: transparent; color: light-dark(rgb(0, 0, 0), rgb(255, 255, 255));&quot;&gt;ingresa al Front Medios de Pago, dentro de la pantalla de Mantenimiento Tarjeta, &lt;/span&gt;&lt;span style=&quot;background-color: transparent; color: light-dark(rgb(0, 0, 0), rgb(255, 255, 255));&quot;&gt;selecciona el menú Titulares -&amp;gt; Tarjeta -&amp;gt; Mantenimiento&lt;/span&gt;&lt;/div&gt;&lt;div style=&quot;&quot;&gt;&lt;br&gt;&lt;/div&gt;&lt;div style=&quot;&quot;&gt;El criterio de búsqueda es por PAN, se muestra la información:&lt;/div&gt;&lt;div style=&quot;&quot;&gt;&lt;ul&gt;&lt;li&gt;Orden&lt;/li&gt;&lt;li&gt;Cuenta Cargo&lt;/li&gt;&lt;li&gt;Activo-Pasivo&lt;/li&gt;&lt;li&gt;Moneda&lt;/li&gt;&lt;li&gt;Check para indicar si es Ajena&lt;/li&gt;&lt;li&gt;Tipo&lt;/li&gt;&lt;li&gt;Producto-Subproducto&lt;/li&gt;&lt;li&gt;Fecha alta&lt;/li&gt;&lt;li&gt;Fecha baja&amp;nbsp;&lt;/li&gt;&lt;/ul&gt;&lt;/div&gt;" style="text;html=1;strokeColor=default;fillColor=none;align=left;verticalAlign=top;whiteSpace=wrap;rounded=0;fontSize=12;strokeWidth=1;" vertex="1" parent="1">
          <mxGeometry x="7" y="-169" width="513" height="249" as="geometry" />
        </mxCell>
        <mxCell id="aG1EKJKOpwP7Z9-2mD6k-2" value="&lt;div style=&quot;&quot;&gt;&lt;b style=&quot;font-size: 12px;&quot;&gt;Funcionalidad:&lt;/b&gt;&lt;span style=&quot;font-size: 12px;&quot;&gt;&lt;span style=&quot;&quot;&gt;&amp;nbsp;Transacción MPL1 Consulta cuentas captación relacionadas a una tarjeta&lt;/span&gt;&lt;/span&gt;&lt;/div&gt;&lt;div style=&quot;&quot;&gt;&lt;span style=&quot;font-size: 12px;&quot;&gt;&lt;span style=&quot;&quot;&gt;&lt;br&gt;&lt;/span&gt;&lt;/span&gt;&lt;/div&gt;&lt;div style=&quot;&quot;&gt;&lt;b style=&quot;font-size: 12px;&quot;&gt;Alcance&lt;/b&gt;: MPV-Full Debit&amp;nbsp;&amp;nbsp;- Esta transacción permite consultar a través del PAN datos de la cuenta cargo de una tarjeta&lt;/div&gt;&lt;div style=&quot;font-size: 12px;&quot;&gt;&lt;br&gt;&lt;/div&gt;&lt;div style=&quot;font-size: 12px;&quot;&gt;&lt;div&gt;&lt;b&gt;Reglas de Negocio:&lt;/b&gt;&amp;nbsp;&lt;/div&gt;&lt;div&gt;&lt;ul&gt;&lt;li&gt;No identificadas&lt;/li&gt;&lt;/ul&gt;&lt;div&gt;&lt;b style=&quot;background-color: initial;&quot;&gt;Precondiciones:&lt;/b&gt;&lt;br&gt;&lt;/div&gt;&lt;/div&gt;&lt;/div&gt;&lt;div style=&quot;&quot;&gt;&lt;ul&gt;&lt;li&gt;Tener una Tarjeta de débito&lt;/li&gt;&lt;li&gt;El ejecutivo Santander debe contar con acceso al Front MDP&lt;/li&gt;&lt;li&gt;Debe existir una tarjeta de débito que tenga cuenta de cargo a consultar&lt;/li&gt;&lt;/ul&gt;&lt;/div&gt;&lt;div style=&quot;&quot;&gt;&lt;br&gt;&lt;/div&gt;&lt;div style=&quot;&quot;&gt;&lt;b style=&quot;background-color: initial;&quot;&gt;Post-Condiciones:&amp;nbsp;&lt;/b&gt;&lt;br&gt;&lt;/div&gt;&lt;div style=&quot;&quot;&gt;&lt;ul&gt;&lt;li&gt;El ejecutivo consulta los datos de la cuenta cargo que tiene la tarjeta&lt;/li&gt;&lt;/ul&gt;&lt;/div&gt;" style="text;html=1;align=left;verticalAlign=top;whiteSpace=wrap;rounded=0;fontSize=12;strokeColor=default;" vertex="1" parent="1">
          <mxGeometry x="10" y="-548" width="510" height="304" as="geometry" />
        </mxCell>
        <mxCell id="aG1EKJKOpwP7Z9-2mD6k-3" value="Funcionalidad" style="rounded=0;whiteSpace=wrap;html=1;fontSize=14;fontStyle=1;fillColor=#bac8d3;strokeColor=#23445d;" vertex="1" parent="1">
          <mxGeometry x="10" y="-589" width="510" height="40" as="geometry" />
        </mxCell>
        <mxCell id="aG1EKJKOpwP7Z9-2mD6k-4" value="&lt;div style=&quot;font-size: medium; text-align: start;&quot; data-ccp-timestamp=&quot;1746605294222&quot;&gt;&lt;table style=&quot;border-collapse: collapse; width: 1004pt;&quot; width=&quot;1338&quot;&gt;&lt;colgroup&gt;&lt;col style=&quot;width: 62pt;&quot; width=&quot;83&quot;&gt;&lt;col style=&quot;width: 106pt;&quot; width=&quot;141&quot;&gt;&lt;col style=&quot;width: 33pt;&quot; width=&quot;44&quot;&gt;&lt;col style=&quot;width: 129pt;&quot; width=&quot;172&quot;&gt;&lt;col style=&quot;width: 23pt;&quot; width=&quot;31&quot;&gt;&lt;col style=&quot;width: 39pt;&quot; width=&quot;52&quot;&gt;&lt;col style=&quot;width: 163pt;&quot; width=&quot;217&quot;&gt;&lt;col style=&quot;width: 48pt;&quot; width=&quot;64&quot;&gt;&lt;col style=&quot;width: 130pt;&quot; width=&quot;173&quot;&gt;&lt;col style=&quot;width: 107pt;&quot; width=&quot;143&quot;&gt;&lt;col style=&quot;width: 164pt;&quot; width=&quot;218&quot;&gt;&lt;/colgroup&gt;&lt;tbody&gt;&lt;tr style=&quot;height: 15pt;&quot; height=&quot;20&quot;&gt;&lt;td style=&quot;padding-top: 1px; padding-right: 1px; padding-left: 1px; font-size: 8pt; font-weight: 700; font-family: Calibri, sans-serif; vertical-align: middle; border-top: 0.5pt solid black; border-right: 0.5pt solid black; border-bottom: none; border-left: 0.5pt solid black; border-image: initial; text-wrap: nowrap; background: rgb(217, 225, 242); width: 62pt; height: 15pt;&quot; class=&quot;xl238&quot; height=&quot;20&quot; width=&quot;83&quot;&gt;API&lt;/td&gt;&lt;td style=&quot;padding-top: 1px; padding-right: 1px; padding-left: 1px; font-size: 8pt; font-weight: 700; font-family: Calibri, sans-serif; vertical-align: middle; border-top: 0.5pt solid black; border-right: 0.5pt solid black; border-bottom: none; border-left: 0.5pt solid black; border-image: initial; text-wrap: nowrap; background: rgb(217, 225, 242); width: 106pt;&quot; class=&quot;xl238&quot; width=&quot;141&quot;&gt;Endpoint&lt;/td&gt;&lt;td style=&quot;padding-top: 1px; padding-right: 1px; padding-left: 1px; font-size: 8pt; font-weight: 700; font-family: Calibri, sans-serif; vertical-align: middle; border-top: 0.5pt solid black; border-right: 0.5pt solid black; border-bottom: none; border-left: 0.5pt solid black; border-image: initial; text-wrap: nowrap; text-align: center; background: rgb(217, 225, 242); width: 33pt;&quot; class=&quot;xl250&quot; width=&quot;44&quot;&gt;Método&lt;/td&gt;&lt;td style=&quot;padding-top: 1px; padding-right: 1px; padding-left: 1px; font-size: 8pt; font-weight: 700; font-family: Calibri, sans-serif; vertical-align: middle; border-top: 0.5pt solid black; border-right: 0.5pt solid black; border-bottom: none; border-left: 0.5pt solid black; border-image: initial; text-wrap: nowrap; background: rgb(217, 225, 242); width: 129pt;&quot; class=&quot;xl238&quot; width=&quot;172&quot;&gt;Campo&lt;/td&gt;&lt;td style=&quot;padding-top: 1px; padding-right: 1px; padding-left: 1px; font-size: 8pt; font-weight: 700; font-family: Calibri, sans-serif; vertical-align: middle; border-top: 0.5pt solid black; border-right: 0.5pt solid black; border-bottom: none; border-left: 0.5pt solid black; border-image: initial; text-wrap: nowrap; text-align: center; background: rgb(217, 225, 242); width: 23pt;&quot; class=&quot;xl250&quot; width=&quot;31&quot;&gt;LNG&lt;/td&gt;&lt;td style=&quot;padding-top: 1px; padding-right: 1px; padding-left: 1px; font-size: 8pt; font-weight: 700; font-family: Calibri, sans-serif; vertical-align: middle; border-top: 0.5pt solid black; border-right: 0.5pt solid black; border-bottom: none; border-left: 0.5pt solid black; border-image: initial; text-wrap: nowrap; background: rgb(217, 225, 242); width: 39pt;&quot; class=&quot;xl238&quot; width=&quot;52&quot;&gt;TIPO&lt;/td&gt;&lt;td style=&quot;padding-top: 1px; padding-right: 1px; padding-left: 1px; font-size: 8pt; font-weight: 700; font-family: Calibri, sans-serif; vertical-align: middle; border-top: 0.5pt solid black; border-right: 0.5pt solid black; border-bottom: none; border-left: 0.5pt solid black; border-image: initial; background: rgb(217, 225, 242); width: 163pt;&quot; class=&quot;xl239&quot; width=&quot;217&quot;&gt;DESCRIPCIÓN&lt;/td&gt;&lt;td style=&quot;padding-top: 1px; padding-right: 1px; padding-left: 1px; font-size: 8pt; font-weight: 700; font-family: Calibri, sans-serif; vertical-align: middle; border-top: 0.5pt solid black; border-right: 0.5pt solid black; border-bottom: none; border-left: 0.5pt solid black; border-image: initial; text-wrap: nowrap; background: rgb(217, 225, 242); width: 48pt;&quot; class=&quot;xl238&quot; width=&quot;64&quot;&gt;USO&lt;/td&gt;&lt;td style=&quot;padding-top: 1px; padding-right: 1px; padding-left: 1px; font-size: 8pt; font-weight: 700; font-family: Calibri, sans-serif; vertical-align: middle; border-top: 0.5pt solid black; border-right: 0.5pt solid black; border-bottom: none; border-left: 0.5pt solid black; border-image: initial; background: rgb(217, 225, 242); width: 130pt;&quot; class=&quot;xl239&quot; width=&quot;173&quot;&gt;OBSERVACIONES&lt;/td&gt;&lt;td style=&quot;padding-top: 1px; padding-right: 1px; padding-left: 1px; font-size: 8pt; font-weight: 700; font-family: Calibri, sans-serif; vertical-align: middle; border-top: 0.5pt solid windowtext; border-right: 0.5pt solid windowtext; border-bottom: none; border-left: none; border-image: initial; text-wrap: nowrap; background: rgb(217, 225, 242); width: 107pt;&quot; class=&quot;xl240&quot; width=&quot;143&quot;&gt;FORMATO&lt;/td&gt;&lt;td style=&quot;padding-top: 1px; padding-right: 1px; padding-left: 1px; font-size: 8pt; font-weight: 700; font-family: Calibri; vertical-align: middle; border-top: 0.5pt solid windowtext; border-right: 0.5pt solid windowtext; border-bottom: none; border-left: none; border-image: initial; text-wrap: nowrap; background: rgb(217, 225, 242); width: 164pt;&quot; class=&quot;xl241&quot; width=&quot;218&quot;&gt;Reglas de Mapeo&lt;/td&gt;&lt;/tr&gt;&lt;tr style=&quot;height: 81pt;&quot; height=&quot;108&quot;&gt;&lt;td style=&quot;padding-top: 1px; padding-right: 1px; padding-left: 1px; font-size: 8pt; font-family: Calibri, sans-serif; vertical-align: middle; border: 0.5pt solid black; text-wrap: nowrap; height: 81pt;&quot; class=&quot;xl242&quot; height=&quot;108&quot;&gt;Device Life Cycle&lt;/td&gt;&lt;td style=&quot;padding-top: 1px; padding-right: 1px; padding-left: 1px; font-size: 8pt; font-family: Calibri, sans-serif; vertical-align: middle; border: 0.5pt solid black; text-wrap: nowrap;&quot; class=&quot;xl242&quot;&gt;/life-cycle/v4/devices/details&lt;/td&gt;&lt;td style=&quot;padding-top: 1px; padding-right: 1px; padding-left: 1px; font-size: 8pt; font-family: Calibri, sans-serif; vertical-align: middle; border: 0.5pt solid black; text-wrap: nowrap; text-align: center;&quot; class=&quot;xl251&quot;&gt;GET&lt;/td&gt;&lt;td style=&quot;padding-top: 1px; padding-right: 1px; padding-left: 1px; font-size: 8pt; font-family: Calibri, sans-serif; vertical-align: middle; border: 0.5pt solid black; text-wrap: nowrap;&quot; class=&quot;xl242&quot;&gt;&lt;b&gt;deviceId&lt;/b&gt;&lt;/td&gt;&lt;td style=&quot;padding-top: 1px; padding-right: 1px; padding-left: 1px; font-size: 8pt; font-family: Calibri, sans-serif; vertical-align: middle; border: 0.5pt solid black; text-wrap: nowrap; text-align: center;&quot; class=&quot;xl251&quot;&gt;&lt;b&gt;60&lt;/b&gt;&lt;/td&gt;&lt;td style=&quot;padding-top: 1px; padding-right: 1px; padding-left: 1px; font-size: 8pt; font-family: Calibri, sans-serif; vertical-align: middle; border: 0.5pt solid black; width: 39pt;&quot; class=&quot;xl243&quot; width=&quot;52&quot;&gt;&lt;b&gt;string&lt;br&gt;(header)&lt;/b&gt;&lt;/td&gt;&lt;td style=&quot;padding-top: 1px; padding-right: 1px; padding-left: 1px; font-size: 8pt; font-family: Calibri, sans-serif; vertical-align: middle; border: 0.5pt solid black; width: 163pt;&quot; class=&quot;xl243&quot; width=&quot;217&quot;&gt;&lt;b&gt;device code&lt;/b&gt;&lt;/td&gt;&lt;td style=&quot;padding-top: 1px; padding-right: 1px; padding-left: 1px; font-size: 8pt; font-family: Calibri, sans-serif; vertical-align: middle; border: 0.5pt solid black; width: 48pt;&quot; class=&quot;xl243&quot; width=&quot;64&quot;&gt;&lt;b&gt;Entrada&lt;br&gt;Requerido&lt;/b&gt;&lt;/td&gt;&lt;td style=&quot;padding-top: 1px; padding-right: 1px; padding-left: 1px; font-size: 8pt; font-family: Calibri, sans-serif; vertical-align: middle; border: 0.5pt solid black; width: 130pt;&quot; class=&quot;xl243&quot; width=&quot;173&quot;&gt;Se obtiene de un campo de entrada en el mensaje de Redis&lt;/td&gt;&lt;td style=&quot;padding-top: 1px; padding-right: 1px; padding-left: 1px; color: red; font-size: 8pt; font-family: Calibri, sans-serif; vertical-align: middle; border: 0.5pt solid black; text-wrap: nowrap;&quot; class=&quot;xl244&quot;&gt;&lt;/td&gt;&lt;td style=&quot;padding-top: 1px; padding-right: 1px; padding-left: 1px; font-size: 8pt; font-family: Calibri; vertical-align: middle; border: 0.5pt solid black; background: white; width: 164pt;&quot; class=&quot;xl245&quot; width=&quot;218&quot;&gt;searchContractIndicator (query) = true&lt;br&gt;searchSubContractIndicator (query) = true&lt;br&gt;searchBlockIndicator (query) = false&lt;br&gt;searchCcIndicator (query) = true&lt;br&gt;searchContractBlockIndicator(query)&amp;nbsp; = false&lt;br&gt;searchSubContractBlockIndicator (query) = false&lt;/td&gt;&lt;/tr&gt;&lt;tr style=&quot;height: 34.5pt;&quot; height=&quot;46&quot;&gt;&lt;td style=&quot;padding-top: 1px; padding-right: 1px; padding-left: 1px; font-size: 8pt; font-family: Calibri, sans-serif; vertical-align: middle; border: 0.5pt solid black; text-wrap: nowrap; height: 34.5pt;&quot; class=&quot;xl246&quot; height=&quot;46&quot;&gt;Device Life Cycle&lt;/td&gt;&lt;td style=&quot;padding-top: 1px; padding-right: 1px; padding-left: 1px; font-size: 8pt; font-family: Calibri, sans-serif; vertical-align: middle; border: 0.5pt solid black; text-wrap: nowrap;&quot; class=&quot;xl246&quot;&gt;/life-cycle/v4/devices/details&lt;/td&gt;&lt;td style=&quot;padding-top: 1px; padding-right: 1px; padding-left: 1px; font-size: 8pt; font-family: Calibri, sans-serif; vertical-align: middle; border: 0.5pt solid black; text-wrap: nowrap; text-align: center;&quot; class=&quot;xl252&quot;&gt;GET&lt;/td&gt;&lt;td style=&quot;padding-top: 1px; padding-right: 1px; padding-left: 1px; font-size: 8pt; font-family: Calibri, sans-serif; vertical-align: middle; border: 0.5pt solid black; text-wrap: nowrap;&quot; class=&quot;xl246&quot;&gt;accounts[].mainAccountIndicator&lt;/td&gt;&lt;td style=&quot;padding-top: 1px; padding-right: 1px; padding-left: 1px; font-size: 8pt; font-family: Calibri, sans-serif; vertical-align: middle; border: 0.5pt solid black; text-wrap: nowrap; text-align: center;&quot; class=&quot;xl252&quot;&gt;50&lt;/td&gt;&lt;td style=&quot;padding-top: 1px; padding-right: 1px; padding-left: 1px; font-size: 8pt; font-family: Calibri, sans-serif; vertical-align: middle; border: 0.5pt solid black; text-wrap: nowrap;&quot; class=&quot;xl246&quot;&gt;string&lt;/td&gt;&lt;td style=&quot;padding-top: 1px; padding-right: 1px; padding-left: 1px; font-size: 8pt; font-family: Calibri, sans-serif; vertical-align: middle; border: 0.5pt solid black; width: 163pt;&quot; class=&quot;xl247&quot; width=&quot;217&quot;&gt;Field that identifies the Main Account Indicator&lt;/td&gt;&lt;td style=&quot;padding-top: 1px; padding-right: 1px; padding-left: 1px; font-size: 8pt; font-family: Calibri, sans-serif; vertical-align: middle; border: 0.5pt solid black; text-wrap: nowrap;&quot; class=&quot;xl246&quot;&gt;&lt;/td&gt;&lt;td style=&quot;padding-top: 1px; padding-right: 1px; padding-left: 1px; font-size: 8pt; font-family: Calibri, sans-serif; vertical-align: middle; border: 0.5pt solid black; width: 130pt;&quot; class=&quot;xl247&quot; width=&quot;173&quot;&gt;Se pretende informar si es P. Principal o A. Adicional, actualmente siempre se maneja P.&lt;/td&gt;&lt;td style=&quot;padding-top: 1px; padding-right: 1px; padding-left: 1px; font-size: 8pt; font-family: Calibri, sans-serif; vertical-align: middle; border: 0.5pt solid black; text-wrap: nowrap;&quot; class=&quot;xl246&quot;&gt;&lt;/td&gt;&lt;td style=&quot;padding-top: 1px; padding-right: 1px; padding-left: 1px; font-size: 8pt; font-family: Calibri; vertical-align: middle; border: 0.5pt solid black; background: white; width: 164pt;&quot; class=&quot;xl245&quot; width=&quot;218&quot;&gt;Mapear P como una constante&lt;/td&gt;&lt;/tr&gt;&lt;tr style=&quot;height: 15pt;&quot; height=&quot;20&quot;&gt;&lt;td style=&quot;padding-top: 1px; padding-right: 1px; padding-left: 1px; font-size: 8pt; font-family: Calibri, sans-serif; vertical-align: middle; border: 0.5pt solid black; text-wrap: nowrap; height: 15pt;&quot; class=&quot;xl246&quot; height=&quot;20&quot;&gt;NA&lt;/td&gt;&lt;td style=&quot;padding-top: 1px; padding-right: 1px; padding-left: 1px; font-size: 8pt; font-family: Calibri, sans-serif; vertical-align: middle; border: 0.5pt solid black; text-wrap: nowrap;&quot; class=&quot;xl246&quot;&gt;&lt;/td&gt;&lt;td style=&quot;padding-top: 1px; padding-right: 1px; padding-left: 1px; font-size: 8pt; font-family: Calibri, sans-serif; vertical-align: middle; border: 0.5pt solid black; text-wrap: nowrap; text-align: center;&quot; class=&quot;xl252&quot;&gt;&lt;/td&gt;&lt;td style=&quot;padding-top: 1px; padding-right: 1px; padding-left: 1px; font-size: 8pt; font-family: Calibri, sans-serif; vertical-align: middle; border: 0.5pt solid black; text-wrap: nowrap;&quot; class=&quot;xl246&quot;&gt;&lt;/td&gt;&lt;td style=&quot;padding-top: 1px; padding-right: 1px; padding-left: 1px; font-size: 8pt; font-family: Calibri, sans-serif; vertical-align: middle; border: 0.5pt solid black; text-wrap: nowrap; text-align: center;&quot; class=&quot;xl252&quot;&gt;&lt;/td&gt;&lt;td style=&quot;padding-top: 1px; padding-right: 1px; padding-left: 1px; font-size: 8pt; font-family: Calibri, sans-serif; vertical-align: middle; border: 0.5pt solid black; text-wrap: nowrap;&quot; class=&quot;xl246&quot;&gt;&lt;/td&gt;&lt;td style=&quot;padding-top: 1px; padding-right: 1px; padding-left: 1px; font-size: 8pt; font-family: Calibri, sans-serif; vertical-align: middle; border: 0.5pt solid black; width: 163pt;&quot; class=&quot;xl247&quot; width=&quot;217&quot;&gt;No mapping, no lo usa el API Plard&lt;/td&gt;&lt;td style=&quot;padding-top: 1px; padding-right: 1px; padding-left: 1px; font-size: 8pt; font-family: Calibri, sans-serif; vertical-align: middle; border: 0.5pt solid black; text-wrap: nowrap;&quot; class=&quot;xl246&quot;&gt;&lt;/td&gt;&lt;td style=&quot;padding-top: 1px; padding-right: 1px; padding-left: 1px; font-size: 8pt; font-family: Calibri, sans-serif; vertical-align: middle; border: 0.5pt solid black; width: 130pt;&quot; class=&quot;xl247&quot; width=&quot;173&quot;&gt;Llenar con espacios&lt;/td&gt;&lt;td style=&quot;padding-top: 1px; padding-right: 1px; padding-left: 1px; font-size: 8pt; font-family: Calibri, sans-serif; vertical-align: middle; border: 0.5pt solid black; text-wrap: nowrap;&quot; class=&quot;xl246&quot;&gt;&lt;/td&gt;&lt;td style=&quot;padding-top: 1px; padding-right: 1px; padding-left: 1px; font-size: 8pt; font-family: Calibri; vertical-align: middle; border: 0.5pt solid black; background: white; width: 164pt;&quot; class=&quot;xl245&quot; width=&quot;218&quot;&gt;Llenar con espacios&lt;/td&gt;&lt;/tr&gt;&lt;tr style=&quot;height: 34.5pt;&quot; height=&quot;46&quot;&gt;&lt;td style=&quot;padding-top: 1px; padding-right: 1px; padding-left: 1px; font-size: 8pt; font-family: Calibri, sans-serif; vertical-align: middle; border: 0.5pt solid black; text-wrap: nowrap; height: 34.5pt;&quot; class=&quot;xl246&quot; height=&quot;46&quot;&gt;Device Life Cycle&lt;/td&gt;&lt;td style=&quot;padding-top: 1px; padding-right: 1px; padding-left: 1px; font-size: 8pt; font-family: Calibri, sans-serif; vertical-align: middle; border: 0.5pt solid black; text-wrap: nowrap;&quot; class=&quot;xl246&quot;&gt;/life-cycle/v4/devices/details&lt;/td&gt;&lt;td style=&quot;padding-top: 1px; padding-right: 1px; padding-left: 1px; font-size: 8pt; font-family: Calibri, sans-serif; vertical-align: middle; border: 0.5pt solid black; text-wrap: nowrap; text-align: center;&quot; class=&quot;xl252&quot;&gt;GET&lt;/td&gt;&lt;td style=&quot;padding-top: 1px; padding-right: 1px; padding-left: 1px; font-size: 8pt; font-family: Calibri, sans-serif; vertical-align: middle; border: 0.5pt solid black; text-wrap: nowrap;&quot; class=&quot;xl242&quot;&gt;accounts[].accountCode&lt;/td&gt;&lt;td style=&quot;padding-top: 1px; padding-right: 1px; padding-left: 1px; font-size: 8pt; font-family: Calibri, sans-serif; vertical-align: middle; border: 0.5pt solid black; text-wrap: nowrap; text-align: center;&quot; class=&quot;xl252&quot;&gt;50&lt;/td&gt;&lt;td style=&quot;padding-top: 1px; padding-right: 1px; padding-left: 1px; font-size: 8pt; font-family: Calibri, sans-serif; vertical-align: middle; border: 0.5pt solid black; text-wrap: nowrap;&quot; class=&quot;xl246&quot;&gt;string&lt;/td&gt;&lt;td style=&quot;padding-top: 1px; padding-right: 1px; padding-left: 1px; font-size: 8pt; font-family: Calibri, sans-serif; vertical-align: middle; border: 0.5pt solid black; width: 163pt;&quot; class=&quot;xl247&quot; width=&quot;217&quot;&gt;Account Code&lt;/td&gt;&lt;td style=&quot;padding-top: 1px; padding-right: 1px; padding-left: 1px; font-size: 8pt; font-family: Calibri, sans-serif; vertical-align: middle; border: 0.5pt solid black; text-wrap: nowrap;&quot; class=&quot;xl246&quot;&gt;&lt;/td&gt;&lt;td style=&quot;padding-top: 1px; padding-right: 1px; padding-left: 1px; font-size: 8pt; font-family: Calibri, sans-serif; vertical-align: middle; border: 0.5pt solid black; width: 130pt;&quot; class=&quot;xl247&quot; width=&quot;173&quot;&gt;&lt;/td&gt;&lt;td style=&quot;padding-top: 1px; padding-right: 1px; padding-left: 1px; font-size: 8pt; font-family: Calibri, sans-serif; vertical-align: middle; border: 0.5pt solid black; text-wrap: nowrap;&quot; class=&quot;xl246&quot;&gt;&lt;/td&gt;&lt;td style=&quot;padding-top: 1px; padding-right: 1px; padding-left: 1px; font-size: 8pt; font-family: Calibri; vertical-align: middle; border: 0.5pt solid black; background: white; width: 164pt;&quot; class=&quot;xl245&quot; width=&quot;218&quot;&gt;Se toma el primer registro del Array de cuentas, puesto que una tarjeta solo puede estar asociada a más de una tarjeta.&lt;/td&gt;&lt;/tr&gt;&lt;tr style=&quot;height: 15pt;&quot; height=&quot;20&quot;&gt;&lt;td style=&quot;padding-top: 1px; padding-right: 1px; padding-left: 1px; font-size: 8pt; font-family: Calibri, sans-serif; vertical-align: middle; border: 0.5pt solid black; text-wrap: nowrap; height: 15pt;&quot; class=&quot;xl246&quot; height=&quot;20&quot;&gt;Device Life Cycle&lt;/td&gt;&lt;td style=&quot;padding-top: 1px; padding-right: 1px; padding-left: 1px; font-size: 8pt; font-family: Calibri, sans-serif; vertical-align: middle; border: 0.5pt solid black; text-wrap: nowrap;&quot; class=&quot;xl246&quot;&gt;/life-cycle/v4/devices/details&lt;/td&gt;&lt;td style=&quot;padding-top: 1px; padding-right: 1px; padding-left: 1px; font-size: 8pt; font-family: Calibri, sans-serif; vertical-align: middle; border: 0.5pt solid black; text-wrap: nowrap; text-align: center;&quot; class=&quot;xl252&quot;&gt;GET&lt;/td&gt;&lt;td style=&quot;padding-top: 1px; padding-right: 1px; padding-left: 1px; font-size: 8pt; font-family: Calibri, sans-serif; vertical-align: middle; border: 0.5pt solid black; text-wrap: nowrap;&quot; class=&quot;xl246&quot;&gt;accounts[].currencyCode&lt;/td&gt;&lt;td style=&quot;padding-top: 1px; padding-right: 1px; padding-left: 1px; font-size: 8pt; font-family: Calibri, sans-serif; vertical-align: middle; border: 0.5pt solid black; text-wrap: nowrap; text-align: center;&quot; class=&quot;xl252&quot;&gt;5&lt;/td&gt;&lt;td style=&quot;padding-top: 1px; padding-right: 1px; padding-left: 1px; font-size: 8pt; font-family: Calibri, sans-serif; vertical-align: middle; border: 0.5pt solid black; text-wrap: nowrap;&quot; class=&quot;xl246&quot;&gt;string&lt;/td&gt;&lt;td style=&quot;padding-top: 1px; padding-right: 1px; padding-left: 1px; font-size: 8pt; font-family: Calibri, sans-serif; vertical-align: middle; border: 0.5pt solid black; width: 163pt;&quot; class=&quot;xl247&quot; width=&quot;217&quot;&gt;Currency Code&lt;/td&gt;&lt;td style=&quot;padding-top: 1px; padding-right: 1px; padding-left: 1px; font-size: 8pt; font-family: Calibri, sans-serif; vertical-align: middle; border: 0.5pt solid black; text-wrap: nowrap;&quot; class=&quot;xl246&quot;&gt;&lt;/td&gt;&lt;td style=&quot;padding-top: 1px; padding-right: 1px; padding-left: 1px; font-size: 8pt; font-family: Calibri, sans-serif; vertical-align: middle; border: 0.5pt solid black; width: 130pt;&quot; class=&quot;xl247&quot; width=&quot;173&quot;&gt;&lt;/td&gt;&lt;td style=&quot;padding-top: 1px; padding-right: 1px; padding-left: 1px; font-size: 8pt; font-family: Calibri, sans-serif; vertical-align: middle; border: 0.5pt solid black; text-wrap: nowrap;&quot; class=&quot;xl246&quot;&gt;&lt;/td&gt;&lt;td style=&quot;padding-top: 1px; padding-right: 1px; padding-left: 1px; font-size: 8pt; font-family: Calibri; vertical-align: middle; border: 0.5pt solid black; background: white; width: 164pt;&quot; class=&quot;xl245&quot; width=&quot;218&quot;&gt;&lt;/td&gt;&lt;/tr&gt;&lt;tr style=&quot;height: 15pt;&quot; height=&quot;20&quot;&gt;&lt;td style=&quot;padding-top: 1px; padding-right: 1px; padding-left: 1px; font-size: 8pt; font-family: Calibri, sans-serif; vertical-align: middle; border: 0.5pt solid black; text-wrap: nowrap; height: 15pt;&quot; class=&quot;xl246&quot; height=&quot;20&quot;&gt;NA&lt;/td&gt;&lt;td style=&quot;padding-top: 1px; padding-right: 1px; padding-left: 1px; font-size: 8pt; font-family: Calibri, sans-serif; vertical-align: middle; border: 0.5pt solid black; text-wrap: nowrap;&quot; class=&quot;xl246&quot;&gt;&lt;/td&gt;&lt;td style=&quot;padding-top: 1px; padding-right: 1px; padding-left: 1px; font-size: 8pt; font-family: Calibri, sans-serif; vertical-align: middle; border: 0.5pt solid black; text-wrap: nowrap; text-align: center;&quot; class=&quot;xl252&quot;&gt;&lt;/td&gt;&lt;td style=&quot;padding-top: 1px; padding-right: 1px; padding-left: 1px; font-size: 8pt; font-family: Calibri, sans-serif; vertical-align: middle; border: 0.5pt solid black; text-wrap: nowrap;&quot; class=&quot;xl246&quot;&gt;&lt;/td&gt;&lt;td style=&quot;padding-top: 1px; padding-right: 1px; padding-left: 1px; font-size: 8pt; font-family: Calibri, sans-serif; vertical-align: middle; border: 0.5pt solid black; text-wrap: nowrap; text-align: center;&quot; class=&quot;xl252&quot;&gt;&lt;/td&gt;&lt;td style=&quot;padding-top: 1px; padding-right: 1px; padding-left: 1px; font-size: 8pt; font-family: Calibri, sans-serif; vertical-align: middle; border: 0.5pt solid black; text-wrap: nowrap;&quot; class=&quot;xl246&quot;&gt;&lt;/td&gt;&lt;td style=&quot;padding-top: 1px; padding-right: 1px; padding-left: 1px; font-size: 8pt; font-family: Calibri, sans-serif; vertical-align: middle; border: 0.5pt solid black; width: 163pt;&quot; class=&quot;xl247&quot; width=&quot;217&quot;&gt;No mapping, no lo usa el API Plard&lt;/td&gt;&lt;td style=&quot;padding-top: 1px; padding-right: 1px; padding-left: 1px; font-size: 8pt; font-family: Calibri, sans-serif; vertical-align: middle; border: 0.5pt solid black; text-wrap: nowrap;&quot; class=&quot;xl246&quot;&gt;&lt;/td&gt;&lt;td style=&quot;padding-top: 1px; padding-right: 1px; padding-left: 1px; font-size: 8pt; font-family: Calibri, sans-serif; vertical-align: middle; border: 0.5pt solid black; width: 130pt;&quot; class=&quot;xl247&quot; width=&quot;173&quot;&gt;Se debe mandar &quot;1&quot; + espacio&lt;/td&gt;&lt;td style=&quot;padding-top: 1px; padding-right: 1px; padding-left: 1px; font-size: 8pt; font-family: Calibri, sans-serif; vertical-align: middle; border: 0.5pt solid black; text-wrap: nowrap;&quot; class=&quot;xl246&quot;&gt;&lt;/td&gt;&lt;td style=&quot;padding-top: 1px; padding-right: 1px; padding-left: 1px; font-size: 8pt; font-family: Calibri; vertical-align: middle; border: 0.5pt solid black; background: white; width: 164pt;&quot; class=&quot;xl245&quot; width=&quot;218&quot;&gt;&lt;/td&gt;&lt;/tr&gt;&lt;tr style=&quot;height: 46.5pt;&quot; height=&quot;62&quot;&gt;&lt;td style=&quot;padding-top: 1px; padding-right: 1px; padding-left: 1px; font-size: 8pt; font-family: Calibri, sans-serif; vertical-align: middle; border: 0.5pt solid black; text-wrap: nowrap; height: 46.5pt;&quot; class=&quot;xl246&quot; height=&quot;62&quot;&gt;NA&lt;/td&gt;&lt;td style=&quot;padding-top: 1px; padding-right: 1px; padding-left: 1px; font-size: 8pt; font-family: Calibri, sans-serif; vertical-align: middle; border: 0.5pt solid black; text-wrap: nowrap;&quot; class=&quot;xl246&quot;&gt;&lt;/td&gt;&lt;td style=&quot;padding-top: 1px; padding-right: 1px; padding-left: 1px; font-size: 8pt; font-family: Calibri, sans-serif; vertical-align: middle; border: 0.5pt solid black; text-wrap: nowrap; text-align: center;&quot; class=&quot;xl252&quot;&gt;&lt;/td&gt;&lt;td style=&quot;padding-top: 1px; padding-right: 1px; padding-left: 1px; font-size: 8pt; font-family: Calibri, sans-serif; vertical-align: middle; border: 0.5pt solid black; text-wrap: nowrap;&quot; class=&quot;xl246&quot;&gt;&lt;/td&gt;&lt;td style=&quot;padding-top: 1px; padding-right: 1px; padding-left: 1px; font-size: 8pt; font-family: Calibri, sans-serif; vertical-align: middle; border: 0.5pt solid black; text-wrap: nowrap; text-align: center;&quot; class=&quot;xl252&quot;&gt;&lt;/td&gt;&lt;td style=&quot;padding-top: 1px; padding-right: 1px; padding-left: 1px; font-size: 8pt; font-family: Calibri, sans-serif; vertical-align: middle; border: 0.5pt solid black; text-wrap: nowrap;&quot; class=&quot;xl246&quot;&gt;&lt;/td&gt;&lt;td style=&quot;padding-top: 1px; padding-right: 1px; padding-left: 1px; font-size: 8pt; font-family: Calibri, sans-serif; vertical-align: middle; border: 0.5pt solid black; width: 163pt;&quot; class=&quot;xl247&quot; width=&quot;217&quot;&gt;No mapping, no lo usa el API Plard&lt;/td&gt;&lt;td style=&quot;padding-top: 1px; padding-right: 1px; padding-left: 1px; font-size: 8pt; font-family: Calibri, sans-serif; vertical-align: middle; border: 0.5pt solid black; text-wrap: nowrap;&quot; class=&quot;xl246&quot;&gt;&lt;/td&gt;&lt;td style=&quot;padding-top: 1px; padding-right: 1px; padding-left: 1px; font-size: 8pt; font-family: Calibri, sans-serif; vertical-align: middle; border: 0.5pt solid black; width: 130pt;&quot; class=&quot;xl247&quot; width=&quot;173&quot;&gt;Indicador de si cuenta cargo es Ajena (S o N), actualmente todas son propias por lo que siempre se informa en N&lt;/td&gt;&lt;td style=&quot;padding-top: 1px; padding-right: 1px; padding-left: 1px; font-size: 8pt; font-family: Calibri, sans-serif; vertical-align: middle; border: 0.5pt solid black; text-wrap: nowrap;&quot; class=&quot;xl246&quot;&gt;&lt;/td&gt;&lt;td style=&quot;padding-top: 1px; padding-right: 1px; padding-left: 1px; font-size: 8pt; font-family: Calibri; vertical-align: middle; border: 0.5pt solid black; background: white; width: 164pt;&quot; class=&quot;xl245&quot; width=&quot;218&quot;&gt;Mapear N como una constante&lt;/td&gt;&lt;/tr&gt;&lt;tr style=&quot;height: 15pt;&quot; height=&quot;20&quot;&gt;&lt;td style=&quot;padding-top: 1px; padding-right: 1px; padding-left: 1px; font-size: 8pt; font-family: Calibri, sans-serif; vertical-align: middle; border: 0.5pt solid black; text-wrap: nowrap; height: 15pt;&quot; class=&quot;xl246&quot; height=&quot;20&quot;&gt;Device Life Cycle&lt;/td&gt;&lt;td style=&quot;padding-top: 1px; padding-right: 1px; padding-left: 1px; font-size: 8pt; font-family: Calibri, sans-serif; vertical-align: middle; border: 0.5pt solid black; text-wrap: nowrap;&quot; class=&quot;xl246&quot;&gt;/life-cycle/v4/devices/details&lt;/td&gt;&lt;td style=&quot;padding-top: 1px; padding-right: 1px; padding-left: 1px; font-size: 8pt; font-family: Calibri, sans-serif; vertical-align: middle; border: 0.5pt solid black; text-wrap: nowrap; text-align: center;&quot; class=&quot;xl252&quot;&gt;GET&lt;/td&gt;&lt;td style=&quot;padding-top: 1px; padding-right: 1px; padding-left: 1px; font-size: 8pt; font-family: Calibri, sans-serif; vertical-align: middle; border: 0.5pt solid black; text-wrap: nowrap;&quot; class=&quot;xl246&quot;&gt;accounts[].accountProductCode&lt;/td&gt;&lt;td style=&quot;padding-top: 1px; padding-right: 1px; padding-left: 1px; font-size: 8pt; font-family: Calibri, sans-serif; vertical-align: middle; border: 0.5pt solid black; text-wrap: nowrap; text-align: center;&quot; class=&quot;xl252&quot;&gt;5&lt;/td&gt;&lt;td style=&quot;padding-top: 1px; padding-right: 1px; padding-left: 1px; font-size: 8pt; font-family: Calibri, sans-serif; vertical-align: middle; border: 0.5pt solid black; text-wrap: nowrap;&quot; class=&quot;xl246&quot;&gt;string&lt;/td&gt;&lt;td style=&quot;padding-top: 1px; padding-right: 1px; padding-left: 1px; font-size: 8pt; font-family: Calibri, sans-serif; vertical-align: middle; border: 0.5pt solid black; width: 163pt;&quot; class=&quot;xl247&quot; width=&quot;217&quot;&gt;Product code that the device refers to&lt;/td&gt;&lt;td style=&quot;padding-top: 1px; padding-right: 1px; padding-left: 1px; font-size: 8pt; font-family: Calibri, sans-serif; vertical-align: middle; border: 0.5pt solid black; text-wrap: nowrap;&quot; class=&quot;xl246&quot;&gt;&lt;/td&gt;&lt;td style=&quot;padding-top: 1px; padding-right: 1px; padding-left: 1px; font-size: 8pt; font-family: Calibri, sans-serif; vertical-align: middle; border: 0.5pt solid black; width: 130pt;&quot; class=&quot;xl247&quot; width=&quot;173&quot;&gt;&lt;/td&gt;&lt;td style=&quot;padding-top: 1px; padding-right: 1px; padding-left: 1px; font-size: 8pt; font-family: Calibri, sans-serif; vertical-align: middle; border: 0.5pt solid black; text-wrap: nowrap;&quot; class=&quot;xl246&quot;&gt;&lt;/td&gt;&lt;td style=&quot;padding-top: 1px; padding-right: 1px; padding-left: 1px; font-size: 8pt; font-family: Calibri; vertical-align: middle; border: 0.5pt solid black; background: white; width: 164pt;&quot; class=&quot;xl245&quot; width=&quot;218&quot;&gt;&lt;/td&gt;&lt;/tr&gt;&lt;tr style=&quot;height: 15pt;&quot; height=&quot;20&quot;&gt;&lt;td style=&quot;padding-top: 1px; padding-right: 1px; padding-left: 1px; font-size: 8pt; font-family: Calibri, sans-serif; vertical-align: middle; border: 0.5pt solid black; text-wrap: nowrap; height: 15pt;&quot; class=&quot;xl246&quot; height=&quot;20&quot;&gt;Device Life Cycle&lt;/td&gt;&lt;td style=&quot;padding-top: 1px; padding-right: 1px; padding-left: 1px; font-size: 8pt; font-family: Calibri, sans-serif; vertical-align: middle; border: 0.5pt solid black; text-wrap: nowrap;&quot; class=&quot;xl246&quot;&gt;/life-cycle/v4/devices/details&lt;/td&gt;&lt;td style=&quot;padding-top: 1px; padding-right: 1px; padding-left: 1px; font-size: 8pt; font-family: Calibri, sans-serif; vertical-align: middle; border: 0.5pt solid black; text-wrap: nowrap; text-align: center;&quot; class=&quot;xl252&quot;&gt;GET&lt;/td&gt;&lt;td style=&quot;padding-top: 1px; padding-right: 1px; padding-left: 1px; font-size: 8pt; font-family: Calibri, sans-serif; vertical-align: middle; border: 0.5pt solid black; text-wrap: nowrap;&quot; class=&quot;xl246&quot;&gt;accounts[].accountSubProductCode&lt;/td&gt;&lt;td style=&quot;padding-top: 1px; padding-right: 1px; padding-left: 1px; font-size: 8pt; font-family: Calibri, sans-serif; vertical-align: middle; border: 0.5pt solid black; text-wrap: nowrap; text-align: center;&quot; class=&quot;xl252&quot;&gt;10&lt;/td&gt;&lt;td style=&quot;padding-top: 1px; padding-right: 1px; padding-left: 1px; font-size: 8pt; font-family: Calibri, sans-serif; vertical-align: middle; border: 0.5pt solid black; text-wrap: nowrap;&quot; class=&quot;xl246&quot;&gt;string&lt;/td&gt;&lt;td style=&quot;padding-top: 1px; padding-right: 1px; padding-left: 1px; font-size: 8pt; font-family: Calibri, sans-serif; vertical-align: middle; border: 0.5pt solid black; width: 163pt;&quot; class=&quot;xl247&quot; width=&quot;217&quot;&gt;By-product code that the device refers to&lt;/td&gt;&lt;td style=&quot;padding-top: 1px; padding-right: 1px; padding-left: 1px; font-size: 8pt; font-family: Calibri, sans-serif; vertical-align: middle; border: 0.5pt solid black; text-wrap: nowrap;&quot; class=&quot;xl246&quot;&gt;&lt;/td&gt;&lt;td style=&quot;padding-top: 1px; padding-right: 1px; padding-left: 1px; font-size: 8pt; font-family: Calibri, sans-serif; vertical-align: middle; border: 0.5pt solid black; width: 130pt;&quot; class=&quot;xl247&quot; width=&quot;173&quot;&gt;&lt;/td&gt;&lt;td style=&quot;padding-top: 1px; padding-right: 1px; padding-left: 1px; font-size: 8pt; font-family: Calibri, sans-serif; vertical-align: middle; border: 0.5pt solid black; text-wrap: nowrap;&quot; class=&quot;xl246&quot;&gt;&lt;/td&gt;&lt;td style=&quot;padding-top: 1px; padding-right: 1px; padding-left: 1px; font-size: 8pt; font-family: Calibri; vertical-align: middle; border: 0.5pt solid black; background: white; width: 164pt;&quot; class=&quot;xl245&quot; width=&quot;218&quot;&gt;&lt;/td&gt;&lt;/tr&gt;&lt;tr style=&quot;height: 23.25pt;&quot; height=&quot;31&quot;&gt;&lt;td style=&quot;padding-top: 1px; padding-right: 1px; padding-left: 1px; font-size: 8pt; font-family: Calibri, sans-serif; vertical-align: middle; border: 0.5pt solid black; text-wrap: nowrap; height: 23.25pt;&quot; class=&quot;xl246&quot; height=&quot;31&quot;&gt;NA&lt;/td&gt;&lt;td style=&quot;padding-top: 1px; padding-right: 1px; padding-left: 1px; font-size: 8pt; font-family: Calibri, sans-serif; vertical-align: middle; border: 0.5pt solid black; text-wrap: nowrap;&quot; class=&quot;xl246&quot;&gt;&lt;/td&gt;&lt;td style=&quot;padding-top: 1px; padding-right: 1px; padding-left: 1px; font-size: 8pt; font-family: Calibri, sans-serif; vertical-align: middle; border: 0.5pt solid black; text-wrap: nowrap; text-align: center;&quot; class=&quot;xl252&quot;&gt;&lt;/td&gt;&lt;td style=&quot;padding-top: 1px; padding-right: 1px; padding-left: 1px; font-size: 8pt; font-family: Calibri, sans-serif; vertical-align: middle; border: 0.5pt solid black; text-wrap: nowrap;&quot; class=&quot;xl246&quot;&gt;&lt;/td&gt;&lt;td style=&quot;padding-top: 1px; padding-right: 1px; padding-left: 1px; font-size: 8pt; font-family: Calibri, sans-serif; vertical-align: middle; border: 0.5pt solid black; text-wrap: nowrap; text-align: center;&quot; class=&quot;xl252&quot;&gt;&lt;/td&gt;&lt;td style=&quot;padding-top: 1px; padding-right: 1px; padding-left: 1px; font-size: 8pt; font-family: Calibri, sans-serif; vertical-align: middle; border: 0.5pt solid black; text-wrap: nowrap;&quot; class=&quot;xl246&quot;&gt;&lt;/td&gt;&lt;td style=&quot;padding-top: 1px; padding-right: 1px; padding-left: 1px; font-size: 8pt; font-family: Calibri, sans-serif; vertical-align: middle; border: 0.5pt solid black; width: 163pt;&quot; class=&quot;xl247&quot; width=&quot;217&quot;&gt;No mapping, no lo usa el API Plard&lt;/td&gt;&lt;td style=&quot;padding-top: 1px; padding-right: 1px; padding-left: 1px; font-size: 8pt; font-family: Calibri, sans-serif; vertical-align: middle; border: 0.5pt solid black; text-wrap: nowrap;&quot; class=&quot;xl246&quot;&gt;&lt;/td&gt;&lt;td style=&quot;padding-top: 1px; padding-right: 1px; padding-left: 1px; font-size: 8pt; font-family: Calibri, sans-serif; vertical-align: middle; border: 0.5pt solid black; width: 130pt;&quot; class=&quot;xl247&quot; width=&quot;173&quot;&gt;Se informa en A. Activo o P. Pasivo.&lt;br&gt;Todas las cuentas con Pasivo.&lt;/td&gt;&lt;td style=&quot;padding-top: 1px; padding-right: 1px; padding-left: 1px; font-size: 8pt; font-family: Calibri, sans-serif; vertical-align: middle; border: 0.5pt solid black; text-wrap: nowrap;&quot; class=&quot;xl246&quot;&gt;&lt;/td&gt;&lt;td style=&quot;padding-top: 1px; padding-right: 1px; padding-left: 1px; font-size: 8pt; font-family: Calibri; vertical-align: middle; border: 0.5pt solid black; background: white; width: 164pt;&quot; class=&quot;xl245&quot; width=&quot;218&quot;&gt;Mapear una P como constante&lt;/td&gt;&lt;/tr&gt;&lt;tr style=&quot;height: 15pt;&quot; height=&quot;20&quot;&gt;&lt;td style=&quot;padding-top: 1px; padding-right: 1px; padding-left: 1px; font-size: 8pt; font-family: Calibri, sans-serif; vertical-align: middle; border: 0.5pt solid black; text-wrap: nowrap; height: 15pt;&quot; class=&quot;xl246&quot; height=&quot;20&quot;&gt;Device Life Cycle&lt;/td&gt;&lt;td style=&quot;padding-top: 1px; padding-right: 1px; padding-left: 1px; font-size: 8pt; font-family: Calibri, sans-serif; vertical-align: middle; border: 0.5pt solid black; text-wrap: nowrap;&quot; class=&quot;xl246&quot;&gt;/life-cycle/v4/devices/details&lt;/td&gt;&lt;td style=&quot;padding-top: 1px; padding-right: 1px; padding-left: 1px; font-size: 8pt; font-family: Calibri; vertical-align: middle; border: 0.5pt solid black; text-wrap: nowrap; text-align: center;&quot; class=&quot;xl254&quot;&gt;GET&lt;/td&gt;&lt;td style=&quot;padding-top: 1px; padding-right: 1px; padding-left: 1px; font-size: 8pt; font-family: Calibri, sans-serif; vertical-align: middle; border: 0.5pt solid black; width: 129pt;&quot; class=&quot;xl247&quot; width=&quot;172&quot;&gt;accounts[].insertionDate&lt;/td&gt;&lt;td style=&quot;padding-top: 1px; padding-right: 1px; padding-left: 1px; font-size: 8pt; font-family: Calibri, sans-serif; vertical-align: middle; border: 0.5pt solid black; text-wrap: nowrap; text-align: center;&quot; class=&quot;xl252&quot;&gt;28&lt;/td&gt;&lt;td style=&quot;padding-top: 1px; padding-right: 1px; padding-left: 1px; font-size: 8pt; font-family: Calibri, sans-serif; vertical-align: middle; border: 0.5pt solid black; text-wrap: nowrap;&quot; class=&quot;xl246&quot;&gt;string&lt;/td&gt;&lt;td style=&quot;padding-top: 1px; padding-right: 1px; padding-left: 1px; font-size: 8pt; font-family: Calibri, sans-serif; vertical-align: middle; border: 0.5pt solid black; width: 163pt;&quot; class=&quot;xl247&quot; width=&quot;217&quot;&gt;Device Creation date&lt;/td&gt;&lt;td style=&quot;padding-top: 1px; padding-right: 1px; padding-left: 1px; font-size: 8pt; font-family: Calibri, sans-serif; vertical-align: middle; border: 0.5pt solid black; text-wrap: nowrap;&quot; class=&quot;xl246&quot;&gt;&lt;/td&gt;&lt;td style=&quot;padding-top: 1px; padding-right: 1px; padding-left: 1px; font-size: 8pt; font-family: Calibri, sans-serif; vertical-align: middle; border: 0.5pt solid black; width: 130pt;&quot; class=&quot;xl247&quot; width=&quot;173&quot;&gt;&lt;/td&gt;&lt;td style=&quot;padding-top: 1px; padding-right: 1px; padding-left: 1px; font-size: 8pt; font-family: Calibri; vertical-align: middle; border: 0.5pt solid black; width: 107pt;&quot; class=&quot;xl249&quot; width=&quot;143&quot;&gt;2022-12-14T15:39:32.662882&lt;/td&gt;&lt;td style=&quot;padding-top: 1px; padding-right: 1px; padding-left: 1px; font-size: 8pt; font-family: Calibri; vertical-align: middle; border: 0.5pt solid black; background: white; width: 164pt;&quot; class=&quot;xl245&quot; width=&quot;218&quot;&gt;Transformar a AAAA-MM-DD&lt;/td&gt;&lt;/tr&gt;&lt;tr style=&quot;height: 15pt;&quot; height=&quot;20&quot;&gt;&lt;td style=&quot;padding-top: 1px; padding-right: 1px; padding-left: 1px; font-size: 8pt; font-family: Calibri, sans-serif; vertical-align: middle; border: 0.5pt solid black; text-wrap: nowrap; height: 15pt;&quot; class=&quot;xl246&quot; height=&quot;20&quot;&gt;Device Life Cycle&lt;/td&gt;&lt;td style=&quot;padding-top: 1px; padding-right: 1px; padding-left: 1px; font-size: 8pt; font-family: Calibri, sans-serif; vertical-align: middle; border: 0.5pt solid black; text-wrap: nowrap;&quot; class=&quot;xl246&quot;&gt;/life-cycle/v4/devices/details&lt;/td&gt;&lt;td style=&quot;padding-top: 1px; padding-right: 1px; padding-left: 1px; font-size: 8pt; font-family: Calibri, sans-serif; vertical-align: middle; border: 0.5pt solid black; text-wrap: nowrap; text-align: center;&quot; class=&quot;xl252&quot;&gt;GET&lt;/td&gt;&lt;td style=&quot;padding-top: 1px; padding-right: 1px; padding-left: 1px; font-size: 8pt; font-family: Calibri, sans-serif; vertical-align: middle; border: 0.5pt solid black; text-wrap: nowrap;&quot; class=&quot;xl246&quot;&gt;accounts[].cancellingDate&lt;/td&gt;&lt;td style=&quot;padding-top: 1px; padding-right: 1px; padding-left: 1px; font-size: 8pt; font-family: Calibri, sans-serif; vertical-align: middle; border: 0.5pt solid black; text-wrap: nowrap; text-align: center;&quot; class=&quot;xl252&quot;&gt;28&lt;/td&gt;&lt;td style=&quot;padding-top: 1px; padding-right: 1px; padding-left: 1px; font-size: 8pt; font-family: Calibri, sans-serif; vertical-align: middle; border: 0.5pt solid black; text-wrap: nowrap;&quot; class=&quot;xl246&quot;&gt;string&lt;/td&gt;&lt;td style=&quot;padding-top: 1px; padding-right: 1px; padding-left: 1px; font-size: 8pt; font-family: Calibri, sans-serif; vertical-align: middle; border: 0.5pt solid black; width: 163pt;&quot; class=&quot;xl247&quot; width=&quot;217&quot;&gt;Cancellation Date&lt;/td&gt;&lt;td style=&quot;padding-top: 1px; padding-right: 1px; padding-left: 1px; font-size: 8pt; font-family: Calibri, sans-serif; vertical-align: middle; border: 0.5pt solid black; text-wrap: nowrap;&quot; class=&quot;xl246&quot;&gt;&lt;/td&gt;&lt;td style=&quot;padding-top: 1px; padding-right: 1px; padding-left: 1px; font-size: 8pt; font-family: Calibri, sans-serif; vertical-align: middle; border: 0.5pt solid black; width: 130pt;&quot; class=&quot;xl247&quot; width=&quot;173&quot;&gt;&lt;/td&gt;&lt;td style=&quot;padding-top: 1px; padding-right: 1px; padding-left: 1px; font-size: 8pt; font-family: Calibri, sans-serif; vertical-align: middle; border: 0.5pt solid black; text-wrap: nowrap;&quot; class=&quot;xl246&quot;&gt;2022-12-14T15:39:32.662882&lt;/td&gt;&lt;td style=&quot;padding-top: 1px; padding-right: 1px; padding-left: 1px; font-size: 8pt; font-family: Calibri; vertical-align: middle; border: 0.5pt solid black; background: white; width: 164pt;&quot; class=&quot;xl245&quot; width=&quot;218&quot;&gt;Transformar a AAAA-MM-DD&lt;/td&gt;&lt;/tr&gt;&lt;tr style=&quot;height: 15pt;&quot; height=&quot;20&quot;&gt;&lt;td style=&quot;padding-top: 1px; padding-right: 1px; padding-left: 1px; font-size: 8pt; font-family: Calibri, sans-serif; vertical-align: middle; border: 0.5pt solid black; text-wrap: nowrap; height: 15pt;&quot; class=&quot;xl246&quot; height=&quot;20&quot;&gt;Device Life Cycle&lt;/td&gt;&lt;td style=&quot;padding-top: 1px; padding-right: 1px; padding-left: 1px; font-size: 8pt; font-family: Calibri, sans-serif; vertical-align: middle; border: 0.5pt solid black; text-wrap: nowrap;&quot; class=&quot;xl246&quot;&gt;/life-cycle/v4/devices/details&lt;/td&gt;&lt;td style=&quot;padding-top: 1px; padding-right: 1px; padding-left: 1px; font-size: 8pt; font-family: Calibri, sans-serif; vertical-align: middle; border: 0.5pt solid black; text-wrap: nowrap; text-align: center;&quot; class=&quot;xl252&quot;&gt;GET&lt;/td&gt;&lt;td style=&quot;padding-top: 1px; padding-right: 1px; padding-left: 1px; font-size: 8pt; font-family: Calibri, sans-serif; vertical-align: middle; border: 0.5pt solid black; text-wrap: nowrap;&quot; class=&quot;xl246&quot;&gt;accounts[].accounts[].lastUpdate&lt;/td&gt;&lt;td style=&quot;padding-top: 1px; padding-right: 1px; padding-left: 1px; font-size: 8pt; font-family: Calibri, sans-serif; vertical-align: middle; border: 0.5pt solid black; text-wrap: nowrap; text-align: center;&quot; class=&quot;xl252&quot;&gt;28&lt;/td&gt;&lt;td style=&quot;padding-top: 1px; padding-right: 1px; padding-left: 1px; font-size: 8pt; font-family: Calibri, sans-serif; vertical-align: middle; border: 0.5pt solid black; text-wrap: nowrap;&quot; class=&quot;xl246&quot;&gt;string&lt;/td&gt;&lt;td style=&quot;padding-top: 1px; padding-right: 1px; padding-left: 1px; font-size: 8pt; font-family: Calibri, sans-serif; vertical-align: middle; border: 0.5pt solid black; width: 163pt;&quot; class=&quot;xl247&quot; width=&quot;217&quot;&gt;Field that indicates the date of the last update&lt;/td&gt;&lt;td style=&quot;padding-top: 1px; padding-right: 1px; padding-left: 1px; font-size: 8pt; font-family: Calibri, sans-serif; vertical-align: middle; border: 0.5pt solid black; text-wrap: nowrap;&quot; class=&quot;xl246&quot;&gt;&lt;/td&gt;&lt;td style=&quot;padding-top: 1px; padding-right: 1px; padding-left: 1px; font-size: 8pt; font-family: Calibri, sans-serif; vertical-align: middle; border: 0.5pt solid black; width: 130pt;&quot; class=&quot;xl247&quot; width=&quot;173&quot;&gt;&lt;/td&gt;&lt;td style=&quot;padding-top: 1px; padding-right: 1px; padding-left: 1px; font-size: 8pt; font-family: Calibri, sans-serif; vertical-align: middle; border: 0.5pt solid black; text-wrap: nowrap;&quot; class=&quot;xl246&quot;&gt;2022-12-14T15:39:32.662882&lt;/td&gt;&lt;td style=&quot;padding-top: 1px; padding-right: 1px; padding-left: 1px; font-size: 8pt; font-family: Calibri; vertical-align: middle; border: 0.5pt solid black; background: white; width: 164pt;&quot; class=&quot;xl245&quot; width=&quot;218&quot;&gt;Rormato AAAA-MM-DD-HH.SS.MM.mmmmmm&amp;nbsp;&lt;/td&gt;&lt;/tr&gt;&lt;/tbody&gt;&lt;/table&gt;&lt;/div&gt;" style="rounded=0;whiteSpace=wrap;html=1;" vertex="1" parent="1">
          <mxGeometry x="1500" y="-449" width="1350" height="530" as="geometry" />
        </mxCell>
        <mxCell id="aG1EKJKOpwP7Z9-2mD6k-6" value="API" style="rounded=0;whiteSpace=wrap;html=1;fillColor=#bac8d3;strokeColor=#23445d;fontSize=14;fontStyle=1;verticalAlign=top;container=0;" vertex="1" parent="1">
          <mxGeometry x="1500" y="-530" width="1350" height="42" as="geometry" />
        </mxCell>
        <mxCell id="aG1EKJKOpwP7Z9-2mD6k-7" value="&lt;div&gt;&lt;span style=&quot;font-size: 12px; text-wrap: nowrap;&quot;&gt;Response: API Device Life Cycle&lt;/span&gt;&lt;/div&gt;&lt;div&gt;&lt;span style=&quot;font-size: 12px; text-wrap: nowrap;&quot;&gt;(/life-cycle/v4/devices/details)&lt;/span&gt;&lt;/div&gt;" style="rounded=0;whiteSpace=wrap;html=1;fillColor=#EEEEEE;strokeColor=#23445d;fontSize=14;fontStyle=1;align=center;" vertex="1" parent="1">
          <mxGeometry x="1500" y="-488" width="1350" height="39.11" as="geometry" />
        </mxCell>
        <mxCell id="aG1EKJKOpwP7Z9-2mD6k-8" value="&lt;div style=&quot;font-size: medium; text-align: start;&quot; data-ccp-timestamp=&quot;1746605797612&quot;&gt;&lt;table style=&quot;border-collapse: collapse; width: 608pt;&quot; width=&quot;811&quot;&gt;&lt;colgroup&gt;&lt;col style=&quot;width: 14pt;&quot; width=&quot;19&quot;&gt;&lt;col style=&quot;width: 40pt;&quot; width=&quot;53&quot;&gt;&lt;col style=&quot;width: 96pt;&quot; width=&quot;128&quot;&gt;&lt;col style=&quot;width: 36pt;&quot; width=&quot;48&quot;&gt;&lt;col style=&quot;width: 59pt;&quot; width=&quot;78&quot;&gt;&lt;col style=&quot;width: 44pt;&quot; width=&quot;58&quot;&gt;&lt;col style=&quot;width: 163pt;&quot; width=&quot;217&quot;&gt;&lt;col style=&quot;width: 158pt;&quot; width=&quot;210&quot;&gt;&lt;/colgroup&gt;&lt;tbody&gt;&lt;tr style=&quot;height: 15pt;&quot; height=&quot;20&quot;&gt;&lt;td style=&quot;padding-top: 1px; padding-right: 1px; padding-left: 1px; color: rgb(0, 32, 96); font-size: 8pt; font-weight: 700; font-family: Calibri, sans-serif; vertical-align: middle; border: 0.5pt solid rgb(191, 191, 191); text-wrap: nowrap; background: rgb(242, 206, 239); width: 14pt; height: 15pt;&quot; class=&quot;xl177&quot; height=&quot;20&quot; width=&quot;19&quot;&gt;#&lt;/td&gt;&lt;td style=&quot;padding-top: 1px; padding-right: 1px; padding-left: 1px; color: rgb(0, 32, 96); font-size: 8pt; font-weight: 700; font-family: Calibri, sans-serif; vertical-align: middle; border: 0.5pt solid rgb(191, 191, 191); text-wrap: nowrap; background: rgb(242, 206, 239); width: 40pt;&quot; class=&quot;xl177&quot; width=&quot;53&quot;&gt;Campo&lt;/td&gt;&lt;td style=&quot;padding-top: 1px; padding-right: 1px; padding-left: 1px; color: rgb(0, 32, 96); font-size: 8pt; font-weight: 700; font-family: Calibri, sans-serif; vertical-align: middle; border: 0.5pt solid rgb(191, 191, 191); text-wrap: nowrap; background: rgb(242, 206, 239); width: 96pt;&quot; class=&quot;xl177&quot; width=&quot;128&quot;&gt;Descripcion de Campo&lt;/td&gt;&lt;td style=&quot;padding-top: 1px; padding-right: 1px; padding-left: 1px; color: rgb(0, 32, 96); font-size: 8pt; font-weight: 700; font-family: Calibri, sans-serif; vertical-align: middle; border: 0.5pt solid rgb(191, 191, 191); text-wrap: nowrap; background: rgb(242, 206, 239); width: 36pt;&quot; class=&quot;xl177&quot; width=&quot;48&quot;&gt;Longitud&lt;/td&gt;&lt;td style=&quot;padding-top: 1px; padding-right: 1px; padding-left: 1px; color: rgb(0, 32, 96); font-size: 8pt; font-weight: 700; font-family: Calibri, sans-serif; vertical-align: middle; border: 0.5pt solid rgb(191, 191, 191); text-wrap: nowrap; background: rgb(242, 206, 239); width: 59pt;&quot; class=&quot;xl177&quot; width=&quot;78&quot;&gt;Tipo&lt;/td&gt;&lt;td style=&quot;padding-top: 1px; padding-right: 1px; padding-left: 1px; color: rgb(0, 32, 96); font-size: 8pt; font-weight: 700; font-family: Calibri, sans-serif; vertical-align: middle; border: 0.5pt solid rgb(191, 191, 191); text-wrap: nowrap; background: rgb(242, 206, 239); width: 44pt;&quot; class=&quot;xl177&quot; width=&quot;58&quot;&gt;Req./Opc.&lt;/td&gt;&lt;td style=&quot;padding-top: 1px; padding-right: 1px; padding-left: 1px; color: rgb(0, 32, 96); font-size: 8pt; font-weight: 700; font-family: Calibri, sans-serif; vertical-align: middle; border: 0.5pt solid rgb(191, 191, 191); text-wrap: nowrap; background: rgb(242, 206, 239); width: 163pt;&quot; class=&quot;xl177&quot; width=&quot;217&quot;&gt;Notas, complemento&lt;/td&gt;&lt;td style=&quot;padding-top: 1px; padding-right: 1px; padding-left: 1px; color: rgb(0, 32, 96); font-size: 8pt; font-weight: 700; font-family: Calibri, sans-serif; vertical-align: middle; border: 0.5pt solid rgb(191, 191, 191); text-wrap: nowrap; background: rgb(242, 206, 239); width: 158pt;&quot; class=&quot;xl177&quot; width=&quot;210&quot;&gt;Comentarios&lt;/td&gt;&lt;/tr&gt;&lt;tr style=&quot;height: 23.25pt;&quot; height=&quot;31&quot;&gt;&lt;td style=&quot;padding-top: 1px; padding-right: 1px; padding-left: 1px; color: red; font-size: 8pt; font-family: Calibri, sans-serif; vertical-align: middle; border: 0.5pt solid rgb(191, 191, 191); text-wrap: nowrap; height: 23.25pt;&quot; class=&quot;xl258&quot; height=&quot;31&quot;&gt;01&lt;/td&gt;&lt;td style=&quot;padding-top: 1px; padding-right: 1px; padding-left: 1px; color: red; font-size: 8pt; font-family: Calibri, sans-serif; vertical-align: middle; border: 0.5pt solid rgb(191, 191, 191); text-wrap: nowrap;&quot; class=&quot;xl258&quot;&gt;PAN&lt;/td&gt;&lt;td style=&quot;padding-top: 1px; padding-right: 1px; padding-left: 1px; color: red; font-size: 8pt; font-family: Calibri, sans-serif; vertical-align: middle; border: 0.5pt solid rgb(191, 191, 191); text-wrap: nowrap;&quot; class=&quot;xl258&quot;&gt;PAN DE LA TARJETA&lt;/td&gt;&lt;td style=&quot;padding-top: 1px; padding-right: 1px; padding-left: 1px; color: red; font-size: 8pt; font-family: Calibri, sans-serif; vertical-align: middle; border: 0.5pt solid rgb(191, 191, 191); text-wrap: nowrap; text-align: center;&quot; class=&quot;xl260&quot;&gt;22&lt;/td&gt;&lt;td style=&quot;padding-top: 1px; padding-right: 1px; padding-left: 1px; color: red; font-size: 8pt; font-family: Calibri, sans-serif; vertical-align: middle; border: 0.5pt solid rgb(191, 191, 191); text-wrap: nowrap;&quot; class=&quot;xl258&quot;&gt;Alfanumerico&lt;/td&gt;&lt;td style=&quot;padding-top: 1px; padding-right: 1px; padding-left: 1px; color: red; font-size: 8pt; font-family: Calibri, sans-serif; vertical-align: middle; border-top: 0.5pt solid rgb(191, 191, 191); border-right: none; border-bottom: 0.5pt solid rgb(191, 191, 191); border-left: 0.5pt solid rgb(191, 191, 191); border-image: initial; text-wrap: nowrap;&quot; class=&quot;xl174&quot;&gt;Opcional&lt;/td&gt;&lt;td style=&quot;padding-top: 1px; padding-right: 1px; padding-left: 1px; color: red; font-size: 8pt; font-family: Calibri; vertical-align: middle; border-top: 0.5pt solid rgb(217, 217, 217); border-right: none; border-bottom: 0.5pt solid rgb(217, 217, 217); border-left: 0.5pt solid rgb(217, 217, 217); border-image: initial; width: 163pt;&quot; class=&quot;xl277&quot; width=&quot;217&quot;&gt;&lt;span style=&quot;font-size: 8pt; font-weight: 700;&quot; class=&quot;font97&quot;&gt;Entrada&lt;/span&gt;&lt;span style=&quot;font-size: 8pt;&quot; class=&quot;font98&quot;&gt;. Se valida que este informado, que exista en tabla de tarjetas MPDT009.&lt;/span&gt;&lt;/td&gt;&lt;td style=&quot;padding-top: 1px; padding-right: 1px; padding-left: 1px; color: red; font-size: 8pt; font-family: Calibri, sans-serif; vertical-align: middle; border: none; text-wrap: nowrap;&quot; class=&quot;xl264&quot;&gt;&lt;/td&gt;&lt;/tr&gt;&lt;tr style=&quot;height: 23.25pt;&quot; height=&quot;31&quot;&gt;&lt;td style=&quot;padding-top: 1px; padding-right: 1px; padding-left: 1px; color: rgb(0, 32, 96); font-size: 8pt; font-family: Calibri, sans-serif; vertical-align: middle; border: 0.5pt solid rgb(191, 191, 191); text-wrap: nowrap; height: 23.25pt;&quot; class=&quot;xl173&quot; height=&quot;31&quot;&gt;02&lt;/td&gt;&lt;td style=&quot;padding-top: 1px; padding-right: 1px; padding-left: 1px; color: rgb(0, 32, 96); font-size: 8pt; font-family: Calibri, sans-serif; vertical-align: middle; border: 0.5pt solid rgb(191, 191, 191); text-wrap: nowrap;&quot; class=&quot;xl173&quot;&gt;INDCTA&lt;/td&gt;&lt;td style=&quot;padding-top: 1px; padding-right: 1px; padding-left: 1px; color: rgb(0, 32, 96); font-size: 8pt; font-family: Calibri, sans-serif; vertical-align: middle; border: 0.5pt solid rgb(191, 191, 191); text-wrap: nowrap;&quot; class=&quot;xl173&quot;&gt;IND DE ORDEN DE CTA&lt;/td&gt;&lt;td style=&quot;padding-top: 1px; padding-right: 1px; padding-left: 1px; color: rgb(0, 32, 96); font-size: 8pt; font-family: Calibri, sans-serif; vertical-align: middle; border: 0.5pt solid rgb(191, 191, 191); text-wrap: nowrap; text-align: center;&quot; class=&quot;xl179&quot;&gt;1&lt;/td&gt;&lt;td style=&quot;padding-top: 1px; padding-right: 1px; padding-left: 1px; color: rgb(0, 32, 96); font-size: 8pt; font-family: Calibri, sans-serif; vertical-align: middle; border: 0.5pt solid rgb(191, 191, 191); text-wrap: nowrap;&quot; class=&quot;xl173&quot;&gt;Alfanumerico&lt;/td&gt;&lt;td style=&quot;padding-top: 1px; padding-right: 1px; padding-left: 1px; color: rgb(0, 32, 96); font-size: 8pt; font-family: Calibri, sans-serif; vertical-align: middle; border-top: 0.5pt solid rgb(191, 191, 191); border-right: none; border-bottom: 0.5pt solid rgb(191, 191, 191); border-left: 0.5pt solid rgb(191, 191, 191); border-image: initial; text-wrap: nowrap;&quot; class=&quot;xl182&quot;&gt;Opcional&lt;/td&gt;&lt;td style=&quot;padding-top: 1px; padding-right: 1px; padding-left: 1px; color: rgb(0, 112, 192); font-size: 8pt; font-family: Calibri, sans-serif; vertical-align: middle; border-top: 0.5pt solid rgb(217, 217, 217); border-right: none; border-bottom: 0.5pt solid rgb(217, 217, 217); border-left: 0.5pt solid rgb(217, 217, 217); border-image: initial; width: 163pt;&quot; class=&quot;xl186&quot; width=&quot;217&quot;&gt;Salida. Se obtiene de tabla de relación de cuenta PAMPA con cuenta Captación MPDT014.&lt;/td&gt;&lt;td style=&quot;padding-top: 1px; padding-right: 1px; padding-left: 1px; font-size: 8pt; font-family: Calibri, sans-serif; vertical-align: middle; border: none; width: 158pt;&quot; class=&quot;xl183&quot; width=&quot;210&quot;&gt;Se pretende informar si es P. Principal o A. Adicional, actualmente siempre se maneja P.&lt;/td&gt;&lt;/tr&gt;&lt;tr style=&quot;height: 23.25pt;&quot; height=&quot;31&quot;&gt;&lt;td style=&quot;padding-top: 1px; padding-right: 1px; padding-left: 1px; color: rgb(0, 32, 96); font-size: 8pt; font-family: Calibri, sans-serif; vertical-align: middle; border: 0.5pt solid rgb(191, 191, 191); text-wrap: nowrap; height: 23.25pt;&quot; class=&quot;xl173&quot; height=&quot;31&quot;&gt;03&lt;/td&gt;&lt;td style=&quot;padding-top: 1px; padding-right: 1px; padding-left: 1px; color: rgb(0, 32, 96); font-size: 8pt; font-family: Calibri, sans-serif; vertical-align: middle; border: 0.5pt solid rgb(191, 191, 191); text-wrap: nowrap;&quot; class=&quot;xl173&quot;&gt;CTACARN&lt;/td&gt;&lt;td style=&quot;padding-top: 1px; padding-right: 1px; padding-left: 1px; color: rgb(0, 32, 96); font-size: 8pt; font-family: Calibri, sans-serif; vertical-align: middle; border: 0.5pt solid rgb(191, 191, 191); text-wrap: nowrap; background: rgb(208, 208, 208);&quot; class=&quot;xl185&quot;&gt;CUENTA DE CARGO NUEV&lt;/td&gt;&lt;td style=&quot;padding-top: 1px; padding-right: 1px; padding-left: 1px; color: rgb(0, 32, 96); font-size: 8pt; font-family: Calibri, sans-serif; vertical-align: middle; border: 0.5pt solid rgb(191, 191, 191); text-wrap: nowrap; text-align: center;&quot; class=&quot;xl179&quot;&gt;30&lt;/td&gt;&lt;td style=&quot;padding-top: 1px; padding-right: 1px; padding-left: 1px; color: rgb(0, 32, 96); font-size: 8pt; font-family: Calibri, sans-serif; vertical-align: middle; border: 0.5pt solid rgb(191, 191, 191); text-wrap: nowrap;&quot; class=&quot;xl173&quot;&gt;Alfanumerico&lt;/td&gt;&lt;td style=&quot;padding-top: 1px; padding-right: 1px; padding-left: 1px; color: rgb(0, 32, 96); font-size: 8pt; font-family: Calibri, sans-serif; vertical-align: middle; border-top: 0.5pt solid rgb(191, 191, 191); border-right: none; border-bottom: 0.5pt solid rgb(191, 191, 191); border-left: 0.5pt solid rgb(191, 191, 191); border-image: initial; text-wrap: nowrap;&quot; class=&quot;xl182&quot;&gt;Opcional&lt;/td&gt;&lt;td style=&quot;padding-top: 1px; padding-right: 1px; padding-left: 1px; color: rgb(0, 112, 192); font-size: 8pt; font-family: Calibri, sans-serif; vertical-align: middle; border-top: 0.5pt solid rgb(217, 217, 217); border-right: none; border-bottom: 0.5pt solid rgb(217, 217, 217); border-left: 0.5pt solid rgb(217, 217, 217); border-image: initial; width: 163pt;&quot; class=&quot;xl186&quot; width=&quot;217&quot;&gt;No se usa.&lt;/td&gt;&lt;td style=&quot;padding-top: 1px; padding-right: 1px; padding-left: 1px; font-size: 8pt; font-family: Calibri, sans-serif; vertical-align: middle; border: none; background: rgb(217, 217, 217); width: 158pt;&quot; class=&quot;xl272&quot; width=&quot;210&quot;&gt;No se usa, y no hay un campo como tal.&lt;br&gt;Se llena con espacios&lt;/td&gt;&lt;/tr&gt;&lt;tr style=&quot;height: 46.5pt;&quot; height=&quot;62&quot;&gt;&lt;td style=&quot;padding-top: 1px; padding-right: 1px; padding-left: 1px; color: rgb(0, 32, 96); font-size: 8pt; font-family: Calibri, sans-serif; vertical-align: middle; border: 0.5pt solid rgb(191, 191, 191); text-wrap: nowrap; height: 46.5pt;&quot; class=&quot;xl173&quot; height=&quot;62&quot;&gt;04&lt;/td&gt;&lt;td style=&quot;padding-top: 1px; padding-right: 1px; padding-left: 1px; color: rgb(0, 32, 96); font-size: 8pt; font-family: Calibri, sans-serif; vertical-align: middle; border: 0.5pt solid rgb(191, 191, 191); text-wrap: nowrap;&quot; class=&quot;xl173&quot;&gt;CTACARA&lt;/td&gt;&lt;td style=&quot;padding-top: 1px; padding-right: 1px; padding-left: 1px; color: rgb(0, 32, 96); font-size: 8pt; font-family: Calibri, sans-serif; vertical-align: middle; border: 0.5pt solid rgb(191, 191, 191); text-wrap: nowrap;&quot; class=&quot;xl173&quot;&gt;CUENTA DE CARGO ANTG&lt;/td&gt;&lt;td style=&quot;padding-top: 1px; padding-right: 1px; padding-left: 1px; color: rgb(0, 32, 96); font-size: 8pt; font-family: Calibri, sans-serif; vertical-align: middle; border: 0.5pt solid rgb(191, 191, 191); text-wrap: nowrap; text-align: center;&quot; class=&quot;xl179&quot;&gt;30&lt;/td&gt;&lt;td style=&quot;padding-top: 1px; padding-right: 1px; padding-left: 1px; color: rgb(0, 32, 96); font-size: 8pt; font-family: Calibri, sans-serif; vertical-align: middle; border: 0.5pt solid rgb(191, 191, 191); text-wrap: nowrap;&quot; class=&quot;xl173&quot;&gt;Alfanumerico&lt;/td&gt;&lt;td style=&quot;padding-top: 1px; padding-right: 1px; padding-left: 1px; color: rgb(0, 32, 96); font-size: 8pt; font-family: Calibri, sans-serif; vertical-align: middle; border-top: 0.5pt solid rgb(191, 191, 191); border-right: none; border-bottom: 0.5pt solid rgb(191, 191, 191); border-left: 0.5pt solid rgb(191, 191, 191); border-image: initial; text-wrap: nowrap;&quot; class=&quot;xl182&quot;&gt;Opcional&lt;/td&gt;&lt;td style=&quot;padding-top: 1px; padding-right: 1px; padding-left: 1px; color: rgb(0, 112, 192); font-size: 8pt; font-family: Calibri, sans-serif; vertical-align: middle; border-top: 0.5pt solid rgb(217, 217, 217); border-right: none; border-bottom: 0.5pt solid rgb(217, 217, 217); border-left: 0.5pt solid rgb(217, 217, 217); border-image: initial; width: 163pt;&quot; class=&quot;xl186&quot; width=&quot;217&quot;&gt;Salida. Se obtiene de tabla de relación de cuenta PAMPA con cuenta Captación MPDT014.&lt;/td&gt;&lt;td style=&quot;padding-top: 1px; padding-right: 1px; padding-left: 1px; font-size: 8pt; font-family: Calibri, sans-serif; vertical-align: middle; border: none; width: 158pt;&quot; class=&quot;xl183&quot; width=&quot;210&quot;&gt;Es la cuenta Captación relacionada a la cuenta PAMPA ... Es el contrato de captación completo es decir Entidad (4) + Centro(4) + Cuenta (12)&lt;/td&gt;&lt;/tr&gt;&lt;tr style=&quot;height: 34.5pt;&quot; height=&quot;46&quot;&gt;&lt;td style=&quot;padding-top: 1px; padding-right: 1px; padding-left: 1px; color: rgb(0, 32, 96); font-size: 8pt; font-family: Calibri, sans-serif; vertical-align: middle; border: 0.5pt solid rgb(191, 191, 191); text-wrap: nowrap; height: 34.5pt;&quot; class=&quot;xl173&quot; height=&quot;46&quot;&gt;05&lt;/td&gt;&lt;td style=&quot;padding-top: 1px; padding-right: 1px; padding-left: 1px; color: rgb(0, 32, 96); font-size: 8pt; font-family: Calibri, sans-serif; vertical-align: middle; border: 0.5pt solid rgb(191, 191, 191); text-wrap: nowrap;&quot; class=&quot;xl173&quot;&gt;CLAMON&lt;/td&gt;&lt;td style=&quot;padding-top: 1px; padding-right: 1px; padding-left: 1px; color: rgb(0, 32, 96); font-size: 8pt; font-family: Calibri, sans-serif; vertical-align: middle; border: 0.5pt solid rgb(191, 191, 191); text-wrap: nowrap;&quot; class=&quot;xl173&quot;&gt;CLAVE DE LA MONEDA&lt;/td&gt;&lt;td style=&quot;padding-top: 1px; padding-right: 1px; padding-left: 1px; color: rgb(0, 32, 96); font-size: 8pt; font-family: Calibri, sans-serif; vertical-align: middle; border: 0.5pt solid rgb(191, 191, 191); text-wrap: nowrap; text-align: center;&quot; class=&quot;xl179&quot;&gt;3&lt;/td&gt;&lt;td style=&quot;padding-top: 1px; padding-right: 1px; padding-left: 1px; color: rgb(0, 32, 96); font-size: 8pt; font-family: Calibri, sans-serif; vertical-align: middle; border: 0.5pt solid rgb(191, 191, 191); text-wrap: nowrap;&quot; class=&quot;xl173&quot;&gt;Numerico sin signo. Defecto Ceros&lt;/td&gt;&lt;td style=&quot;padding-top: 1px; padding-right: 1px; padding-left: 1px; color: rgb(0, 32, 96); font-size: 8pt; font-family: Calibri, sans-serif; vertical-align: middle; border-top: 0.5pt solid rgb(191, 191, 191); border-right: none; border-bottom: 0.5pt solid rgb(191, 191, 191); border-left: 0.5pt solid rgb(191, 191, 191); border-image: initial; text-wrap: nowrap;&quot; class=&quot;xl182&quot;&gt;Opcional&lt;/td&gt;&lt;td style=&quot;padding-top: 1px; padding-right: 1px; padding-left: 1px; color: rgb(0, 112, 192); font-size: 8pt; font-family: Calibri, sans-serif; vertical-align: middle; border-top: 0.5pt solid rgb(217, 217, 217); border-right: none; border-bottom: 0.5pt solid rgb(217, 217, 217); border-left: 0.5pt solid rgb(217, 217, 217); border-image: initial; width: 163pt;&quot; class=&quot;xl186&quot; width=&quot;217&quot;&gt;Salida. Se obtiene de tabla de relación de cuenta PAMPA con cuenta Captación MPDT014.&lt;/td&gt;&lt;td style=&quot;padding-top: 1px; padding-right: 1px; padding-left: 1px; font-size: 8pt; font-family: Calibri, sans-serif; vertical-align: middle; border: none; width: 158pt;&quot; class=&quot;xl183&quot; width=&quot;210&quot;&gt;Es el código de moneda basado en el ISO 4217 ... Para México solo se maneja para cuenta internas pesos mexicanos, código 484.&lt;/td&gt;&lt;/tr&gt;&lt;tr style=&quot;height: 46.5pt;&quot; height=&quot;62&quot;&gt;&lt;td style=&quot;padding-top: 1px; padding-right: 1px; padding-left: 1px; color: rgb(0, 32, 96); font-size: 8pt; font-family: Calibri, sans-serif; vertical-align: middle; border: 0.5pt solid rgb(191, 191, 191); text-wrap: nowrap; height: 46.5pt;&quot; class=&quot;xl173&quot; height=&quot;62&quot;&gt;06&lt;/td&gt;&lt;td style=&quot;padding-top: 1px; padding-right: 1px; padding-left: 1px; color: rgb(0, 32, 96); font-size: 8pt; font-family: Calibri, sans-serif; vertical-align: middle; border: 0.5pt solid rgb(191, 191, 191); text-wrap: nowrap;&quot; class=&quot;xl173&quot;&gt;INDTIPC&lt;/td&gt;&lt;td style=&quot;padding-top: 1px; padding-right: 1px; padding-left: 1px; color: rgb(0, 32, 96); font-size: 8pt; font-family: Calibri, sans-serif; vertical-align: middle; border: 0.5pt solid rgb(191, 191, 191); text-wrap: nowrap;&quot; class=&quot;xl173&quot;&gt;IND TIPO DE CTACARGO&lt;/td&gt;&lt;td style=&quot;padding-top: 1px; padding-right: 1px; padding-left: 1px; color: rgb(0, 32, 96); font-size: 8pt; font-family: Calibri, sans-serif; vertical-align: middle; border: 0.5pt solid rgb(191, 191, 191); text-wrap: nowrap; text-align: center;&quot; class=&quot;xl179&quot;&gt;2&lt;/td&gt;&lt;td style=&quot;padding-top: 1px; padding-right: 1px; padding-left: 1px; color: rgb(0, 32, 96); font-size: 8pt; font-family: Calibri, sans-serif; vertical-align: middle; border: 0.5pt solid rgb(191, 191, 191); text-wrap: nowrap;&quot; class=&quot;xl173&quot;&gt;Alfanumerico&lt;/td&gt;&lt;td style=&quot;padding-top: 1px; padding-right: 1px; padding-left: 1px; color: rgb(0, 32, 96); font-size: 8pt; font-family: Calibri, sans-serif; vertical-align: middle; border-top: 0.5pt solid rgb(191, 191, 191); border-right: none; border-bottom: 0.5pt solid rgb(191, 191, 191); border-left: 0.5pt solid rgb(191, 191, 191); border-image: initial; text-wrap: nowrap;&quot; class=&quot;xl182&quot;&gt;Opcional&lt;/td&gt;&lt;td style=&quot;padding-top: 1px; padding-right: 1px; padding-left: 1px; color: rgb(0, 112, 192); font-size: 8pt; font-family: Calibri, sans-serif; vertical-align: middle; border-top: 0.5pt solid rgb(217, 217, 217); border-right: none; border-bottom: 0.5pt solid rgb(217, 217, 217); border-left: 0.5pt solid rgb(217, 217, 217); border-image: initial; width: 163pt;&quot; class=&quot;xl186&quot; width=&quot;217&quot;&gt;Salida. Se obtiene de tabla de relación de cuenta PAMPA con cuenta Captación MPDT014.&lt;/td&gt;&lt;td style=&quot;padding-top: 1px; padding-right: 1px; padding-left: 1px; font-size: 8pt; font-family: Calibri; vertical-align: middle; border: none; width: 158pt;&quot; class=&quot;xl270&quot; width=&quot;210&quot;&gt;&lt;span style=&quot;font-size: 8pt;&quot; class=&quot;font95&quot;&gt;Es el tipo de cuenta cargo ... pero actualmente se informa &#39;1&#39; o &#39;01&#39; no le veo uso&lt;br&gt;&lt;/span&gt;&lt;span style=&quot;font-size: 8pt; font-weight: 700;&quot; class=&quot;font90&quot;&gt;Se debe mandar &quot;1&quot; + espacio&lt;/span&gt;&lt;/td&gt;&lt;/tr&gt;&lt;tr style=&quot;height: 34.5pt;&quot; height=&quot;46&quot;&gt;&lt;td style=&quot;padding-top: 1px; padding-right: 1px; padding-left: 1px; color: rgb(0, 32, 96); font-size: 8pt; font-family: Calibri, sans-serif; vertical-align: middle; border: 0.5pt solid rgb(191, 191, 191); text-wrap: nowrap; height: 34.5pt;&quot; class=&quot;xl173&quot; height=&quot;46&quot;&gt;07&lt;/td&gt;&lt;td style=&quot;padding-top: 1px; padding-right: 1px; padding-left: 1px; color: rgb(0, 32, 96); font-size: 8pt; font-family: Calibri, sans-serif; vertical-align: middle; border: 0.5pt solid rgb(191, 191, 191); text-wrap: nowrap;&quot; class=&quot;xl173&quot;&gt;INDAJEN&lt;/td&gt;&lt;td style=&quot;padding-top: 1px; padding-right: 1px; padding-left: 1px; color: rgb(0, 32, 96); font-size: 8pt; font-family: Calibri, sans-serif; vertical-align: middle; border: 0.5pt solid rgb(191, 191, 191); text-wrap: nowrap; background: rgb(217, 217, 217);&quot; class=&quot;xl271&quot;&gt;IND DE CCC AJENA&lt;/td&gt;&lt;td style=&quot;padding-top: 1px; padding-right: 1px; padding-left: 1px; color: rgb(0, 32, 96); font-size: 8pt; font-family: Calibri, sans-serif; vertical-align: middle; border: 0.5pt solid rgb(191, 191, 191); text-wrap: nowrap; text-align: center;&quot; class=&quot;xl179&quot;&gt;1&lt;/td&gt;&lt;td style=&quot;padding-top: 1px; padding-right: 1px; padding-left: 1px; color: rgb(0, 32, 96); font-size: 8pt; font-family: Calibri, sans-serif; vertical-align: middle; border: 0.5pt solid rgb(191, 191, 191); text-wrap: nowrap;&quot; class=&quot;xl173&quot;&gt;Alfanumerico&lt;/td&gt;&lt;td style=&quot;padding-top: 1px; padding-right: 1px; padding-left: 1px; color: rgb(0, 32, 96); font-size: 8pt; font-family: Calibri, sans-serif; vertical-align: middle; border-top: 0.5pt solid rgb(191, 191, 191); border-right: none; border-bottom: 0.5pt solid rgb(191, 191, 191); border-left: 0.5pt solid rgb(191, 191, 191); border-image: initial; text-wrap: nowrap;&quot; class=&quot;xl182&quot;&gt;Opcional&lt;/td&gt;&lt;td style=&quot;padding-top: 1px; padding-right: 1px; padding-left: 1px; color: rgb(0, 112, 192); font-size: 8pt; font-family: Calibri, sans-serif; vertical-align: middle; border-top: 0.5pt solid rgb(217, 217, 217); border-right: none; border-bottom: 0.5pt solid rgb(217, 217, 217); border-left: 0.5pt solid rgb(217, 217, 217); border-image: initial; width: 163pt;&quot; class=&quot;xl186&quot; width=&quot;217&quot;&gt;Salida. Se obtiene de tabla de relación de cuenta PAMPA con cuenta Captación MPDT014.&lt;/td&gt;&lt;td style=&quot;padding-top: 1px; padding-right: 1px; padding-left: 1px; font-size: 8pt; font-family: Calibri, sans-serif; vertical-align: middle; border: none; background: rgb(217, 217, 217); width: 158pt;&quot; class=&quot;xl272&quot; width=&quot;210&quot;&gt;Indicador de si cuenta cargo es Ajena (S o N), actualmente todas son propias por lo que siempre se informa en N&lt;/td&gt;&lt;/tr&gt;&lt;tr style=&quot;height: 34.5pt;&quot; height=&quot;46&quot;&gt;&lt;td style=&quot;padding-top: 1px; padding-right: 1px; padding-left: 1px; color: rgb(0, 32, 96); font-size: 8pt; font-family: Calibri, sans-serif; vertical-align: middle; border: 0.5pt solid rgb(191, 191, 191); text-wrap: nowrap; height: 34.5pt;&quot; class=&quot;xl173&quot; height=&quot;46&quot;&gt;08&lt;/td&gt;&lt;td style=&quot;padding-top: 1px; padding-right: 1px; padding-left: 1px; color: rgb(0, 32, 96); font-size: 8pt; font-family: Calibri, sans-serif; vertical-align: middle; border: 0.5pt solid rgb(191, 191, 191); text-wrap: nowrap;&quot; class=&quot;xl173&quot;&gt;CCCPROD&lt;/td&gt;&lt;td style=&quot;padding-top: 1px; padding-right: 1px; padding-left: 1px; color: rgb(0, 32, 96); font-size: 8pt; font-family: Calibri, sans-serif; vertical-align: middle; border: 0.5pt solid rgb(191, 191, 191); text-wrap: nowrap;&quot; class=&quot;xl173&quot;&gt;PRODUCTO DE CCC&lt;/td&gt;&lt;td style=&quot;padding-top: 1px; padding-right: 1px; padding-left: 1px; color: rgb(0, 32, 96); font-size: 8pt; font-family: Calibri, sans-serif; vertical-align: middle; border: 0.5pt solid rgb(191, 191, 191); text-wrap: nowrap; text-align: center;&quot; class=&quot;xl179&quot;&gt;2&lt;/td&gt;&lt;td style=&quot;padding-top: 1px; padding-right: 1px; padding-left: 1px; color: rgb(0, 32, 96); font-size: 8pt; font-family: Calibri, sans-serif; vertical-align: middle; border: 0.5pt solid rgb(191, 191, 191); text-wrap: nowrap;&quot; class=&quot;xl173&quot;&gt;Alfanumerico&lt;/td&gt;&lt;td style=&quot;padding-top: 1px; padding-right: 1px; padding-left: 1px; color: rgb(0, 32, 96); font-size: 8pt; font-family: Calibri, sans-serif; vertical-align: middle; border-top: 0.5pt solid rgb(191, 191, 191); border-right: none; border-bottom: 0.5pt solid rgb(191, 191, 191); border-left: 0.5pt solid rgb(191, 191, 191); border-image: initial; text-wrap: nowrap;&quot; class=&quot;xl182&quot;&gt;Opcional&lt;/td&gt;&lt;td style=&quot;padding-top: 1px; padding-right: 1px; padding-left: 1px; color: rgb(0, 112, 192); font-size: 8pt; font-family: Calibri, sans-serif; vertical-align: middle; border-top: 0.5pt solid rgb(217, 217, 217); border-right: none; border-bottom: 0.5pt solid rgb(217, 217, 217); border-left: 0.5pt solid rgb(217, 217, 217); border-image: initial; width: 163pt;&quot; class=&quot;xl186&quot; width=&quot;217&quot;&gt;Salida. Se obtiene de tabla de relación de cuenta PAMPA con cuenta Captación MPDT014.&lt;/td&gt;&lt;td style=&quot;padding-top: 1px; padding-right: 1px; padding-left: 1px; font-size: 8pt; font-family: Calibri, sans-serif; vertical-align: middle; border: none; width: 158pt;&quot; class=&quot;xl183&quot; width=&quot;210&quot;&gt;Producto captación al que pertenece la cuenta cargo (o cuenta captación). Este catálogo lo controla captación en BGDTPRO.&lt;/td&gt;&lt;/tr&gt;&lt;tr style=&quot;height: 34.5pt;&quot; height=&quot;46&quot;&gt;&lt;td style=&quot;padding-top: 1px; padding-right: 1px; padding-left: 1px; color: rgb(0, 32, 96); font-size: 8pt; font-family: Calibri, sans-serif; vertical-align: middle; border: 0.5pt solid rgb(191, 191, 191); text-wrap: nowrap; height: 34.5pt;&quot; class=&quot;xl173&quot; height=&quot;46&quot;&gt;09&lt;/td&gt;&lt;td style=&quot;padding-top: 1px; padding-right: 1px; padding-left: 1px; color: rgb(0, 32, 96); font-size: 8pt; font-family: Calibri, sans-serif; vertical-align: middle; border: 0.5pt solid rgb(191, 191, 191); text-wrap: nowrap;&quot; class=&quot;xl173&quot;&gt;CCCSUBP&lt;/td&gt;&lt;td style=&quot;padding-top: 1px; padding-right: 1px; padding-left: 1px; color: rgb(0, 32, 96); font-size: 8pt; font-family: Calibri, sans-serif; vertical-align: middle; border: 0.5pt solid rgb(191, 191, 191); text-wrap: nowrap;&quot; class=&quot;xl173&quot;&gt;SUBPRODUCTO DE CCC&lt;/td&gt;&lt;td style=&quot;padding-top: 1px; padding-right: 1px; padding-left: 1px; color: rgb(0, 32, 96); font-size: 8pt; font-family: Calibri, sans-serif; vertical-align: middle; border: 0.5pt solid rgb(191, 191, 191); text-wrap: nowrap; text-align: center;&quot; class=&quot;xl179&quot;&gt;4&lt;/td&gt;&lt;td style=&quot;padding-top: 1px; padding-right: 1px; padding-left: 1px; color: rgb(0, 32, 96); font-size: 8pt; font-family: Calibri, sans-serif; vertical-align: middle; border: 0.5pt solid rgb(191, 191, 191); text-wrap: nowrap;&quot; class=&quot;xl173&quot;&gt;Alfanumerico&lt;/td&gt;&lt;td style=&quot;padding-top: 1px; padding-right: 1px; padding-left: 1px; color: rgb(0, 32, 96); font-size: 8pt; font-family: Calibri, sans-serif; vertical-align: middle; border-top: 0.5pt solid rgb(191, 191, 191); border-right: none; border-bottom: 0.5pt solid rgb(191, 191, 191); border-left: 0.5pt solid rgb(191, 191, 191); border-image: initial; text-wrap: nowrap;&quot; class=&quot;xl182&quot;&gt;Opcional&lt;/td&gt;&lt;td style=&quot;padding-top: 1px; padding-right: 1px; padding-left: 1px; color: rgb(0, 112, 192); font-size: 8pt; font-family: Calibri, sans-serif; vertical-align: middle; border-top: 0.5pt solid rgb(217, 217, 217); border-right: none; border-bottom: 0.5pt solid rgb(217, 217, 217); border-left: 0.5pt solid rgb(217, 217, 217); border-image: initial; width: 163pt;&quot; class=&quot;xl186&quot; width=&quot;217&quot;&gt;Salida. Se obtiene de tabla de relación de cuenta PAMPA con cuenta Captación MPDT014.&lt;/td&gt;&lt;td style=&quot;padding-top: 1px; padding-right: 1px; padding-left: 1px; font-size: 8pt; font-family: Calibri, sans-serif; vertical-align: middle; border: none; width: 158pt;&quot; class=&quot;xl183&quot; width=&quot;210&quot;&gt;Subproducto captación al que pertenece la cuenta cargo (o cuenta captación). Este catálogo lo controla captación en BGDTPRO.&lt;/td&gt;&lt;/tr&gt;&lt;tr style=&quot;height: 23.25pt;&quot; height=&quot;31&quot;&gt;&lt;td style=&quot;padding-top: 1px; padding-right: 1px; padding-left: 1px; color: rgb(0, 32, 96); font-size: 8pt; font-family: Calibri, sans-serif; vertical-align: middle; border: 0.5pt solid rgb(191, 191, 191); text-wrap: nowrap; height: 23.25pt;&quot; class=&quot;xl173&quot; height=&quot;31&quot;&gt;10&lt;/td&gt;&lt;td style=&quot;padding-top: 1px; padding-right: 1px; padding-left: 1px; color: rgb(0, 32, 96); font-size: 8pt; font-family: Calibri, sans-serif; vertical-align: middle; border: 0.5pt solid rgb(191, 191, 191); text-wrap: nowrap;&quot; class=&quot;xl173&quot;&gt;INDACTP&lt;/td&gt;&lt;td style=&quot;padding-top: 1px; padding-right: 1px; padding-left: 1px; color: rgb(0, 32, 96); font-size: 8pt; font-family: Calibri, sans-serif; vertical-align: middle; border: 0.5pt solid rgb(191, 191, 191); text-wrap: nowrap; background: rgb(217, 217, 217);&quot; class=&quot;xl271&quot;&gt;IND. ACTIVO-PASIVO&lt;/td&gt;&lt;td style=&quot;padding-top: 1px; padding-right: 1px; padding-left: 1px; color: rgb(0, 32, 96); font-size: 8pt; font-family: Calibri, sans-serif; vertical-align: middle; border: 0.5pt solid rgb(191, 191, 191); text-wrap: nowrap; text-align: center;&quot; class=&quot;xl179&quot;&gt;1&lt;/td&gt;&lt;td style=&quot;padding-top: 1px; padding-right: 1px; padding-left: 1px; color: rgb(0, 32, 96); font-size: 8pt; font-family: Calibri, sans-serif; vertical-align: middle; border: 0.5pt solid rgb(191, 191, 191); text-wrap: nowrap;&quot; class=&quot;xl173&quot;&gt;Alfanumerico&lt;/td&gt;&lt;td style=&quot;padding-top: 1px; padding-right: 1px; padding-left: 1px; color: rgb(0, 32, 96); font-size: 8pt; font-family: Calibri, sans-serif; vertical-align: middle; border-top: 0.5pt solid rgb(191, 191, 191); border-right: none; border-bottom: 0.5pt solid rgb(191, 191, 191); border-left: 0.5pt solid rgb(191, 191, 191); border-image: initial; text-wrap: nowrap;&quot; class=&quot;xl182&quot;&gt;Opcional&lt;/td&gt;&lt;td style=&quot;padding-top: 1px; padding-right: 1px; padding-left: 1px; color: rgb(0, 112, 192); font-size: 8pt; font-family: Calibri, sans-serif; vertical-align: middle; border-top: 0.5pt solid rgb(217, 217, 217); border-right: none; border-bottom: 0.5pt solid rgb(217, 217, 217); border-left: 0.5pt solid rgb(217, 217, 217); border-image: initial; width: 163pt;&quot; class=&quot;xl186&quot; width=&quot;217&quot;&gt;Salida. Se obtiene de tabla de relación de cuenta PAMPA con cuenta Captación MPDT014.&lt;/td&gt;&lt;td style=&quot;padding-top: 1px; padding-right: 1px; padding-left: 1px; font-size: 8pt; font-family: Calibri, sans-serif; vertical-align: middle; border: none; background: rgb(217, 217, 217); width: 158pt;&quot; class=&quot;xl272&quot; width=&quot;210&quot;&gt;Se informa en A. Activo o P. Pasivo.&lt;br&gt;Todas las cuentas con Pasivo.&lt;/td&gt;&lt;/tr&gt;&lt;tr style=&quot;height: 57.75pt;&quot; height=&quot;77&quot;&gt;&lt;td style=&quot;padding-top: 1px; padding-right: 1px; padding-left: 1px; color: rgb(0, 32, 96); font-size: 8pt; font-family: Calibri, sans-serif; vertical-align: middle; border: 0.5pt solid rgb(191, 191, 191); text-wrap: nowrap; height: 57.75pt;&quot; class=&quot;xl173&quot; height=&quot;77&quot;&gt;11&lt;/td&gt;&lt;td style=&quot;padding-top: 1px; padding-right: 1px; padding-left: 1px; color: rgb(0, 32, 96); font-size: 8pt; font-family: Calibri, sans-serif; vertical-align: middle; border: 0.5pt solid rgb(191, 191, 191); text-wrap: nowrap;&quot; class=&quot;xl173&quot;&gt;FECALTA&lt;/td&gt;&lt;td style=&quot;padding-top: 1px; padding-right: 1px; padding-left: 1px; color: rgb(0, 32, 96); font-size: 8pt; font-family: Calibri, sans-serif; vertical-align: middle; border: 0.5pt solid rgb(191, 191, 191); text-wrap: nowrap;&quot; class=&quot;xl173&quot;&gt;FECHA DE ALTA&lt;/td&gt;&lt;td style=&quot;padding-top: 1px; padding-right: 1px; padding-left: 1px; color: rgb(0, 32, 96); font-size: 8pt; font-family: Calibri, sans-serif; vertical-align: middle; border: 0.5pt solid rgb(191, 191, 191); text-wrap: nowrap; text-align: center;&quot; class=&quot;xl179&quot;&gt;10&lt;/td&gt;&lt;td style=&quot;padding-top: 1px; padding-right: 1px; padding-left: 1px; color: rgb(0, 32, 96); font-size: 8pt; font-family: Calibri, sans-serif; vertical-align: middle; border: 0.5pt solid rgb(191, 191, 191); text-wrap: nowrap;&quot; class=&quot;xl173&quot;&gt;Alfanumerico&lt;/td&gt;&lt;td style=&quot;padding-top: 1px; padding-right: 1px; padding-left: 1px; color: rgb(0, 32, 96); font-size: 8pt; font-family: Calibri, sans-serif; vertical-align: middle; border-top: 0.5pt solid rgb(191, 191, 191); border-right: none; border-bottom: 0.5pt solid rgb(191, 191, 191); border-left: 0.5pt solid rgb(191, 191, 191); border-image: initial; text-wrap: nowrap;&quot; class=&quot;xl182&quot;&gt;Opcional&lt;/td&gt;&lt;td style=&quot;padding-top: 1px; padding-right: 1px; padding-left: 1px; color: rgb(0, 112, 192); font-size: 8pt; font-family: Calibri, sans-serif; vertical-align: middle; border-top: 0.5pt solid rgb(217, 217, 217); border-right: none; border-bottom: 0.5pt solid rgb(217, 217, 217); border-left: 0.5pt solid rgb(217, 217, 217); border-image: initial; width: 163pt;&quot; class=&quot;xl186&quot; width=&quot;217&quot;&gt;Salida. Se obtiene de tabla de relación de cuenta PAMPA con cuenta Captación MPDT014.&lt;/td&gt;&lt;td style=&quot;padding-top: 1px; padding-right: 1px; padding-left: 1px; font-size: 8pt; font-family: Calibri, sans-serif; vertical-align: middle; border: none; width: 158pt;&quot; class=&quot;xl183&quot; width=&quot;210&quot;&gt;Fecha de alta de la relación entre la cuenta captación y cuenta PAMPA. La mayoría de los casos será la misma fecha de alta del contrato PAMPA.&lt;br&gt;Formato: AAAA-MM-DD&lt;/td&gt;&lt;/tr&gt;&lt;tr style=&quot;height: 34.5pt;&quot; height=&quot;46&quot;&gt;&lt;td style=&quot;padding-top: 1px; padding-right: 1px; padding-left: 1px; color: rgb(0, 32, 96); font-size: 8pt; font-family: Calibri, sans-serif; vertical-align: middle; border: 0.5pt solid rgb(191, 191, 191); text-wrap: nowrap; height: 34.5pt;&quot; class=&quot;xl173&quot; height=&quot;46&quot;&gt;12&lt;/td&gt;&lt;td style=&quot;padding-top: 1px; padding-right: 1px; padding-left: 1px; color: rgb(0, 32, 96); font-size: 8pt; font-family: Calibri, sans-serif; vertical-align: middle; border: 0.5pt solid rgb(191, 191, 191); text-wrap: nowrap;&quot; class=&quot;xl173&quot;&gt;FECBAJA&lt;/td&gt;&lt;td style=&quot;padding-top: 1px; padding-right: 1px; padding-left: 1px; color: rgb(0, 32, 96); font-size: 8pt; font-family: Calibri, sans-serif; vertical-align: middle; border: 0.5pt solid rgb(191, 191, 191); text-wrap: nowrap;&quot; class=&quot;xl173&quot;&gt;FECHA DE BAJA&lt;/td&gt;&lt;td style=&quot;padding-top: 1px; padding-right: 1px; padding-left: 1px; color: rgb(0, 32, 96); font-size: 8pt; font-family: Calibri, sans-serif; vertical-align: middle; border: 0.5pt solid rgb(191, 191, 191); text-wrap: nowrap; text-align: center;&quot; class=&quot;xl179&quot;&gt;10&lt;/td&gt;&lt;td style=&quot;padding-top: 1px; padding-right: 1px; padding-left: 1px; color: rgb(0, 32, 96); font-size: 8pt; font-family: Calibri, sans-serif; vertical-align: middle; border: 0.5pt solid rgb(191, 191, 191); text-wrap: nowrap;&quot; class=&quot;xl173&quot;&gt;Alfanumerico&lt;/td&gt;&lt;td style=&quot;padding-top: 1px; padding-right: 1px; padding-left: 1px; color: rgb(0, 32, 96); font-size: 8pt; font-family: Calibri, sans-serif; vertical-align: middle; border-top: 0.5pt solid rgb(191, 191, 191); border-right: none; border-bottom: 0.5pt solid rgb(191, 191, 191); border-left: 0.5pt solid rgb(191, 191, 191); border-image: initial; text-wrap: nowrap;&quot; class=&quot;xl182&quot;&gt;Opcional&lt;/td&gt;&lt;td style=&quot;padding-top: 1px; padding-right: 1px; padding-left: 1px; color: rgb(0, 112, 192); font-size: 8pt; font-family: Calibri, sans-serif; vertical-align: middle; border-top: 0.5pt solid rgb(217, 217, 217); border-right: none; border-bottom: 0.5pt solid rgb(217, 217, 217); border-left: 0.5pt solid rgb(217, 217, 217); border-image: initial; width: 163pt;&quot; class=&quot;xl186&quot; width=&quot;217&quot;&gt;Salida. Se obtiene de tabla de relación de cuenta PAMPA con cuenta Captación MPDT014.&lt;/td&gt;&lt;td style=&quot;padding-top: 1px; padding-right: 1px; padding-left: 1px; font-size: 8pt; font-family: Calibri, sans-serif; vertical-align: middle; border: none; width: 158pt;&quot; class=&quot;xl183&quot; width=&quot;210&quot;&gt;Fecha de baja de relación de cuenta captación con cuenta PAMPA.&lt;br&gt;Formato: AAAA-MM-DD&lt;/td&gt;&lt;/tr&gt;&lt;tr style=&quot;height: 69.75pt;&quot; height=&quot;93&quot;&gt;&lt;td style=&quot;padding-top: 1px; padding-right: 1px; padding-left: 1px; color: rgb(0, 32, 96); font-size: 8pt; font-family: Calibri, sans-serif; vertical-align: middle; border: 0.5pt solid rgb(191, 191, 191); text-wrap: nowrap; height: 69.75pt;&quot; class=&quot;xl173&quot; height=&quot;93&quot;&gt;13&lt;/td&gt;&lt;td style=&quot;padding-top: 1px; padding-right: 1px; padding-left: 1px; color: rgb(0, 32, 96); font-size: 8pt; font-family: Calibri, sans-serif; vertical-align: middle; border: 0.5pt solid rgb(191, 191, 191); text-wrap: nowrap;&quot; class=&quot;xl173&quot;&gt;CONTCUR&lt;/td&gt;&lt;td style=&quot;padding-top: 1px; padding-right: 1px; padding-left: 1px; color: rgb(0, 32, 96); font-size: 8pt; font-family: Calibri, sans-serif; vertical-align: middle; border: 0.5pt solid rgb(191, 191, 191); text-wrap: nowrap;&quot; class=&quot;xl173&quot;&gt;CONTROL DE CONCURREN&lt;/td&gt;&lt;td style=&quot;padding-top: 1px; padding-right: 1px; padding-left: 1px; color: rgb(0, 32, 96); font-size: 8pt; font-family: Calibri, sans-serif; vertical-align: middle; border: 0.5pt solid rgb(191, 191, 191); text-wrap: nowrap; text-align: center;&quot; class=&quot;xl179&quot;&gt;26&lt;/td&gt;&lt;td style=&quot;padding-top: 1px; padding-right: 1px; padding-left: 1px; color: rgb(0, 32, 96); font-size: 8pt; font-family: Calibri, sans-serif; vertical-align: middle; border: 0.5pt solid rgb(191, 191, 191); text-wrap: nowrap;&quot; class=&quot;xl173&quot;&gt;Alfanumerico&lt;/td&gt;&lt;td style=&quot;padding-top: 1px; padding-right: 1px; padding-left: 1px; color: rgb(0, 32, 96); font-size: 8pt; font-family: Calibri, sans-serif; vertical-align: middle; border-top: 0.5pt solid rgb(191, 191, 191); border-right: none; border-bottom: 0.5pt solid rgb(191, 191, 191); border-left: 0.5pt solid rgb(191, 191, 191); border-image: initial; text-wrap: nowrap;&quot; class=&quot;xl182&quot;&gt;Opcional&lt;/td&gt;&lt;td style=&quot;padding-top: 1px; padding-right: 1px; padding-left: 1px; color: rgb(0, 112, 192); font-size: 8pt; font-family: Calibri, sans-serif; vertical-align: middle; border-top: 0.5pt solid rgb(217, 217, 217); border-right: none; border-bottom: 0.5pt solid rgb(217, 217, 217); border-left: 0.5pt solid rgb(217, 217, 217); border-image: initial; width: 163pt;&quot; class=&quot;xl186&quot; width=&quot;217&quot;&gt;Salida. Se obtiene de tabla de relación de cuenta PAMPA con cuenta Captación MPDT014.&lt;/td&gt;&lt;td style=&quot;padding-top: 1px; padding-right: 1px; padding-left: 1px; font-size: 8pt; font-family: Calibri, sans-serif; vertical-align: middle; border: none; width: 158pt;&quot; class=&quot;xl183&quot; width=&quot;210&quot;&gt;Es el control de actualizaciones al registro de la tabla, cuando haya una actualización al contrato aquí se muestra la fecha y hora en que se realizó esta última modificación en formato AAAA-MM-DD-HH.SS.MM.mmmmmm&amp;nbsp;&lt;/td&gt;&lt;/tr&gt;&lt;/tbody&gt;&lt;/table&gt;&lt;/div&gt;" style="rounded=0;whiteSpace=wrap;html=1;" vertex="1" parent="1">
          <mxGeometry x="590" y="-680" width="840" height="760" as="geometry" />
        </mxCell>
      </root>
    </mxGraphModel>
  </diagram>
</mxfile>
